<svg width="70" height="18" viewBox="0 0 70 18" fill="none" xmlns="http://www.w3.org/2000/svg">
<g clip-path="url(#clip0_7161_268508)">
<path d="M69.299 0.396362H0V17.7464H69.299V0.396362Z" fill="#0072B9"/>
<path d="M20.3266 5.78322H21.4149C21.6101 5.7734 21.8055 5.79782 21.9923 5.85539C22.0406 5.8707 22.0851 5.89618 22.1228 5.93013C22.1605 5.96408 22.1904 6.00569 22.2107 6.05219C22.2309 6.09869 22.241 6.14899 22.2401 6.1997C22.2393 6.2504 22.2276 6.30034 22.2059 6.34615C22.1727 6.46367 22.1111 6.57121 22.0265 6.65931C21.9419 6.74741 21.837 6.81336 21.7209 6.85135C21.5185 6.91562 21.3067 6.94491 21.0945 6.93796H19.9859L20.3266 5.78322ZM19.882 7.345H21.0916C21.2918 7.33717 21.492 7.36354 21.6834 7.42295C21.7419 7.43523 21.7969 7.46032 21.8446 7.49644C21.8922 7.53255 21.9312 7.57879 21.9588 7.6318C21.9865 7.68482 22.002 7.74329 22.0043 7.80302C22.0065 7.86276 21.9955 7.92225 21.9721 7.97722C21.9261 8.13789 21.8325 8.28084 21.7036 8.38716C21.4516 8.579 21.1393 8.67424 20.8231 8.65564H19.5096L19.882 7.345ZM20.6759 9.09156C21.1875 9.11648 21.6918 8.96233 22.102 8.65564C22.3194 8.4909 22.4807 8.26305 22.5639 8.00321C22.6104 7.89225 22.6251 7.77052 22.6062 7.65169C22.5873 7.53286 22.5357 7.42165 22.4571 7.33057C22.3292 7.21577 22.1773 7.13095 22.0125 7.08231C22.1634 7.03041 22.3063 6.95752 22.4369 6.86579C22.6355 6.72588 22.7802 6.52209 22.8468 6.28842C22.8776 6.20199 22.89 6.11004 22.883 6.01854C22.876 5.92703 22.8499 5.83801 22.8064 5.75723C22.662 5.49453 22.3243 5.36462 21.796 5.36462H19.8618L18.7734 9.09156H20.6759Z" fill="white"/>
<path d="M26.8359 9.10889L27.9243 5.38196H28.6431L30.3204 8.28613L31.0883 5.38196H31.6656L30.7274 9.11755H30.0259L28.3082 6.0979L27.4249 9.11466L26.8359 9.10889Z" fill="white"/>
<path d="M31.2852 9.12622L32.3735 5.39929H32.9682L32.437 7.21513L35.1622 5.39929H36.0052L33.6957 6.90046L35.2344 9.12045H34.5011L33.1616 7.25554L32.2725 7.83291L31.8943 9.13199L31.2852 9.12622Z" fill="white"/>
<path d="M25.7394 5.34155H25.0378L22.1914 9.12045H22.8612L23.6983 7.98302H25.7365L26.0021 9.12045H26.7065L25.7394 5.34155ZM24.1054 7.52113L25.2399 5.8785L25.543 7.52113H24.1054Z" fill="white"/>
<path d="M46.0422 5.39634H47.5376L47.1681 6.83977L49.007 5.37036L50.9239 5.39634L48.9031 6.83977L50.1271 9.14925L48.4354 9.1175L47.6704 7.61056L46.9342 8.04359L46.5676 9.14348H45.0693L46.0422 5.39634Z" fill="white"/>
<path d="M53.1182 9.14358H51.5795L51.949 7.51828L50.6846 5.39355H52.3561L53.0518 6.58005L54.1892 5.39355H55.8289L53.4213 7.54715L53.1182 9.14358Z" fill="white"/>
<path d="M40.1299 9.13781L42.7281 5.40222H44.2437L44.9047 9.13781H43.4209L43.3718 8.64415H41.888L41.5993 9.13492L40.1299 9.13781ZM43.1784 6.53964L42.3701 7.87914H43.3112L43.1784 6.53964Z" fill="white"/>
<path d="M53.9463 9.10307L56.5445 5.37036H58.0601L58.7183 9.10884H57.2344L57.1853 8.61807H55.7044L55.4157 9.11173L53.9463 9.10307ZM56.9977 6.5049L56.1894 7.8444H57.1218L56.9977 6.5049Z" fill="white"/>
<path d="M59.1259 5.38487L63.7131 5.35889L63.4504 6.31155L61.9377 6.34042L61.1986 9.12046H59.7783L60.5144 6.33753H58.8545L59.1259 5.38487Z" fill="white"/>
<path d="M40.3153 5.67644C40.2103 5.56311 40.0789 5.47747 39.9329 5.42711C39.7868 5.37675 39.6306 5.36323 39.4781 5.38775C38.8747 5.42239 36.47 5.38775 36.47 5.38775L35.4336 9.14066H36.9146L37.3851 7.63662C37.3851 7.63662 37.72 7.46918 37.9625 7.90509L38.4966 9.14066H40.2287L39.862 8.27461L39.6282 7.80694C39.5669 7.72518 39.4855 7.66067 39.392 7.61969C39.2984 7.57871 39.1958 7.56267 39.0941 7.5731C39.3917 7.46849 39.6726 7.32168 39.9284 7.13719C39.9284 7.13719 40.5058 6.86872 40.5318 6.40393C40.5502 6.27423 40.5404 6.14207 40.5031 6.01651C40.4657 5.89095 40.4016 5.77495 40.3153 5.67644ZM38.7448 6.77922C38.4099 7.11409 38.1415 6.9813 38.1415 6.9813L37.4833 6.95532L37.6709 6.23361V6.14412H38.5052C38.7737 6.17876 38.7939 6.24515 38.7939 6.24515C39.0451 6.61467 38.7448 6.77922 38.7448 6.77922Z" fill="white"/>
<path d="M55.7275 10.7255L56.1288 10.3589L56.5301 10.7255L56.1288 11.095L55.7275 10.7255Z" fill="white"/>
<path d="M56.291 10.1337L56.6923 9.76416L57.0936 10.1337L56.6923 10.5003L56.291 10.1337Z" fill="white"/>
<path d="M56.8105 10.7227L57.2118 10.3531L57.6131 10.7227L57.2118 11.0893L56.8105 10.7227Z" fill="white"/>
<path d="M57.6211 13.1967L58.0224 12.8301L58.4236 13.1967L58.0224 13.5662L57.6211 13.1967Z" fill="white"/>
<path d="M56.7471 13.2256L57.1483 12.8561L57.5496 13.2256L57.1483 13.5922L56.7471 13.2256Z" fill="white"/>
<path d="M43.0029 13.2574L43.4042 12.8907L43.8055 13.2574L43.4042 13.6269L43.0029 13.2574Z" fill="white"/>
<path d="M42.1279 13.2861L42.5292 12.9166L42.9305 13.2861L42.5292 13.6528L42.1279 13.2861Z" fill="white"/>
<path d="M39.6074 11.0055L40.0087 10.6389L40.41 11.0055L40.0087 11.3722L39.6074 11.0055Z" fill="white"/>
<path d="M38.7354 11.0344L39.1337 10.6649L39.5379 11.0344L39.1337 11.4011L38.7354 11.0344Z" fill="white"/>
<path d="M59.1055 13.1794L59.5067 12.8127L59.908 13.1794L59.5067 13.546L59.1055 13.1794Z" fill="white"/>
<path d="M48.3722 11.1586C48.3722 11.1586 47.7371 11.3924 47.639 11.9294C47.639 11.9294 48.173 12.0968 48.2394 12.3624C48.2667 12.4952 48.2441 12.6333 48.1759 12.7505C48.1077 12.8676 47.9988 12.9556 47.8699 12.9975C47.7471 13.0623 47.6113 13.0991 47.4725 13.105C47.3338 13.111 47.1954 13.0861 47.0674 13.0321C47.2168 13.1355 47.3861 13.2066 47.5646 13.2409C47.743 13.2752 47.9267 13.2719 48.1038 13.2313C48.1038 13.2313 48.6811 13.2313 48.9063 12.4952C48.9694 12.2445 48.9518 11.9804 48.8559 11.7403C48.76 11.5003 48.5907 11.2967 48.3722 11.1586Z" fill="white"/>
<path d="M39.0155 12.6309H38.877C38.9227 12.6401 38.9698 12.6401 39.0155 12.6309Z" fill="white"/>
<path d="M46.9688 12.0622L46.0334 12.0276C45.6986 11.9294 45.8314 11.8284 45.8314 11.8284C45.7996 11.5599 46.2326 11.4617 46.2326 11.4617C46.4256 11.3858 46.6401 11.3858 46.8331 11.4617C46.8677 11.1933 46.5675 11.0605 46.5675 11.0605C46.7696 10.5581 46.2326 10.2233 46.2326 10.2233L46.2673 10.4918C46.299 11.1586 45.765 11.0922 45.765 11.0922C44.6275 11.5281 45.2973 12.1286 45.2973 12.1286H44.3273V11.0749C44.1945 11.3636 43.6258 11.5743 43.6258 11.5743C43.9145 11.8774 43.7586 12.1113 43.7586 12.1113H41.6858V10.8382C41.3972 11.2394 41.1518 11.2077 41.1518 11.2077C41.4174 11.3405 41.2528 11.4762 41.2528 11.4762C40.2164 10.9739 40.2164 12.143 40.2164 12.143H39.6391C39.5749 12.2665 39.4854 12.375 39.3765 12.4616C39.2675 12.5481 39.1416 12.6107 39.0068 12.6453H47.7944L46.9688 12.0622ZM40.9064 12.195L40.6177 11.863L40.9555 11.6523L41.325 11.9409L40.9064 12.195Z" fill="white"/>
<path d="M60.3731 11.6522C60.7744 11.5858 60.5088 12.0881 60.5088 12.0881H59.1693V11.2509L58.5659 11.6522C58.8546 11.6176 58.7016 12.0188 58.7016 12.0188L57.1629 12.0535C57.2611 11.6522 57.8298 11.6176 57.8298 11.6176C57.6623 11.3289 57.2293 11.4848 57.2293 11.4848C56.6952 10.483 56.0572 11.5194 56.0572 11.5194C55.9655 11.4577 55.8548 11.4305 55.7448 11.4426C55.6349 11.4548 55.5328 11.5055 55.4568 11.5858C55.4568 11.5858 54.9227 11.5512 55.5578 11.6176C56.1929 11.684 56.1352 12.0535 56.1352 12.0535H54.7986C54.7986 11.2856 53.6929 11.2163 53.6929 11.2163L51.6548 11.1845C51.6201 11.0517 51.9897 10.9507 51.9897 10.9507C52.1985 10.8915 52.3944 10.7936 52.567 10.662C52.8557 9.92587 52.2985 9.79596 52.2985 9.79596C51.8655 9.42644 50.9619 9.62563 50.9619 9.62563L51.395 10.1279C51.5601 10.0885 51.7322 10.0885 51.8973 10.1279C52.186 10.2954 51.9637 10.4311 51.9637 10.4311C51.7779 10.5935 51.5622 10.7181 51.3286 10.7977C51.1485 10.858 50.9927 10.9749 50.8844 11.131C50.7762 11.2871 50.7214 11.4739 50.7281 11.6638L53.768 11.6984C54.3049 12.0304 53.768 12.065 53.768 12.065H49.7783V12.6424H61.0371V11.3058L60.3731 11.6522ZM56.6981 11.9409C56.6141 11.8095 56.5174 11.6867 56.4094 11.5743C56.6779 11.1066 57.0128 11.6407 57.0128 11.6407C56.8627 11.6522 56.6981 11.9611 56.6981 11.9611V11.9409Z" fill="white"/>
<path d="M5.51953 7.8387H7.56631L9.80074 3.99341H12.2459L10.0375 7.882L11.1604 9.94899H6.6685L5.51953 7.8387Z" fill="#F37021"/>
<path d="M7.02344 10.5755H11.4923L12.6903 8.56909L14.9623 12.6453L13.7787 14.6921L12.6008 12.6453H8.1522L7.02344 10.5755Z" fill="#F37021"/>
<path d="M12.9766 3.99341H15.3179L14.2988 5.76882L16.5563 9.84506L15.3438 11.9554L13.0603 7.8387H10.7422L12.9766 3.99341Z" fill="#F37021"/>
</g>
<defs>
<clipPath id="clip0_7161_268508">
<rect width="69.299" height="17.35" fill="white" transform="translate(0 0.396362)"/>
</clipPath>
</defs>
</svg>
