<svg width="64" height="18" viewBox="0 0 64 18" fill="none" xmlns="http://www.w3.org/2000/svg">
<g clip-path="url(#clip0_7161_268520)">
<path fill-rule="evenodd" clip-rule="evenodd" d="M48.1945 0H61.9758C62.9636 0 63.7602 0.796602 63.7602 1.78439V15.5656C63.7602 16.5454 62.9636 17.35 61.9758 17.35H48.1945C47.2068 17.35 46.4102 16.5534 46.4102 15.5656V1.78439C46.4102 0.804568 47.2068 0 48.1945 0Z" fill="#008752"/>
<path fill-rule="evenodd" clip-rule="evenodd" d="M57.746 6.45251C57.746 6.45251 57.6106 6.46844 57.6106 6.58793C57.6106 6.69946 57.738 6.73929 57.738 6.73929C57.738 6.73929 57.6663 6.67556 57.6743 6.58793C57.6902 6.48437 57.746 6.45251 57.746 6.45251ZM57.5309 7.3447V7.04199C57.5309 7.04199 57.5468 6.87471 57.7141 6.87471C57.8814 6.87471 57.8655 7.02606 57.8655 7.02606V7.3447H57.5309ZM57.3796 8.85825H57.977V9.20079H57.3796V8.85825ZM57.3796 7.43233H57.977V7.77487H57.3796V7.43233ZM57.499 7.91029H57.8575V8.77062H57.499V7.91029ZM57.499 9.33621H57.8575V11.3038H57.499V9.33621ZM53.2213 11.1286H53.8825V10.7621H54.5516V10.8896H54.0896V11.1365H54.5277V11.2879H53.2213V11.1286ZM56.798 10.563C56.798 10.563 56.6626 10.5869 56.6626 10.6984C56.6626 10.8099 56.7901 10.8498 56.7901 10.8498C56.7901 10.8498 56.7184 10.786 56.7263 10.6984C56.7502 10.5948 56.798 10.563 56.798 10.563ZM56.0253 11.3038C56.0253 11.3038 56.2882 10.9613 56.6785 10.9613C57.0689 10.9613 57.3716 11.2879 57.3716 11.2879L56.0253 11.3038ZM56.1608 7.83063C56.3121 7.83063 56.4953 7.71114 56.5033 7.4403C56.5113 7.22521 56.2324 6.98623 56.1847 6.85878C56.1448 6.73132 56.1369 6.66759 56.1369 6.66759C56.1369 6.66759 56.0572 6.78708 56.0174 6.90657C55.9855 7.02606 55.7147 7.24115 55.7625 7.49606C55.8023 7.67928 55.9297 7.83063 56.1608 7.83063ZM55.9616 7.91826H56.3599L56.5352 9.81417H55.7784L55.9616 7.91826ZM53.986 9.25655H54.464V9.71061H53.986V9.25655ZM53.2372 9.25655H53.7072V9.71061H53.2372V9.25655ZM53.2372 7.75097H53.7072V8.213H53.2372V7.75097ZM54.4242 8.22893C54.4242 8.22893 54.456 8.14927 54.5596 8.14927C54.6711 8.14927 54.6791 8.19707 54.7508 8.1891C54.8145 8.18113 54.8782 8.14927 54.8782 8.14927C54.8782 8.14927 54.8145 8.24486 54.7348 8.25283C54.6472 8.2608 54.5914 8.19707 54.5277 8.20503C54.464 8.22097 54.4242 8.22893 54.4242 8.22893ZM54.3445 8.13334C54.3445 8.13334 54.3764 8.00588 54.5038 8.00588C54.6313 8.00588 54.6552 8.05368 54.7667 8.03775C54.8782 8.01385 54.9499 7.98199 54.9499 7.98199C54.9499 7.98199 54.8703 8.09351 54.7508 8.10944C54.6233 8.12537 54.5835 8.04571 54.4799 8.06961C54.3764 8.09351 54.3445 8.13334 54.3445 8.13334ZM54.3445 7.54385C54.3445 7.54385 54.3445 7.4164 54.3923 7.24911C54.4401 7.08182 54.5596 6.97827 54.5596 6.97827C54.5596 6.97827 54.5516 7.07386 54.5675 7.13759C54.5835 7.20132 54.6552 7.28894 54.6552 7.28894C54.6552 7.28894 54.687 7.16148 54.7428 7.08979C54.7986 7.0181 54.8543 6.96233 54.8543 6.96233C54.8543 6.96233 54.8065 7.20928 54.8304 7.31284C54.8543 7.4164 54.8942 7.55182 54.8942 7.55182L54.3445 7.54385ZM54.0259 7.8147H54.926C54.926 7.8147 54.9021 7.92622 54.7986 7.93419C54.695 7.94216 54.5994 7.8386 54.4401 7.90233C54.2808 7.96605 54.2409 8.07758 54.2409 8.07758C54.2409 8.07758 54.1374 7.98995 54.0976 7.93419C54.0577 7.87843 54.0259 7.8147 54.0259 7.8147ZM52.7433 6.41268H52.8628V6.64369H53.4045V6.41268H53.532V6.89861H53.4045V6.76318H52.8628V6.89861H52.7433V6.41268ZM52.4964 6.89064V6.02234C52.4964 6.02234 52.5282 5.93472 52.6079 5.93472H53.532V6.0781H52.6318V6.24539H53.532V6.38082H52.6318V6.89861H52.4964V6.89064ZM52.1459 5.71963H52.3052L52.2972 5.85506C52.2972 5.85506 52.3689 5.71167 52.4247 5.71167H53.532V5.83116H52.4645C52.4645 5.83116 52.3371 6.09404 52.3291 6.39675C52.3132 6.82691 52.4406 6.9703 52.4406 6.9703H53.5399L53.532 7.11369H52.4167C52.4167 7.11369 52.361 7.09776 52.3211 6.98623V7.08979H52.1459V5.71963ZM55.173 5.76743V8.46791H52.1459V7.44826H54.0976V5.76743H55.173ZM56.7343 5.76743V10.0293H52.1379V8.94587H55.6191V5.76743H56.7343ZM57.1246 5.76743H58.2638V11.5269H52.1379V10.5072H57.1246V5.76743ZM54.5038 14.299L53.5957 13.4068H59.3073C59.3073 13.4068 59.7853 13.3591 59.865 13.0006C59.9446 12.6421 59.865 12.4987 59.865 12.4987L60.7731 11.6623V13.3591C60.7731 13.3591 60.5022 14.299 59.5304 14.299H54.5038ZM58.7258 12.9608L57.4512 12.9767L61.49 8.93791C61.49 8.93791 61.7927 8.56351 61.5936 8.2608C61.3944 7.95809 61.2351 7.90233 61.2351 7.90233L61.2909 6.66759L62.4937 7.87046C62.4937 7.87046 62.9637 8.73079 62.2787 9.41587L58.7258 12.9608ZM59.3711 5.03456L59.387 6.30912L55.3482 2.27035C55.3482 2.27035 54.9738 1.96764 54.6711 2.16679C54.3684 2.36594 54.3126 2.52526 54.3126 2.52526L53.0779 2.4695L54.2808 1.26663C54.2808 1.26663 55.1411 0.796632 55.8262 1.48171L59.3711 5.03456ZM60.789 9.20079L59.9048 10.1169V4.40524C59.9048 4.40524 59.857 3.92728 59.4985 3.84762C59.14 3.77592 58.9887 3.84762 58.9887 3.84762L58.1523 2.93153H59.849C59.849 2.93153 60.789 3.21034 60.789 4.17423V9.20079ZM50.7439 12.3155L50.7279 11.0409L54.7667 15.0797C54.7667 15.0797 55.1411 15.3824 55.4438 15.1833C55.7465 14.9841 55.8023 14.8248 55.8023 14.8248L57.037 14.8806L55.8341 16.0834C55.8341 16.0834 54.9738 16.5534 54.2967 15.8683L50.7439 12.3155ZM49.3179 8.02182L50.2101 7.11369V12.8253C50.2101 12.8253 50.2579 13.3033 50.6164 13.375C50.9749 13.4467 51.1183 13.375 51.1183 13.375L51.9547 14.2831H50.2579C50.2579 14.2831 49.3179 14.0123 49.3179 13.0404V8.02182ZM51.4369 4.16626L52.7115 4.15033L48.6727 8.1891C48.6727 8.1891 48.37 8.5635 48.5691 8.86621C48.7683 9.16892 48.9276 9.22468 48.9276 9.22468L48.8718 10.4594L47.669 9.25655C47.669 9.25655 47.199 8.39622 47.8841 7.71114L51.4369 4.16626ZM55.6031 2.92356L56.5113 3.81575H50.7996C50.7996 3.81575 50.3217 3.86355 50.242 4.22202C50.1703 4.58049 50.242 4.72388 50.242 4.72388L49.3339 5.56031V3.86355C49.3339 3.86355 49.6047 2.92356 50.5766 2.92356H55.6031Z" fill="white"/>
<path fill-rule="evenodd" clip-rule="evenodd" d="M36.803 13.0085C36.7791 13.1758 36.7313 13.3192 36.6517 13.4467C36.572 13.5741 36.4605 13.6697 36.3171 13.7494C36.1737 13.8211 35.9825 13.8609 35.7356 13.8609C35.4807 13.8609 35.2815 13.829 35.1381 13.7573C34.9947 13.6856 34.8832 13.59 34.8115 13.4706C34.7398 13.3511 34.692 13.2077 34.6681 13.0404C34.6442 12.8731 34.6363 12.6979 34.6363 12.5146C34.6363 12.3473 34.6442 12.1801 34.6681 12.0128C34.692 11.8535 34.7398 11.7021 34.8195 11.5746C34.8991 11.4472 35.0107 11.3436 35.1541 11.264C35.2974 11.1843 35.4886 11.1445 35.7356 11.1445C35.9905 11.1445 36.1817 11.1763 36.333 11.256C36.4764 11.3277 36.5879 11.4233 36.6596 11.5507C36.7313 11.6782 36.7791 11.8216 36.803 11.9809C36.8269 12.1482 36.8349 12.3235 36.8349 12.5067C36.8429 12.6819 36.8269 12.8492 36.803 13.0085ZM35.5125 12.9129C35.5205 13.0165 35.5285 13.0962 35.5524 13.1599C35.5683 13.2156 35.5922 13.2634 35.6241 13.2794C35.6559 13.3033 35.6957 13.3112 35.7435 13.3112C35.7913 13.3112 35.8312 13.3033 35.863 13.2794C35.8949 13.2555 35.9188 13.2156 35.9347 13.1599C35.9507 13.0962 35.9666 13.0165 35.9666 12.9129C35.9746 12.8094 35.9746 12.674 35.9746 12.5146C35.9746 12.3553 35.9746 12.2199 35.9666 12.1163C35.9586 12.0128 35.9507 11.9252 35.9347 11.8694C35.9188 11.8057 35.8949 11.7658 35.863 11.7419C35.8312 11.718 35.7913 11.7101 35.7435 11.7101C35.6957 11.7101 35.6559 11.718 35.6241 11.7419C35.5922 11.7658 35.5683 11.8057 35.5524 11.8694C35.5364 11.9331 35.5205 12.0128 35.5125 12.1163C35.5046 12.2199 35.5046 12.3553 35.5046 12.5146C35.5046 12.674 35.5046 12.8094 35.5125 12.9129ZM29.2194 13.0006C29.2194 13.144 29.2433 13.2316 29.2911 13.2794C29.3389 13.3272 29.3946 13.3511 29.4504 13.3511C29.5221 13.3511 29.5858 13.3192 29.6256 13.2555C29.6655 13.1918 29.6894 13.0723 29.6894 12.897H30.47C30.4621 13.2156 30.3824 13.4546 30.2231 13.6219C30.0638 13.7812 29.8089 13.8609 29.4504 13.8609C29.2433 13.8609 29.068 13.837 28.9326 13.7892C28.7892 13.7414 28.6777 13.6697 28.5901 13.5582C28.5024 13.4546 28.4387 13.3112 28.4068 13.136C28.367 12.9607 28.3511 12.7536 28.3511 12.5067C28.3511 12.2597 28.375 12.0446 28.4148 11.8774C28.4546 11.7021 28.5184 11.5667 28.614 11.4552C28.7016 11.3516 28.8131 11.264 28.9565 11.2162C29.0919 11.1684 29.2592 11.1445 29.4584 11.1445C29.6336 11.1445 29.785 11.1684 29.9124 11.2082C30.0399 11.248 30.1514 11.3197 30.239 11.4153C30.3267 11.5109 30.3904 11.6384 30.4382 11.7977C30.478 11.957 30.5019 12.1482 30.5019 12.3872V12.6501H29.2273V13.0006H29.2194ZM29.6336 11.7738C29.6017 11.7101 29.538 11.6782 29.4424 11.6782C29.3548 11.6782 29.2911 11.7101 29.2592 11.7738C29.2273 11.8375 29.2114 11.9411 29.2114 12.0765V12.196H29.6814V12.0765C29.6814 11.9411 29.6655 11.8375 29.6336 11.7738ZM22.4722 13.6697L22.4562 13.5184C22.4005 13.6378 22.3208 13.7175 22.2252 13.7812C22.1216 13.837 22.0022 13.8689 21.8667 13.8689C21.7393 13.8689 21.6278 13.8529 21.5322 13.8211C21.4445 13.7892 21.3649 13.7414 21.3091 13.6697C21.2533 13.606 21.2135 13.5263 21.1817 13.4307C21.1578 13.3351 21.1418 13.2395 21.1418 13.128C21.1418 13.0085 21.1578 12.905 21.1737 12.8094C21.1976 12.7218 21.2374 12.6421 21.2932 12.5784C21.3489 12.5146 21.4206 12.4589 21.5162 12.4111C21.6118 12.3633 21.7233 12.3235 21.8588 12.2916L22.1933 12.2119C22.2889 12.188 22.3527 12.1562 22.3925 12.1163C22.4323 12.0765 22.4483 12.0128 22.4483 11.9331C22.4483 11.7738 22.3766 11.6941 22.2332 11.6941C22.1535 11.6941 22.0898 11.718 22.0579 11.7658C22.0181 11.8136 22.0022 11.9013 21.9942 12.0367H21.2454C21.2454 11.8535 21.2772 11.7021 21.3489 11.5906C21.4127 11.4791 21.5003 11.3914 21.5959 11.3277C21.6915 11.264 21.803 11.2241 21.9145 11.2002C22.0261 11.1763 22.1376 11.1684 22.2332 11.1684C22.3845 11.1684 22.5199 11.1763 22.6474 11.2002C22.7749 11.2241 22.8784 11.264 22.974 11.3277C23.0616 11.3914 23.1333 11.4711 23.1811 11.5826C23.2289 11.6862 23.2528 11.8296 23.2528 11.9968V13.2634C23.2528 13.3829 23.2608 13.4945 23.2688 13.5821C23.2767 13.6697 23.3006 13.7573 23.3325 13.8211H22.496C22.496 13.7653 22.4801 13.7175 22.4722 13.6697ZM22.3925 13.1838C22.4323 13.1121 22.4562 13.0085 22.4562 12.8651V12.5545C22.4244 12.5863 22.3845 12.6102 22.3288 12.6182C22.273 12.6262 22.2172 12.6421 22.1535 12.674C22.0898 12.7058 22.042 12.7457 22.0181 12.8014C21.9942 12.8572 21.9783 12.9289 21.9783 13.0085C21.9783 13.0962 21.9942 13.1599 22.034 13.2156C22.0739 13.2634 22.1216 13.2953 22.1854 13.2953C22.281 13.2953 22.3527 13.2555 22.3925 13.1838ZM18.4095 13.8051H17.5492V11.2162H18.4095V13.8051ZM18.4095 11.033H17.5492V10.3957H18.4095V11.033ZM12.1323 13.8051H11.2719V11.2162H12.1323V13.8051ZM12.1323 11.033H11.2719V10.3957H12.1323V11.033ZM29.8965 3.52896C29.8965 3.28201 30.0877 3.08287 30.3187 3.08287C30.5577 3.08287 30.7409 3.28201 30.7409 3.52896C30.7409 3.77591 30.5497 3.97506 30.3187 3.97506C30.0877 3.97506 29.8965 3.77591 29.8965 3.52896ZM30.8763 3.52896C30.8763 3.28201 31.0675 3.08287 31.2985 3.08287C31.5295 3.08287 31.7207 3.28201 31.7207 3.52896C31.7207 3.77591 31.5295 3.97506 31.2985 3.97506C31.0675 3.97506 30.8763 3.77591 30.8763 3.52896ZM37.2969 3.52896C37.2969 3.28201 37.4881 3.08287 37.7191 3.08287C37.9501 3.08287 38.1413 3.28201 38.1413 3.52896C38.1413 3.77591 37.9501 3.97506 37.7191 3.97506C37.4881 3.97506 37.2969 3.77591 37.2969 3.52896ZM38.2767 3.52896C38.2767 3.28201 38.4679 3.08287 38.6989 3.08287C38.93 3.08287 39.1211 3.28201 39.1211 3.52896C39.1211 3.77591 38.93 3.97506 38.6989 3.97506C38.4679 3.97506 38.2767 3.77591 38.2767 3.52896ZM42.8572 8.0457C42.8572 7.79875 43.0484 7.5996 43.2794 7.5996C43.5104 7.5996 43.7016 7.79875 43.7016 8.0457C43.7016 8.29264 43.5104 8.4918 43.2794 8.4918C43.0484 8.4918 42.8572 8.29264 42.8572 8.0457ZM40.093 8.0457C40.093 7.79875 40.2842 7.5996 40.5152 7.5996C40.7462 7.5996 40.9374 7.79875 40.9374 8.0457C40.9374 8.29264 40.7462 8.4918 40.5152 8.4918C40.2842 8.4918 40.093 8.29264 40.093 8.0457ZM41.1286 8.0457C41.1286 7.79875 41.3198 7.5996 41.5508 7.5996C41.7818 7.5996 41.973 7.79875 41.973 8.0457C41.973 8.29264 41.7818 8.4918 41.5508 8.4918C41.3118 8.4918 41.1286 8.29264 41.1286 8.0457ZM21.6755 8.0457C21.6755 7.79875 21.8667 7.5996 22.0977 7.5996C22.3288 7.5996 22.5199 7.79875 22.5199 8.0457C22.5199 8.29264 22.3288 8.4918 22.0977 8.4918C21.8667 8.4918 21.6755 8.29264 21.6755 8.0457ZM22.6633 8.0457C22.6633 7.79875 22.8545 7.5996 23.0855 7.5996C23.3245 7.5996 23.5077 7.79875 23.5077 8.0457C23.5077 8.29264 23.3166 8.4918 23.0855 8.4918C22.8545 8.4918 22.6633 8.29264 22.6633 8.0457ZM4.43708 8.0457C4.43708 7.79875 4.62826 7.5996 4.85927 7.5996C5.09029 7.5996 5.28147 7.79875 5.28147 8.0457C5.28147 8.29264 5.09029 8.4918 4.85927 8.4918C4.62826 8.4918 4.43708 8.29264 4.43708 8.0457ZM5.41689 8.0457C5.41689 7.79875 5.60808 7.5996 5.83909 7.5996C6.07011 7.5996 6.26129 7.79875 6.26129 8.0457C6.26129 8.29264 6.07011 8.4918 5.83909 8.4918C5.60808 8.4918 5.41689 8.29264 5.41689 8.0457ZM2.111 3.51303C2.111 3.26608 2.30218 3.06693 2.5332 3.06693C2.76421 3.06693 2.95539 3.26608 2.95539 3.51303C2.95539 3.75998 2.76421 3.95913 2.5332 3.95913C2.30218 3.95913 2.111 3.75998 2.111 3.51303ZM3.09878 3.51303C3.09878 3.26608 3.28997 3.06693 3.52098 3.06693C3.752 3.06693 3.94318 3.26608 3.94318 3.51303C3.94318 3.75998 3.752 3.95913 3.52098 3.95913C3.282 3.95913 3.09878 3.75998 3.09878 3.51303ZM0.294743 8.0457C0.294743 7.79875 0.485927 7.5996 0.716942 7.5996C0.947957 7.5996 1.13914 7.79875 1.13914 8.0457C1.13914 8.29264 0.947957 8.4918 0.716942 8.4918C0.485927 8.4918 0.294743 8.29264 0.294743 8.0457ZM1.27456 8.0457C1.27456 7.79875 1.46575 7.5996 1.69676 7.5996C1.93574 7.5996 2.11896 7.79875 2.11896 8.0457C2.11896 8.29264 1.92778 8.4918 1.69676 8.4918C1.46575 8.4918 1.27456 8.29264 1.27456 8.0457ZM6.26129 4.70793V7.18537H3.14658V5.55233H2.33404V7.18537H0V4.67607H0.955923V6.24538H1.57727L1.58524 4.65217H3.98301V6.34097H5.44079V4.70793H6.26129ZM7.79874 5.49657H8.45195V6.34097H7.79874V5.49657ZM15.9878 3.53693V7.18537H9.28042C9.28042 7.18537 9.15296 7.9979 8.69093 8.27671C8.2767 8.52366 7.39247 8.444 7.39247 8.444C7.39247 8.444 8.03772 8.10146 8.24483 7.83061C8.45195 7.5518 8.41212 7.18537 8.41212 7.18537H6.97824V4.73183H9.25652V6.333H13.6299V5.48064H10.6984C10.6984 5.48064 10.1487 5.44877 10.1487 4.86725C10.1487 4.28574 10.5948 4.04675 10.5948 4.04675L11.8933 2.99524H13.3909L11.3436 4.62827H13.7255C13.7255 4.62827 14.4105 4.692 14.4424 5.20979C14.4743 5.71962 14.4424 6.34097 14.4424 6.34097H15.2231V3.54489H15.9878V3.53693ZM16.7366 3.53693H17.5253V7.18537H16.7366V3.53693ZM23.5555 4.73183V7.18537H21.4764C21.4764 7.18537 21.1339 8.3962 20.0744 8.41214C18.0271 8.444 18.8795 5.71962 18.8795 5.71962C18.8795 5.71962 18.752 7.28893 19.7637 7.28893C20.855 7.28893 20.6798 6.333 20.6798 6.333V3.56879H21.5003V6.333H22.6952V4.73183H23.5555ZM28.1201 5.55233H28.9087V6.34097H28.1201V5.55233ZM25.0213 5.55233H25.7701V6.34097H25.0213V5.55233ZM32.4536 3.52896H33.2024V7.18537H26.5189C26.5189 7.18537 26.4552 8.03773 25.7701 8.30858C25.085 8.57942 24.5752 8.30858 24.5752 8.30858C24.5752 8.30858 25.0213 8.27671 25.4275 7.86248C25.8338 7.45621 25.6665 7.1774 25.6665 7.1774H24.2645V4.69997H26.5189V6.34097H27.2996V4.7398H29.7212V6.34097H30.7807V4.7398H31.6331V6.34097H32.4536V3.52896ZM33.8875 3.53693H34.6761V7.18537H33.8875V3.53693ZM43.7414 4.69997V7.18537H36.0303V4.73183H37.5996V5.37708H36.9544V6.333H39.5115V4.69997H40.2603V6.34097H41.2162V4.69997H42.0048V6.34097H42.9289V4.69997H43.7414ZM43.0165 11.7738C42.9847 11.7101 42.9209 11.6782 42.8253 11.6782C42.7377 11.6782 42.674 11.7101 42.6421 11.7738C42.6103 11.8375 42.5943 11.9411 42.5943 12.0765V12.196H43.0643V12.0765C43.0643 11.9411 43.0484 11.8375 43.0165 11.7738ZM42.5943 13.0006C42.5943 13.144 42.6182 13.2316 42.666 13.2794C42.7138 13.3272 42.7696 13.3511 42.8253 13.3511C42.905 13.3511 42.9608 13.3192 43.0006 13.2555C43.0404 13.1918 43.0643 13.0723 43.0643 12.897H43.837C43.8291 13.2156 43.7494 13.4546 43.598 13.6219C43.4387 13.7812 43.1838 13.8609 42.8253 13.8609C42.6182 13.8609 42.443 13.837 42.3075 13.7892C42.1642 13.7414 42.0526 13.6697 41.965 13.5582C41.8774 13.4546 41.8137 13.3112 41.7818 13.136C41.742 12.9607 41.726 12.7536 41.726 12.5067C41.726 12.2597 41.7499 12.0446 41.7898 11.8774C41.8296 11.7021 41.8933 11.5667 41.9889 11.4552C42.0765 11.3516 42.196 11.264 42.3314 11.2162C42.4669 11.1684 42.6342 11.1445 42.8333 11.1445C43.0086 11.1445 43.1519 11.1684 43.2874 11.2082C43.4148 11.248 43.5263 11.3197 43.614 11.4153C43.7016 11.5109 43.7653 11.6384 43.8131 11.7977C43.853 11.957 43.8769 12.1482 43.8769 12.3872V12.6501H42.6023V13.0006H42.5943ZM40.2762 13.1519C40.2842 13.1917 40.3001 13.2316 40.324 13.2634C40.3638 13.3272 40.4276 13.3511 40.5072 13.3511C40.571 13.3511 40.6267 13.3351 40.6825 13.2953C40.7303 13.2555 40.7542 13.1997 40.7542 13.136C40.7542 13.0563 40.7223 13.0006 40.6586 12.9607C40.5949 12.9209 40.5232 12.8811 40.4276 12.8492L40.1328 12.7457C40.0293 12.7138 39.9257 12.658 39.8381 12.6023C39.7425 12.5385 39.6708 12.4589 39.6071 12.3633C39.5433 12.2597 39.5115 12.1323 39.5115 11.965C39.5115 11.8455 39.5354 11.7419 39.5752 11.6463C39.615 11.5507 39.6788 11.4631 39.7664 11.3914C39.854 11.3197 39.9576 11.256 40.085 11.2162C40.2125 11.1763 40.3638 11.1524 40.5391 11.1524C41.1843 11.1524 41.5109 11.4233 41.5109 11.965H40.7621C40.7621 11.8535 40.7462 11.7818 40.7064 11.734C40.6665 11.6941 40.6108 11.6782 40.5391 11.6782C40.4754 11.6782 40.4276 11.6941 40.3798 11.734C40.3399 11.7658 40.316 11.8136 40.316 11.8853C40.316 11.957 40.3479 12.0128 40.4116 12.0526C40.4754 12.0924 40.5471 12.1243 40.6426 12.1482L40.9374 12.2438C41.0409 12.2757 41.1445 12.3235 41.2321 12.3792C41.3277 12.435 41.3994 12.5146 41.4632 12.6182C41.5269 12.7218 41.5587 12.8492 41.5587 13.0165C41.5587 13.144 41.5348 13.2634 41.487 13.367C41.4393 13.4706 41.3755 13.5662 41.2799 13.6378C41.1923 13.7175 41.0808 13.7733 40.9533 13.8131C40.8259 13.8529 40.6745 13.8689 40.5152 13.8689C40.1567 13.8689 39.8938 13.7972 39.7345 13.6538C39.5752 13.5104 39.4955 13.3033 39.4955 13.0165H40.2523C40.2603 13.0563 40.2682 13.1041 40.2762 13.1519ZM37.974 11.2162V12.9289C37.974 13.0404 37.99 13.1121 38.0218 13.1599C38.0537 13.2077 38.1095 13.2316 38.1811 13.2316C38.2608 13.2316 38.3086 13.2077 38.3484 13.1599C38.3803 13.1121 38.3962 13.0324 38.3962 12.9289V11.2162H39.2566V13.8051H38.4281V13.4865C38.3166 13.7334 38.1015 13.8529 37.7908 13.8529C37.6952 13.8529 37.6076 13.845 37.5279 13.829C37.4483 13.8131 37.3766 13.7733 37.3129 13.7255C37.2491 13.6697 37.2013 13.598 37.1695 13.5104C37.1376 13.4228 37.1137 13.3033 37.1137 13.1679V11.2162H37.974ZM32.9076 10.3877V11.6463H33.4493V10.3877H34.3415V13.8051H33.4493V12.4031H32.9076V13.8051H32.0154V10.3877H32.9076ZM27.4031 11.9809C27.3952 11.9172 27.3792 11.8614 27.3553 11.8216C27.3235 11.7499 27.2597 11.7101 27.1641 11.7101C27.1163 11.7101 27.0765 11.718 27.0446 11.7499C27.0128 11.7738 26.9889 11.8136 26.965 11.8774C26.9491 11.9411 26.9331 12.0207 26.9252 12.1243C26.9172 12.2279 26.9092 12.3553 26.9092 12.5146C26.9092 12.674 26.9172 12.8014 26.9252 12.905C26.9331 13.0085 26.9491 13.0882 26.965 13.1519C26.9889 13.2156 27.0128 13.2555 27.0446 13.2794C27.0765 13.3033 27.1163 13.3112 27.1641 13.3112C27.2438 13.3112 27.3075 13.2794 27.3474 13.2236C27.3872 13.1599 27.4111 13.0484 27.4111 12.889V12.7218H28.1918C28.1918 12.9289 28.1758 13.1041 28.136 13.2475C28.1041 13.3909 28.0404 13.5104 27.9607 13.598C27.8014 13.7733 27.5306 13.8609 27.1721 13.8609C27.0048 13.8609 26.8535 13.845 26.718 13.8211C26.5826 13.7892 26.4631 13.7334 26.3675 13.6378C26.2719 13.5423 26.1923 13.4148 26.1445 13.2395C26.0887 13.0643 26.0648 12.8412 26.0648 12.5624C26.0648 12.2597 26.0967 12.0128 26.1525 11.8216C26.2082 11.6384 26.2958 11.495 26.3994 11.3994C26.503 11.2958 26.6224 11.2321 26.7658 11.2002C26.9092 11.1684 27.0526 11.1524 27.2199 11.1524C27.4111 11.1524 27.5704 11.1763 27.6979 11.2321C27.8253 11.2879 27.9289 11.3596 28.0006 11.4552C28.0723 11.5507 28.128 11.6623 28.1599 11.7977C28.1918 11.9331 28.2077 12.0765 28.2077 12.2438H27.427C27.4191 12.1323 27.4111 12.0446 27.4031 11.9809ZM24.4796 11.2162V11.5348C24.5991 11.2799 24.8062 11.1524 25.1169 11.1524C25.2125 11.1524 25.3001 11.1604 25.3877 11.1843C25.4674 11.2002 25.5391 11.2401 25.6028 11.2958C25.6665 11.3516 25.7143 11.4233 25.7462 11.5109C25.786 11.5985 25.8019 11.718 25.8019 11.8535V13.8051H24.9416V12.1004C24.9416 11.9889 24.9257 11.9172 24.8938 11.8694C24.862 11.8216 24.8062 11.7977 24.7265 11.7977C24.6548 11.7977 24.5991 11.8216 24.5672 11.8694C24.5354 11.9172 24.5194 11.9968 24.5194 12.1004V13.8051H23.6591V11.2162H24.4796ZM19.6044 11.2162V11.5348C19.7239 11.2799 19.931 11.1524 20.2417 11.1524C20.3373 11.1524 20.4249 11.1604 20.5125 11.1843C20.5922 11.2002 20.6639 11.2401 20.7276 11.2958C20.7913 11.3516 20.8391 11.4233 20.871 11.5109C20.9028 11.5985 20.9267 11.718 20.9267 11.8535V13.8051H20.0664V12.1004C20.0664 11.9889 20.0505 11.9172 20.0186 11.8694C19.9868 11.8216 19.931 11.7977 19.8513 11.7977C19.7796 11.7977 19.7239 11.8216 19.692 11.8694C19.6601 11.9172 19.6442 11.9968 19.6442 12.1004V13.8051H18.7839V11.2162H19.6044ZM17.2942 10.3877V11.1126H16.1631V11.7021H17.2225V12.4031H16.1631V13.8051H15.2709V10.3877H17.2942ZM12.6102 11.2162V10.4594H13.4705V11.2162H13.8131V11.7977H13.4705V13.0324C13.4705 13.1041 13.4865 13.1599 13.5183 13.1838C13.5502 13.2156 13.606 13.2316 13.6697 13.2316H13.8051V13.8051C13.7255 13.8051 13.6458 13.8051 13.5661 13.8131C13.4865 13.8211 13.4068 13.8211 13.3351 13.8211C13.2077 13.8211 13.0961 13.8131 13.0006 13.8051C12.905 13.7972 12.8333 13.7653 12.7775 13.7175C12.7217 13.6697 12.6739 13.606 12.65 13.5184C12.6261 13.4307 12.6102 13.3192 12.6102 13.1679V11.7897H12.3234V11.2082H12.6102V11.2162ZM5.98248 11.2162L6.19757 13.0802L6.46044 11.2162H7.37654L7.63145 13.0802L7.8545 11.2162H8.69093L8.16517 13.8051H7.18535L6.92247 11.9729L6.65163 13.8051H5.67977L5.15402 11.2162H5.98248ZM3.69623 11.2162V12.9289C3.69623 13.0404 3.71217 13.1121 3.74403 13.1599C3.77589 13.2077 3.83166 13.2316 3.91132 13.2316C3.98301 13.2316 4.03877 13.2077 4.07064 13.1599C4.1025 13.1121 4.11843 13.0324 4.11843 12.9289V11.2162H4.97876V13.8051H4.1503V13.4865C4.03877 13.7334 3.83166 13.8529 3.51302 13.8529C3.41742 13.8529 3.3298 13.845 3.25014 13.829C3.16251 13.8131 3.09878 13.7733 3.03505 13.7255C2.97133 13.6697 2.92353 13.598 2.89167 13.5104C2.8598 13.4228 2.8359 13.3033 2.8359 13.1679V11.2162H3.69623ZM1.06745 10.3877V11.7021L1.73659 10.3877H2.68455L1.82422 11.8774L2.78811 13.7972H1.77642L1.25067 12.6023L1.06745 12.889V13.7972H0.175252V10.3797H1.06745V10.3877ZM10.085 13.6697L10.0611 13.5184C10.0053 13.6378 9.92566 13.7175 9.83007 13.7812C9.72651 13.837 9.60702 13.8689 9.47957 13.8689C9.35211 13.8689 9.24059 13.8529 9.14499 13.8211C9.05737 13.7892 8.97771 13.7414 8.92194 13.6697C8.86618 13.606 8.82635 13.5263 8.80245 13.4307C8.77856 13.3351 8.76262 13.2395 8.76262 13.128C8.76262 13.0085 8.77856 12.905 8.80245 12.8094C8.82635 12.7218 8.86618 12.6421 8.92194 12.5784C8.97771 12.5146 9.0494 12.4589 9.13703 12.4111C9.22466 12.3633 9.34414 12.3235 9.47957 12.2916L9.81414 12.2119C9.90973 12.188 9.97346 12.1562 10.0053 12.1163C10.0452 12.0765 10.0611 12.0128 10.0611 11.9331C10.0611 11.7738 9.98939 11.6941 9.846 11.6941C9.76634 11.6941 9.70262 11.718 9.66279 11.7658C9.62296 11.8136 9.60702 11.9013 9.59906 12.0367H8.85025C8.85025 11.8535 8.88212 11.7021 8.95381 11.5906C9.01754 11.4791 9.10516 11.3914 9.20076 11.3277C9.30431 11.264 9.40787 11.2241 9.5194 11.2002C9.63092 11.1763 9.74244 11.1684 9.83804 11.1684C9.98939 11.1684 10.1248 11.1763 10.2523 11.2002C10.3797 11.2241 10.4913 11.264 10.5789 11.3277C10.6665 11.3914 10.7382 11.4711 10.786 11.5826C10.8338 11.6862 10.8577 11.8296 10.8577 11.9968V13.2634C10.8577 13.3829 10.8657 13.4945 10.8736 13.5821C10.8816 13.6697 10.9055 13.7573 10.9373 13.8211H10.1009C10.1009 13.7653 10.085 13.7175 10.085 13.6697ZM9.99736 13.1838C10.0372 13.1121 10.0611 13.0085 10.0611 12.8651V12.5545C10.0292 12.5863 9.98939 12.6102 9.93363 12.6182C9.88583 12.6262 9.82211 12.6421 9.75838 12.674C9.69465 12.7058 9.64685 12.7457 9.62296 12.8014C9.59906 12.8572 9.58313 12.9289 9.58313 13.0085C9.58313 13.0962 9.59906 13.1599 9.63889 13.2156C9.67872 13.2634 9.72651 13.2953 9.79024 13.2953C9.8938 13.2953 9.95753 13.2555 9.99736 13.1838Z" fill="#008752"/>
</g>
<defs>
<clipPath id="clip0_7161_268520">
<rect width="63.7601" height="17.35" fill="white"/>
</clipPath>
</defs>
</svg>
