<svg width="71" height="15" viewBox="0 0 71 15" fill="none" xmlns="http://www.w3.org/2000/svg">
<path fill-rule="evenodd" clip-rule="evenodd" d="M52.9822 8.92822C52.9822 8.17902 52.5168 7.4286 51.6236 7.25028V7.21437C52.3386 6.96423 52.8387 6.28604 52.8387 5.57194C52.8387 4.35796 51.9092 3.71527 50.2649 3.71527C49.2998 3.71527 48.2987 3.71527 47.6556 3.75078V11.2129C48.6207 11.2129 49.4428 11.2484 49.9074 11.2484C52.2312 11.2488 52.9822 9.99897 52.9822 8.92822ZM51.266 5.78617C51.266 6.46477 50.7651 6.85732 49.7281 6.85732H49.1568V4.89374C49.4069 4.89374 49.6925 4.85784 50.0145 4.85784C50.944 4.85824 51.266 5.25079 51.266 5.78617ZM51.409 8.96372C51.409 9.64232 50.9089 10.0708 49.943 10.0708C49.621 10.0708 49.3354 10.0353 49.1572 10.0353V7.92807H49.8004C50.7651 7.92807 51.409 8.21411 51.409 8.96372ZM58.4158 11.2133C58.3802 10.7849 58.3802 10.2487 58.3802 9.82104V7.50042C58.3802 6.32195 57.8446 5.60785 56.0565 5.60785C55.3063 5.60785 54.5904 5.75067 54.0184 5.92899L54.1618 7.14296C54.6264 6.85732 55.3059 6.7145 55.806 6.7145C56.6282 6.7145 56.9138 7.00014 56.9138 7.57142V7.85747C54.9839 7.85747 53.6605 8.57157 53.6605 9.89205C53.6605 10.7849 54.2325 11.3207 55.2691 11.3207C56.1276 11.3207 56.8063 10.8922 57.0927 10.2854C57.0572 10.5707 57.0208 10.8922 57.0208 11.2137L58.4158 11.2133ZM56.9142 8.92822C56.9142 9.57131 56.414 10.2487 55.699 10.2487C55.3059 10.2487 55.055 10.0353 55.055 9.67823C55.055 9.21346 55.377 8.7854 56.9142 8.7854V8.92822ZM64.6364 11.2133V7.35719C64.6364 6.39336 64.2433 5.60785 62.9566 5.60785C62.027 5.60785 61.3831 6.07181 61.026 6.7145C61.0979 6.39336 61.0979 5.9649 61.0979 5.71476H59.7393V11.2129H61.169V8.57076C61.169 7.60652 61.7766 6.78551 62.492 6.78551C63.0277 6.78551 63.2071 7.14256 63.2071 7.71424V11.2129L64.6364 11.2133ZM71 11.2133L68.8908 8.24962L70.857 5.71516H69.0693L67.4247 7.99988V3.1444H65.995V11.2133H67.4247V8.49935L69.1764 11.2133H71ZM24.632 7.35719C24.632 4.75092 23.0233 3.60836 20.9137 3.60836C18.6974 3.60836 16.9097 5.14348 16.9097 7.57102C16.9097 9.92796 18.1249 11.3558 20.6276 11.3558C22.8443 11.3562 24.632 9.82105 24.632 7.35719ZM22.6657 7.50042C22.6657 9.17795 21.6291 9.78474 20.7351 9.78474C19.448 9.78474 18.8759 8.89271 18.8759 7.4286C18.8759 5.89348 19.8055 5.17938 20.7706 5.17938C21.9862 5.17938 22.6657 5.9649 22.6657 7.50042ZM31.1741 11.0346L30.9596 9.4995C30.5661 9.64232 29.9585 9.74923 29.5295 9.74923C28.0638 9.74923 27.4203 8.92822 27.4203 7.46411C27.4203 6.10772 28.1353 5.25079 29.458 5.25079C29.9585 5.25079 30.4591 5.3222 30.9237 5.46502L31.1382 3.894C30.638 3.75118 30.03 3.71568 29.4939 3.71568C26.8127 3.71568 25.3826 5.3222 25.3826 7.75015C25.3826 9.464 26.2047 11.3207 29.172 11.3207C29.8515 11.3207 30.5665 11.2133 31.1741 11.0346ZM38.2887 8.89272C38.2887 8.14271 37.7878 7.4286 36.9657 7.25028V7.21437C37.6807 6.92873 38.1453 6.28604 38.1453 5.60785C38.1453 4.35837 37.1087 3.71568 35.357 3.71568C34.3559 3.71568 33.1407 3.71568 32.3897 3.75118V11.2133C33.5694 11.2133 34.4634 11.2488 34.9635 11.2488C37.3232 11.2488 38.2887 10.0708 38.2887 8.89272ZM36.1799 5.85798C36.1799 6.42926 35.7145 6.75041 34.8209 6.75041H34.2848V5.10797H35.0354C35.8216 5.10797 36.1799 5.39361 36.1799 5.85798ZM36.2862 8.92822C36.2862 9.4995 35.8216 9.85655 34.9995 9.85655C34.7135 9.85655 34.4274 9.82104 34.2844 9.82104V8.03539H34.892C35.7505 8.03539 36.2862 8.32143 36.2862 8.92822ZM44.8669 11.0346L44.6524 9.4995C44.2585 9.64232 43.6509 9.74923 43.2582 9.74923C41.7921 9.74923 41.1482 8.92822 41.1482 7.46411C41.1482 6.10772 41.8636 5.25079 43.1507 5.25079C43.6509 5.25079 44.1514 5.3222 44.616 5.46502L44.8305 3.894C44.3304 3.75118 43.7583 3.71568 43.1863 3.71568C40.505 3.71568 39.0753 5.3222 39.0753 7.75015C39.0753 9.464 39.8974 11.3207 42.8643 11.3207C43.5794 11.3207 44.2948 11.2133 44.8669 11.0346ZM4.57641 5.14388L1.46611 3.07339C1.96665 2.39479 2.57425 1.788 3.28931 1.32404L5.97057 4.07313C5.43408 4.32246 4.93354 4.67951 4.57641 5.14388ZM3.75349 7.10746L0.214157 5.75067C0.428674 4.89374 0.750652 4.10823 1.21524 3.39453L4.39704 5.35811C4.03992 5.85798 3.8254 6.46477 3.75349 7.10746ZM8.00828 8.71399L4.18293 7.25028C4.29356 6.66672 4.53833 6.11677 4.89798 5.64375L8.00828 7.60733V8.71399ZM8.00828 7.4286L5.041 5.46502C5.39853 5.03656 5.86351 4.71542 6.39961 4.50119L8.00828 6.10772V7.4286ZM0.429078 9.96346C0.142355 9.17398 -0.00287572 8.34022 4.31372e-05 7.50042C4.31372e-05 7.00014 0.0355941 6.53618 0.143055 6.07181L3.75389 7.35719V7.50001C3.75389 8.35653 4.03992 9.17755 4.57641 9.82064H4.61196C4.28438 9.24349 4.11194 8.5915 4.11142 7.92807C4.11142 7.78525 4.11142 7.64283 4.14697 7.50001L8.00828 8.856V9.96306L0.429078 9.96346ZM0.67955 10.6421C0.643595 10.4992 0.572089 10.356 0.500988 10.2136H2.75322L3.1467 10.6421H6.47152L5.75646 11.3913H1.64468C1.53721 10.9991 1.14414 10.6776 0.67955 10.6421ZM9.18793 10.82C9.44012 10.6742 9.67935 10.5071 9.90298 10.3205C10.046 10.2132 10.189 10.0708 10.2961 9.92796C10.8681 9.24936 11.2256 8.42835 11.2256 7.50001C11.2257 7.00769 11.1286 6.52019 10.94 6.06534C10.7514 5.61048 10.4749 5.19719 10.1263 4.84907C9.77769 4.50095 9.36385 4.22481 8.90839 4.03644C8.45292 3.84806 7.96477 3.75113 7.47179 3.75118C7.04275 3.75118 6.61372 3.82259 6.25619 3.96541L3.64643 1.0735C4.80838 0.398898 6.12776 0.0418412 7.47179 0.0382544C8.454 0.0347886 9.42719 0.225438 10.3353 0.599225C11.2434 0.973011 12.0685 1.52254 12.763 2.21617C13.4575 2.90979 14.0077 3.73379 14.382 4.64071C14.7562 5.54762 14.9471 6.51952 14.9435 7.50042C14.9435 11.6059 11.6187 14.9618 7.47179 14.9618C5.43408 14.9618 3.57493 14.1408 2.21632 12.784H11.3682L11.4398 12.713L1.78728 12.3196L1.71578 12.2486H11.9407L11.9762 12.1768L1.28715 11.6773L1.25119 11.641H5.39853C5.39853 11.641 7.50734 11.7128 9.18793 10.82Z" fill="#C82E37"/>
</svg>
