<svg width="45" height="18" viewBox="0 0 45 18" fill="none" xmlns="http://www.w3.org/2000/svg">
<g clip-path="url(#clip0_7161_268512)">
<path d="M8.56118 17.0162L1.24479 12.3057C1.24479 12.3057 0.327292 11.7839 0.117254 10.812C-0.177787 9.44737 0.794733 8.27734 0.794733 8.27734L10.2901 14.3932C11.0226 14.8653 11.2225 15.8312 10.7517 16.5598C10.268 17.3082 9.27406 17.4733 8.56086 17.0162H8.56118Z" fill="#38D200"/>
<path d="M1.63091 7.26792C1.63091 7.26792 0.510234 6.59869 0.510234 5.05075C0.510234 3.50818 1.63043 2.84714 1.63043 2.84714L5.63024 0.258209C5.98223 0.0376128 6.40796 -0.036841 6.81509 0.0509972C7.22222 0.138835 7.57792 0.381882 7.80504 0.727417C8.03215 1.07295 8.11236 1.49311 8.02826 1.89675C7.94417 2.3004 7.70256 2.65498 7.35583 2.88358L3.9847 5.05454L9.72844 8.75419C9.72844 8.75419 10.7624 9.33999 10.966 10.3289C11.2504 11.7086 10.2901 12.8453 10.2901 12.8453L1.63091 7.26792ZM1.6097 17.2659C1.98512 17.2659 2.25241 17.1481 2.51317 16.9809L4.4657 15.7231L2.51317 14.4655C2.25002 14.2978 1.9738 14.1805 1.6097 14.1805C1.40298 14.1776 1.19773 14.2153 1.00588 14.2915C0.814034 14.3677 0.63942 14.4809 0.492187 14.6244C0.344954 14.768 0.228039 14.9391 0.148239 15.1277C0.0684384 15.3163 0.0273438 15.5187 0.0273438 15.7232C0.0273438 15.9277 0.0684384 16.1301 0.148239 16.3187C0.228039 16.5074 0.344954 16.6784 0.492187 16.822C0.63942 16.9655 0.814034 17.0787 1.00588 17.1549C1.19773 17.2311 1.40298 17.2689 1.6097 17.2659Z" fill="#0473EA"/>
<path d="M9.15905 3.51196C8.78347 3.51196 8.51618 3.62979 8.25543 3.79682L6.30273 5.05454L8.25543 6.31225C8.51858 6.48007 8.79496 6.59742 9.15905 6.59742C9.3639 6.59742 9.56674 6.55752 9.756 6.47999C9.94525 6.40246 10.1172 6.28882 10.2621 6.14557C10.4069 6.00231 10.5218 5.83224 10.6002 5.64507C10.6786 5.4579 10.7189 5.25729 10.7189 5.05469C10.7189 4.8521 10.6786 4.65149 10.6002 4.46432C10.5218 4.27714 10.4069 4.10707 10.2621 3.96382C10.1172 3.82056 9.94525 3.70693 9.756 3.6294C9.56674 3.55187 9.3639 3.51196 9.15905 3.51196Z" fill="#38D200"/>
<path d="M17.2823 12.369C17.6952 12.369 18.0802 12.2582 18.381 12.0021V12.5765C18.045 12.8049 17.6461 12.9018 17.2262 12.9018C16.1688 12.9018 15.4346 12.175 15.4346 11.1299C15.4346 10.0915 16.1904 9.36488 17.2402 9.36488C17.6531 9.36488 18.038 9.4827 18.3459 9.71094V10.3407C18.073 10.0502 17.6952 9.89784 17.2752 9.89784C16.5403 9.89784 16.0224 10.4032 16.0224 11.1297C16.0224 11.8565 16.5474 12.369 17.2823 12.369ZM19.5777 12.8396H19.0108V8.34565L19.5777 8.69218V10.0087C19.8367 9.61425 20.2496 9.3652 20.7745 9.3652C21.6424 9.3652 22.1043 9.99485 22.1043 10.8324V12.8396H21.5304V10.9292C21.5304 10.2647 21.2365 9.91188 20.6345 9.91188C19.9977 9.91188 19.5773 10.4516 19.5773 11.13L19.5777 12.8396ZM25.6245 12.2578C25.3378 12.6592 24.8968 12.9014 24.3579 12.9014C23.3501 12.9014 22.6293 12.1609 22.6293 11.1504C22.6293 10.1194 23.3501 9.36457 24.3579 9.36457C24.8968 9.36457 25.3378 9.61378 25.6245 10.0223V9.42687H26.1985V12.8391H25.6245V12.2578ZM23.2171 11.1434C23.2171 11.8494 23.7141 12.3685 24.4139 12.3685C25.1207 12.3685 25.6245 11.8494 25.6245 11.1434C25.6245 10.4235 25.1207 9.89753 24.4139 9.89753C23.7141 9.898 23.2171 10.4239 23.2171 11.1439V11.1434ZM27.6472 12.8396H27.0803V9.42734H27.6472V10.154C27.9201 9.64863 28.3611 9.36504 28.907 9.36504V10.0087C28.221 9.91188 27.6472 10.3687 27.6472 11.213V12.8396ZM34.7158 11.3515H31.9933C32.0773 11.9675 32.5672 12.3759 33.253 12.3759C33.694 12.3759 34.1209 12.2513 34.4848 11.9951V12.535C34.1139 12.7843 33.694 12.9019 33.253 12.9019C32.1682 12.9019 31.3917 12.2098 31.3917 11.1641C31.3917 10.1396 32.0495 9.36457 33.0924 9.36457C34.0861 9.36457 34.7371 10.0912 34.7371 11.0672C34.7373 11.1623 34.7301 11.2575 34.7158 11.3515ZM32.0003 10.895H34.1349C34.079 10.3135 33.708 9.88444 33.0991 9.88444C32.4691 9.88412 32.0912 10.3202 32.0003 10.8947V10.895ZM35.9265 12.8396H35.3596V9.42734H35.9265V10.154C36.1994 9.64863 36.6402 9.36504 37.1861 9.36504V10.0087C36.5005 9.91188 35.9265 10.3687 35.9265 11.213V12.8396ZM40.5526 11.3515H37.8303C37.914 11.9675 38.4041 12.3759 39.0899 12.3759C39.5308 12.3759 39.9578 12.2513 40.3217 11.9951V12.535C39.9508 12.7843 39.5308 12.9019 39.0899 12.9019C38.0051 12.9019 37.2286 12.2098 37.2286 11.1641C37.2286 10.1396 37.8863 9.36457 38.9291 9.36457C39.9228 9.36457 40.5737 10.0912 40.5737 11.0672C40.5739 11.1624 40.5669 11.2574 40.5526 11.3515ZM37.8373 10.895H39.9716C39.9157 10.3135 39.5447 9.88444 38.936 9.88444C38.3062 9.88412 37.9285 10.3202 37.8373 10.8947V10.895ZM43.9557 12.2537C43.6759 12.6622 43.2279 12.9112 42.6891 12.9112C41.6811 12.9112 40.9603 12.1705 40.9603 11.16C40.9603 10.1291 41.6811 9.37419 42.6891 9.37419C43.2279 9.37419 43.6759 9.63049 43.9557 10.0456V8.34644L44.5296 8.69312V12.8395H43.9557V12.2537ZM41.5483 11.1532C41.5483 11.8592 42.0451 12.3784 42.745 12.3784C43.4519 12.3784 43.9557 11.8592 43.9557 11.1532C43.9557 10.4333 43.4519 9.90731 42.745 9.90731C42.0451 9.90731 41.5483 10.433 41.5483 11.1532ZM29.8975 11.7054C29.8975 12.183 30.1914 12.3699 30.5624 12.3699C30.8505 12.3727 31.1322 12.2855 31.3673 12.1207V12.6675C31.129 12.8406 30.8003 12.9098 30.5134 12.9098C29.7785 12.9098 29.3305 12.5844 29.3305 11.6638V8.34486L29.8975 8.69139V11.7054ZM30.8139 9.38271C30.7656 9.35176 30.7117 9.33051 30.6552 9.32018C30.5987 9.30984 30.5406 9.31062 30.4844 9.32247C30.4282 9.33432 30.3748 9.35701 30.3275 9.38924C30.2801 9.42146 30.2396 9.4626 30.2083 9.51031C30.177 9.55801 30.1556 9.61134 30.1451 9.66725C30.1347 9.72317 30.1354 9.78057 30.1474 9.83618C30.1594 9.89179 30.1823 9.94453 30.2149 9.99137C30.2475 10.0382 30.2891 10.0783 30.3374 10.1092L30.3495 10.1168C30.4199 10.1614 30.5017 10.1851 30.5853 10.1851C30.669 10.1851 30.7508 10.1614 30.8212 10.1168L31.385 9.7592L30.8139 9.38271ZM16.6174 7.44818C17.0232 7.44818 17.3173 7.27515 17.3173 6.96364C17.3173 6.77674 17.2193 6.63147 16.9599 6.52753L16.1409 6.20229C15.721 6.02233 15.4901 5.787 15.4901 5.34394C15.4901 4.74868 15.973 4.37486 16.6728 4.37486C17.0785 4.37486 17.4565 4.48559 17.7225 4.68638V5.27549C17.4077 4.99852 17.0225 4.83937 16.6801 4.83937C16.316 4.83937 16.057 5.00546 16.057 5.28243C16.057 5.49 16.1551 5.6146 16.4281 5.71839L17.2471 6.04378C17.6879 6.23068 17.8911 6.49361 17.8911 6.86049C17.8911 7.51111 17.359 7.91253 16.6104 7.91253C16.1553 7.91253 15.7424 7.78792 15.4416 7.56663V6.9567C15.8054 7.29582 16.2114 7.44818 16.6174 7.44818ZM18.969 6.70749C18.969 7.18509 19.2628 7.372 19.6339 7.372C19.9217 7.37454 20.2031 7.28735 20.438 7.12279V7.66963C20.1997 7.84266 19.8709 7.9119 19.584 7.9119C18.8491 7.9119 18.4014 7.58666 18.4014 6.66601V3.69112L18.9682 3.34412L18.969 6.70749ZM23.609 7.26806C23.3221 7.66963 22.8811 7.9119 22.3422 7.9119C21.3344 7.9119 20.6136 7.17137 20.6136 6.16065C20.6136 5.12975 21.3344 4.37486 22.3422 4.37486C22.8811 4.37486 23.3221 4.62407 23.609 5.03259V4.43764H24.1829V7.8496H23.609V7.26806ZM21.2014 6.15387C21.2014 6.85986 21.6984 7.37894 22.3982 7.37894C23.1052 7.37894 23.609 6.85986 23.609 6.15387C23.609 5.434 23.1052 4.90782 22.3982 4.90782C21.6984 4.90782 21.2014 5.434 21.2014 6.15387ZM25.6315 7.8496H25.0646V4.43764H25.6315V5.01902C25.8905 4.62455 26.3034 4.37534 26.8283 4.37534C27.6962 4.37534 28.158 5.0053 28.158 5.84283V7.85007H27.5842V5.93983C27.5842 5.27533 27.2903 4.92234 26.6884 4.92234C26.0514 4.92234 25.631 5.46224 25.631 6.14062L25.6315 7.8496ZM31.6784 7.25433C31.3985 7.66285 30.9506 7.91206 30.4117 7.91206C29.4039 7.91206 28.683 7.17137 28.683 6.16065C28.683 5.12975 29.4039 4.37486 30.4117 4.37486C30.9506 4.37486 31.3985 4.63101 31.6784 5.04631V3.69064L32.2524 3.34412V7.8496H31.6784V7.25433ZM29.2709 6.15387C29.2709 6.85986 29.7678 7.37894 30.4676 7.37894C31.1746 7.37894 31.6784 6.85986 31.6784 6.15387C31.6784 5.434 31.1746 4.90782 30.4676 4.90782C29.7683 4.90782 29.2709 5.434 29.2709 6.15387ZM42.1766 7.25433C41.8968 7.66285 41.4488 7.91206 40.9099 7.91206C39.902 7.91206 39.1811 7.17137 39.1811 6.16065C39.1811 5.12975 39.902 4.37486 40.9099 4.37486C41.4488 4.37486 41.8968 4.63101 42.1766 5.04631V3.69064L42.7505 3.34412V7.8496H42.1766V7.25433ZM39.7691 6.15387C39.7691 6.85986 40.2659 7.37894 40.9659 7.37894C41.6727 7.37894 42.1766 6.85986 42.1766 6.15387C42.1766 5.434 41.6727 4.90782 40.9659 4.90782C40.2664 4.90782 39.7691 5.434 39.7691 6.15387ZM35.8637 7.26806C35.5768 7.66963 35.1358 7.9119 34.597 7.9119C33.5892 7.9119 32.8683 7.17137 32.8683 6.16065C32.8683 5.12975 33.5892 4.37486 34.597 4.37486C35.1358 4.37486 35.5768 4.62407 35.8637 5.03259V4.43764H36.4377V7.8496H35.8637V7.26806ZM33.4562 6.15387C33.4562 6.85986 33.9531 7.37894 34.6529 7.37894C35.3598 7.37894 35.8637 6.85986 35.8637 6.15387C35.8637 5.434 35.3598 4.90782 34.6529 4.90782C33.9526 4.90782 33.4562 5.434 33.4562 6.15387ZM37.8863 7.8496H37.3193V4.43764H37.8863V5.16445C38.1591 4.65909 38.6001 4.37534 39.146 4.37534V5.01902C38.4601 4.92218 37.8863 5.37896 37.8863 6.22343V7.8496ZM19.768 5.16445C19.8285 5.20347 19.8978 5.22708 19.9698 5.2332C20.0418 5.23931 20.1142 5.22773 20.1805 5.19949C20.2468 5.17125 20.3051 5.12722 20.3501 5.07132C20.3951 5.01543 20.4254 4.9494 20.4383 4.87912C20.4487 4.82296 20.4476 4.76532 20.4353 4.70955C20.423 4.65378 20.3996 4.60098 20.3665 4.5542C20.3336 4.50741 20.2916 4.46753 20.2429 4.43685L20.2308 4.42944C20.1603 4.38509 20.0783 4.36167 19.9947 4.36195C19.9111 4.36223 19.8293 4.3862 19.7591 4.43102L19.1956 4.78984L19.768 5.16445Z" fill="#525355"/>
</g>
<defs>
<clipPath id="clip0_7161_268512">
<rect width="44.6549" height="17.35" fill="white"/>
</clipPath>
</defs>
</svg>
