<svg width="62" height="18" viewBox="0 0 62 18" fill="none" xmlns="http://www.w3.org/2000/svg">
<g clip-path="url(#clip0_7161_268517)">
<path d="M12.8594 16.8907C12.8594 17.2991 13.4209 17.35 13.7271 17.35H13.9824C14.7479 17.2996 14.7478 16.993 14.7478 16.8907V0.459283C14.7982 0.0503599 14.2372 0 13.8801 0H13.7291C13.4209 0 12.8594 0.0503599 12.8594 0.459283V16.8907Z" fill="#E1091D"/>
<path d="M2.60254 16.8907C2.60254 17.2991 3.16406 17.35 3.47024 17.35H3.72559C4.49104 17.2996 4.49104 16.993 4.49104 16.8907V0.459283C4.49104 0.0503599 3.98039 0 3.62334 0H3.47226C3.1127 0 2.60254 0.0503599 2.60254 0.459283V16.8907Z" fill="#E1091D"/>
<path d="M6.02148 16.8907C6.02148 17.2991 6.58302 17.35 6.88922 17.35H7.19539C7.96087 17.2996 7.96088 16.993 7.96088 16.8907V0.459283C7.96088 0.0503599 7.39936 0 7.09318 0H6.88922C6.58302 0 6.02148 0.0503599 6.02148 0.459283V16.8907Z" fill="#E1091D"/>
<path d="M9.44043 16.8907C9.44043 17.2991 10.0019 17.35 10.3081 17.35H10.5634C11.3289 17.2996 11.3289 16.993 11.3289 16.8907V0.459283C11.3289 0.0503599 10.7674 0 10.4612 0H10.3102C10.0019 0 9.44043 0.0503599 9.44043 0.459283V16.8907Z" fill="#E1091D"/>
<path d="M0.459278 7.70557C0.0503671 7.70557 0 8.26708 0 8.57327V8.87946C0.0503663 9.64493 0.357054 9.64493 0.459278 9.64493H16.8907C17.2991 9.64493 17.35 9.08341 17.35 8.77723V8.57327C17.35 8.26708 17.2996 7.70557 16.8907 7.70557H0.459278Z" fill="#E1091D"/>
<path d="M41.2824 13.8797C38.5781 13.8797 37.5558 12.3996 37.5558 8.57279C37.5558 4.79579 38.5252 3.41895 41.232 3.41895H41.3328C43.9863 3.41895 45.009 4.7968 45.009 8.57279C44.9587 12.4001 43.9374 13.8797 41.2824 13.8797ZM41.2824 1.27563C36.6896 1.27563 34.5977 3.57205 34.5977 8.62365C34.5977 13.6244 36.741 16.023 41.1293 16.0739H41.3333C45.773 16.0739 47.9158 13.6244 47.9158 8.62365C47.9158 3.52068 45.8752 1.27563 41.2824 1.27563Z" fill="#002469"/>
<path d="M22.759 14.9514C23.6775 15.666 24.9531 15.9722 26.9942 15.9722H27.0949C29.136 15.9722 30.4116 15.666 31.3816 14.9514C32.7081 13.9311 32.9649 12.7089 32.9649 10.4099V2.09248C32.9711 2.0175 32.9608 1.94207 32.9347 1.87151C32.9086 1.80094 32.8673 1.73696 32.8138 1.68406C32.6073 1.47859 32.1481 1.37787 31.3826 1.37787C30.9017 1.31647 30.4144 1.42475 30.0048 1.68406C29.9513 1.73696 29.91 1.80094 29.8839 1.8715C29.8578 1.94207 29.8474 2.0175 29.8536 2.09248V10.7675C29.8536 12.1962 29.8537 12.5024 29.1904 13.0639C28.535 13.4742 27.7682 13.6704 26.9962 13.6254C26.2216 13.6949 25.4467 13.4957 24.8015 13.0614C24.1383 12.5512 24.1383 12.245 24.1383 10.8163V2.09248C24.1445 2.0175 24.1342 1.94207 24.1081 1.8715C24.082 1.80094 24.0407 1.73696 23.9872 1.68406C23.5766 1.42394 23.0879 1.31562 22.6059 1.37787C22.1249 1.31647 21.6377 1.42475 21.228 1.68406C21.1745 1.73696 21.1333 1.80094 21.1072 1.8715C21.0811 1.94207 21.0707 2.0175 21.0769 2.09248V10.4099C21.1777 12.7063 21.3831 13.9311 22.761 14.9514" fill="#002469"/>
<path d="M55.8252 13.8294H52.5594V9.49186H56.0292C57.9685 9.49186 58.3256 10.3082 58.3256 11.686C58.3759 13.5232 57.7132 13.8294 55.8252 13.8294ZM52.5594 3.47033H55.8761C57.611 3.47033 57.7132 4.33803 57.7132 5.46055C57.7132 6.8384 57.1008 7.39941 55.6212 7.39941H52.5594V3.47033ZM59.4486 2.24557C58.6831 1.68406 57.7646 1.4801 55.9788 1.4801H50.059C49.9238 1.48037 49.7942 1.5342 49.6986 1.62981C49.6029 1.72543 49.5491 1.85503 49.5488 1.99025V15.462C49.5491 15.5973 49.6029 15.7269 49.6986 15.8225C49.7942 15.9181 49.9238 15.9719 50.059 15.9722H56.2845C57.9685 15.9722 59.1419 15.9218 60.1622 15.1558C61.2847 14.2881 61.4892 12.9108 61.4892 11.89C61.5266 11.3234 61.4307 10.756 61.2092 10.2331C60.9877 9.71031 60.6467 9.24669 60.2136 8.87949C59.8486 8.64164 59.4539 8.45285 59.0397 8.31797L58.7844 8.21725L59.0397 8.11653C60.2644 7.55502 60.6729 6.73869 60.6729 5.15688C60.6225 4.34055 60.4689 2.9627 59.4481 2.24809" fill="#002469"/>
</g>
<defs>
<clipPath id="clip0_7161_268517">
<rect width="61.4974" height="17.35" fill="white"/>
</clipPath>
</defs>
</svg>
