<svg width="62" height="18" viewBox="0 0 62 18" fill="none" xmlns="http://www.w3.org/2000/svg">
<g clip-path="url(#clip0_7161_268519)">
<path fill-rule="evenodd" clip-rule="evenodd" d="M9.68499 10.3458H6.57867C6.5507 10.341 6.52406 10.3304 6.5005 10.3146C6.47693 10.2988 6.45698 10.2782 6.44194 10.2542C6.41549 10.2184 6.4033 10.174 6.40776 10.1297V7.23261C6.40595 7.17319 6.42426 7.1149 6.45972 7.06718C6.50095 7.02945 6.55426 7.00764 6.61011 7.00565H10.7036C10.7513 7.00189 10.799 7.01287 10.8403 7.0371C10.9059 7.07265 10.9415 7.208 10.9415 7.208V10.1817C10.9242 10.2228 10.9002 10.2607 10.8704 10.2938C10.8391 10.3153 10.8051 10.3323 10.7692 10.3444M9.66311 5.14077V1.93601C11.2794 2.17505 12.7561 2.98691 13.8239 4.22362C14.8917 5.46032 15.4796 7.03954 15.4804 8.67344C15.4812 10.3073 14.8949 11.8872 13.8284 13.125C12.7618 14.3627 11.286 15.1761 9.66995 15.4168V12.1888H10.9387C11.1845 12.1945 11.4288 12.15 11.6568 12.0581C11.8848 11.9662 12.0917 11.8288 12.2648 11.6543C12.4379 11.4798 12.5737 11.2718 12.6637 11.043C12.7538 10.8143 12.7963 10.5696 12.7886 10.3239V6.98378C12.7886 5.91871 11.9395 5.1394 10.8745 5.1394L9.66311 5.14077ZM4.5128 6.98378C4.5128 5.91871 5.16086 5.1353 6.22592 5.1353H7.6451V1.94968C6.03466 2.19433 4.56526 3.00811 3.50346 4.24339C2.44166 5.47868 1.8578 7.05363 1.8578 8.68254C1.8578 10.3115 2.44166 11.8864 3.50346 13.1217C4.56526 14.357 6.03466 15.1708 7.6451 15.4154V12.2175H6.45835C6.20568 12.2231 5.95442 12.1784 5.71924 12.0859C5.48405 11.9933 5.26964 11.8549 5.08853 11.6786C4.90743 11.5024 4.76324 11.2918 4.66439 11.0592C4.56554 10.8266 4.51401 10.5766 4.5128 10.3239V6.98378ZM0.000977533 8.67366C0.00178868 6.95862 0.511097 5.28233 1.46451 3.85672C2.41792 2.43112 3.77263 1.32021 5.35735 0.664457C6.94207 0.00870241 8.68565 -0.162452 10.3676 0.172633C12.0496 0.507717 13.5945 1.33399 14.8069 2.54699C16.0193 3.75999 16.8449 5.30525 17.1792 6.98739C17.5135 8.66954 17.3415 10.413 16.685 11.9974C16.0285 13.5818 14.9169 14.936 13.4909 15.8888C12.0648 16.8415 10.3883 17.35 8.67324 17.35C7.53404 17.35 6.406 17.1256 5.35356 16.6895C4.30113 16.2534 3.34492 15.6143 2.53957 14.8085C1.73423 14.0028 1.09552 13.0463 0.659937 11.9937C0.224356 10.941 0.000438732 9.81286 0.000977533 8.67366Z" fill="#B31E3B"/>
<path fill-rule="evenodd" clip-rule="evenodd" d="M23.0401 14.7701C23.1426 14.8658 23.4571 14.833 23.4571 14.833C23.5924 14.8444 23.7284 14.8228 23.8536 14.7701H24.1913C24.1461 14.7988 24.1065 14.822 24.0778 14.8439C24.3376 14.9136 24.7614 15.0654 24.7614 15.5535C24.7614 16.0621 24.4879 16.382 24.2145 16.4668C23.9962 16.5317 23.7695 16.564 23.5418 16.5625H22.0762V16.4777C22.1928 16.4605 22.303 16.4134 22.3961 16.341C22.4481 16.2754 22.4658 16.233 22.4686 16.058V14.7742M26.2011 14.7742C26.1108 14.982 26.0233 15.2103 26.0643 15.2513C26.204 15.2896 26.3494 15.3026 26.4937 15.2896C26.7028 15.2828 26.9216 15.3047 26.9503 15.265C26.979 15.2254 26.8751 15.0107 26.7685 14.7742H27.3058L27.8636 16.0539C27.9053 16.1743 27.9643 16.2881 28.0386 16.3916C28.1083 16.4457 28.1916 16.4798 28.2792 16.49C28.3257 16.49 28.2997 16.5625 28.2997 16.5625L27.0023 16.5953C26.996 16.5862 26.992 16.5757 26.9906 16.5647C26.9892 16.5538 26.9906 16.5426 26.9945 16.5323C26.9984 16.5219 27.0047 16.5127 27.013 16.5053C27.0212 16.4979 27.0312 16.4927 27.0419 16.49C27.0939 16.4709 27.2757 16.3793 27.3085 16.248C27.3124 16.127 27.2881 16.0067 27.2374 15.8967C27.1859 15.7525 27.1106 15.618 27.0146 15.4988C26.9571 15.4578 26.7151 15.4797 26.4937 15.4728C26.2722 15.466 26.0247 15.4591 25.9468 15.5056C25.8401 15.5631 25.7239 16.0047 25.6979 16.073C25.6862 16.1202 25.6855 16.1694 25.6959 16.2168C25.7063 16.2643 25.7276 16.3086 25.7581 16.3465C25.8707 16.4172 25.9939 16.4694 26.1231 16.501C26.1477 16.5092 26.1423 16.5803 26.1423 16.5803H25.0157C25.0212 16.548 25.0343 16.5175 25.054 16.4914C25.0799 16.4654 25.2331 16.4258 25.2946 16.3547C25.3247 16.315 25.6774 15.5343 26.0124 14.781L26.2011 14.7742ZM29.1461 14.7742C29.1461 15.239 29.1461 15.8762 29.1461 15.8762C29.1461 16.1359 29.1994 16.2945 29.3648 16.382C29.4626 16.422 29.5644 16.4518 29.6683 16.4709C29.7011 16.4709 29.7176 16.5707 29.7176 16.5707H28.5308C28.5308 16.5707 28.4994 16.4969 28.5308 16.4859C28.6448 16.4364 28.7494 16.3675 28.8398 16.2822C28.9 16.2125 28.9451 16.1523 28.9451 15.9035C28.9451 15.9035 28.9451 15.2787 28.9355 14.7728L29.1461 14.7742ZM30.4941 14.7742L31.2338 15.5945C31.2338 15.5945 31.3076 15.6875 31.3514 15.667C31.3611 15.6326 31.367 15.5973 31.3692 15.5617C31.3692 15.4797 31.3692 15.116 31.3692 14.7769H31.5565V16.6281H31.469C31.469 16.6281 30.4285 15.4974 29.7613 14.7755L30.4941 14.7742ZM33.3653 14.7742V14.9574C33.3664 14.9764 33.3715 14.995 33.3802 15.0119C33.3889 15.0289 33.401 15.0438 33.4159 15.0558C33.4815 15.064 33.5212 14.982 33.5526 14.9656C33.61 14.9164 33.6784 14.8494 33.7536 14.7728H34.0448C34.1145 14.9205 34.5493 15.4304 34.8474 15.8433C34.9479 16.0083 35.0613 16.1651 35.1864 16.3123C35.2589 16.3656 35.3737 16.475 35.4722 16.475C35.5706 16.475 35.531 16.5803 35.531 16.5803C35.531 16.5803 34.9198 16.557 34.8145 16.5666C34.7421 16.5666 34.6559 16.4435 34.6587 16.4435C34.4167 16.1305 33.7331 15.172 33.6797 15.1132C33.6538 15.0927 33.3735 15.3019 33.368 15.4783C33.368 15.4715 33.368 16.058 33.368 16.058C33.355 16.1704 33.387 16.2834 33.4569 16.3725C33.5452 16.4359 33.6504 16.4716 33.7591 16.475C33.8575 16.5023 33.7905 16.5666 33.7905 16.5666H32.4944C32.4944 16.5666 32.4493 16.5023 32.5463 16.4832C32.6404 16.4633 32.724 16.4099 32.7815 16.3328C32.8461 16.2321 32.8758 16.113 32.8663 15.9937V14.7728L33.3653 14.7742ZM37.7568 14.7742C37.7568 14.8412 37.7568 14.9109 37.7568 14.9834C37.7619 15.3901 37.8943 15.7851 38.1355 16.1127C38.2256 16.2364 38.3463 16.3345 38.4859 16.3973C38.6254 16.4601 38.7789 16.4855 38.9312 16.4709C39.0669 16.4616 39.1989 16.4229 39.3181 16.3575C39.4374 16.2921 39.5409 16.2016 39.6217 16.0922C39.783 15.8967 39.8623 15.5453 39.8623 15.0421C39.8623 14.9464 39.8623 14.8562 39.8486 14.7687H40.3873C40.3942 14.8289 40.3969 14.8931 40.3983 14.9601C40.4091 15.1883 40.371 15.4161 40.2866 15.6283C40.2022 15.8405 40.0734 16.0322 39.9088 16.1906C39.6041 16.4654 39.2089 16.6182 38.7986 16.6199C38.3597 16.6199 37.9386 16.5023 37.6474 16.2098C37.3562 15.9172 37.2455 15.5015 37.2373 15.0216C37.2375 14.9412 37.2421 14.8609 37.2509 14.781L37.7568 14.7742ZM41.827 14.7742C41.827 14.8029 41.8393 14.8275 41.8571 14.8343C42.0388 14.8528 42.2215 14.8592 42.404 14.8535C42.4648 14.8466 42.5211 14.8179 42.5626 14.7728H42.8688C42.8688 15.0736 42.8784 15.5111 42.8784 15.5111C42.8278 15.5822 42.7827 15.492 42.7827 15.492C42.7756 15.3786 42.7309 15.2708 42.6555 15.1857C42.6261 15.1459 42.5884 15.1131 42.5449 15.0895C42.5014 15.0659 42.4533 15.052 42.404 15.049C42.404 15.049 42.0088 15.049 41.9938 15.0421C41.8434 15.0285 41.8366 15.1925 41.8311 15.2527L41.8229 16.0853C41.8236 16.1744 41.8513 16.2611 41.9022 16.3342C42.0058 16.4217 42.1336 16.4756 42.2686 16.4887C42.352 16.4969 42.2946 16.5926 42.2946 16.5926H40.9369C40.9369 16.5926 40.8741 16.5488 40.9698 16.5023C41.0544 16.4812 41.1342 16.4441 41.2049 16.393C41.2569 16.3506 41.2979 16.2631 41.2979 16.0594V14.7673L41.827 14.7742ZM45.5937 14.7742C45.5937 14.8111 45.5937 14.8453 45.5937 14.8808C45.5937 15.291 45.7714 15.7804 46.0189 16.0156C46.1274 16.1264 46.2572 16.2139 46.4006 16.2729C46.544 16.3319 46.6979 16.3611 46.8529 16.3588C47.0615 16.358 47.2652 16.2952 47.4381 16.1783C47.5895 16.0685 47.7296 15.9439 47.8564 15.8064C47.8655 15.7967 47.8769 15.7895 47.8895 15.7855C47.9021 15.7814 47.9156 15.7807 47.9286 15.7833C47.9416 15.7859 47.9537 15.7917 47.9638 15.8003C47.9739 15.8089 47.9817 15.82 47.9863 15.8324C47.9986 15.9035 47.7293 16.1838 47.5105 16.3588C47.271 16.5177 46.9956 16.6145 46.7093 16.6404C46.2048 16.6404 45.9123 16.6144 45.4706 16.2166C45.2204 15.991 45.0783 15.533 45.0769 15.0791C45.0762 14.9765 45.084 14.8741 45.1001 14.7728L45.5937 14.7742ZM49.4752 14.7742C49.4835 14.798 49.4996 14.8184 49.521 14.8318C49.5424 14.8452 49.5677 14.8509 49.5928 14.848C49.802 14.8371 50.7385 14.8658 50.8848 14.848C50.9172 14.8483 50.9491 14.8411 50.9783 14.8272C51.0074 14.8132 51.033 14.7927 51.053 14.7673H51.5999V16.0662C51.5999 16.2357 51.6327 16.289 51.6846 16.3396C51.7188 16.3795 51.7606 16.4121 51.8076 16.4356C51.8545 16.4591 51.9057 16.4729 51.9581 16.4764C52.0497 16.49 52.0948 16.5816 51.9854 16.5871C51.9923 16.6008 50.7987 16.6131 50.7987 16.6131C50.7987 16.6131 50.6428 16.542 50.8178 16.4764C50.894 16.4564 50.961 16.4111 51.0079 16.3478C51.0477 16.2483 51.0672 16.1419 51.0653 16.0347C51.0653 16.0347 51.0653 15.3101 51.0653 15.1994C51.0653 15.1214 51.0393 15.0162 50.9354 15.0367C50.9354 15.0367 49.6653 15.0367 49.56 15.023C49.4875 15.0162 49.4424 15.0558 49.4424 15.1939V16.0142C49.4425 16.146 49.4911 16.273 49.5791 16.3711C49.67 16.4436 49.7828 16.4832 49.8991 16.4832C50.0495 16.5023 49.9373 16.5803 49.9373 16.5803H48.5715C48.5715 16.5803 48.4922 16.5092 48.6029 16.4832C48.5947 16.4832 48.7971 16.3465 48.8436 16.3C48.8901 16.2535 48.9283 16.1715 48.9283 15.9678L48.9365 14.7537L49.4752 14.7742ZM53.4907 14.7742V16.0922C53.485 16.153 53.4925 16.2143 53.5128 16.2719C53.5331 16.3295 53.5657 16.382 53.6083 16.4258C53.7005 16.4884 53.81 16.5205 53.9214 16.5174C54.0458 16.5352 53.9214 16.6008 53.9214 16.6008H52.6704C52.5706 16.568 52.6704 16.516 52.6704 16.516C52.742 16.4888 52.8097 16.452 52.8714 16.4066C52.9261 16.3615 52.9575 16.2699 52.9603 16.0922V14.7742H53.4907ZM55.0494 14.7742C55.0494 15.2472 55.0494 15.9103 55.0494 15.9103C55.0438 15.9966 55.0554 16.083 55.0835 16.1647C55.1117 16.2464 55.1559 16.3217 55.2134 16.3861C55.2961 16.4586 55.4029 16.4976 55.5129 16.4955C55.6181 16.4955 55.5976 16.6008 55.5976 16.6008H54.404C54.3987 16.5758 54.4032 16.5497 54.4168 16.528C54.4303 16.5063 54.4517 16.4907 54.4765 16.4846C54.5882 16.4532 54.6881 16.3895 54.7636 16.3014C54.8128 16.2289 54.8443 16.1646 54.8443 15.9103L54.8279 14.7742H55.0494ZM56.3769 14.7742C56.6326 15.0586 56.876 15.3334 57.0428 15.5261C57.2096 15.7189 57.2779 15.6943 57.2697 15.4988C57.2697 15.4988 57.2697 15.1365 57.2766 14.7728H57.4625V16.5666C57.4625 16.6787 57.3504 16.6199 57.3504 16.6199C57.3504 16.6199 56.3058 15.4797 55.6591 14.7701L56.3769 14.7742ZM59.1442 14.7742C59.0512 14.9875 58.9514 15.2363 58.9952 15.2787C59.1348 15.3196 59.281 15.3336 59.4258 15.3197C59.635 15.3115 59.851 15.332 59.8811 15.2923C59.9112 15.2527 59.7963 15.0189 59.6856 14.7728H60.2243L60.7931 16.0812C60.8369 16.2011 60.8957 16.3151 60.9681 16.4203C61.0401 16.4719 61.1236 16.5052 61.2114 16.5174C61.2579 16.5174 61.2306 16.5885 61.2306 16.5885H59.9495C59.9495 16.5885 59.8647 16.5242 59.9495 16.49C60.0014 16.4709 60.2065 16.4066 60.2407 16.2781C60.2441 16.1565 60.2193 16.0358 60.1682 15.9254C60.1179 15.781 60.043 15.6464 59.9467 15.5275C59.888 15.4865 59.6473 15.5084 59.4258 15.5015C59.2043 15.4947 58.9569 15.4879 58.8707 15.5343C58.7846 15.5808 58.6493 16.0334 58.6233 16.1004C58.6111 16.1474 58.6101 16.1966 58.6203 16.2441C58.6305 16.2915 58.6516 16.336 58.6821 16.3738C58.7953 16.4439 58.9183 16.4969 59.0471 16.531C59.0731 16.531 59.0663 16.6076 59.0663 16.6076H57.941C57.9466 16.576 57.9592 16.5461 57.978 16.5201C58.0039 16.4941 58.1571 16.4545 58.22 16.3766C58.2514 16.3355 58.611 15.5343 58.9487 14.7755L59.1442 14.7742ZM24.2077 15.9226C24.276 15.589 24.2008 15.3689 24.0067 15.2062C23.8473 15.0892 23.6572 15.0213 23.4598 15.0107C23.1864 15.0107 23.0004 14.9834 23.0004 15.2937V16.0471C23.0004 16.4709 23.5282 16.4258 23.5282 16.4258C23.9588 16.4258 24.1475 16.1783 24.1995 15.9226" fill="#231F20"/>
<path fill-rule="evenodd" clip-rule="evenodd" d="M22.4691 14.77V13.9647C22.4711 13.9144 22.4627 13.8642 22.4446 13.8172C22.4265 13.7701 22.399 13.7273 22.3638 13.6913C22.2271 13.5395 22.0576 13.6393 22.0316 13.5805C22.0187 13.5414 22.0141 13.4999 22.0179 13.4589H23.3332C23.7092 13.4589 23.958 13.4753 24.1822 13.5887C24.2928 13.6428 24.3861 13.7265 24.4518 13.8306C24.5175 13.9347 24.5529 14.055 24.5541 14.178C24.5522 14.3004 24.5174 14.4201 24.4534 14.5245C24.3894 14.6288 24.2986 14.7141 24.1904 14.7714H23.8554C23.9826 14.703 24.0482 14.5595 24.0523 14.2655C24.049 14.1663 24.0246 14.0689 23.9808 13.9797C23.9369 13.8906 23.8746 13.8119 23.798 13.7487C23.6837 13.6613 23.5441 13.6133 23.4002 13.612C23.165 13.612 23.0105 13.6434 23.0105 13.8649V14.6935C23.0082 14.7089 23.0099 14.7246 23.0154 14.7392C23.0209 14.7538 23.03 14.7668 23.042 14.7769M26.0088 14.7769C26.3233 14.07 26.6213 13.396 26.6213 13.396L26.6993 13.3768L27.309 14.7769H26.7717L26.7512 14.7331C26.6664 14.5444 26.5243 14.178 26.4778 14.1862C26.3817 14.3478 26.3011 14.5181 26.2371 14.6948C26.2262 14.7194 26.2139 14.7454 26.203 14.7714L26.0088 14.7769ZM28.9319 14.7769C28.9319 14.4952 28.9319 14.2505 28.9319 14.1712C28.9319 13.9907 28.8677 13.7487 28.7829 13.6831C28.6987 13.6167 28.596 13.578 28.4889 13.5723C28.4889 13.5723 28.4042 13.4807 28.4958 13.4616C28.5218 13.4548 29.3093 13.4616 29.3093 13.4616L30.5015 14.7769H29.77C29.4857 14.4679 29.2696 14.23 29.2313 14.1985C29.1726 14.1397 29.1534 14.2177 29.1534 14.2956C29.1534 14.3229 29.1534 14.5253 29.1534 14.7755L28.9319 14.7769ZM31.3738 14.7769C31.3738 14.4487 31.3738 14.1452 31.3738 14.1452C31.3738 14.0085 31.3998 13.8595 31.3082 13.7542C31.1919 13.6175 30.9595 13.597 30.898 13.5723C30.8365 13.5477 30.846 13.4944 30.898 13.4753C30.898 13.4917 31.9275 13.4753 31.9275 13.4753C31.9986 13.4753 31.9466 13.5532 31.9466 13.5532C31.8398 13.5689 31.7402 13.6166 31.6609 13.6899C31.5953 13.7733 31.5611 13.9018 31.5611 14.152V14.7837L31.3738 14.7769ZM32.864 14.7769V14.0016C32.8721 13.9459 32.867 13.8891 32.8492 13.8357C32.8314 13.7823 32.8014 13.7337 32.7616 13.6939C32.7218 13.6541 32.6733 13.6241 32.6198 13.6063C32.5664 13.5886 32.5096 13.5835 32.4539 13.5915C32.4539 13.5915 32.3172 13.5054 32.4539 13.4671C32.4607 13.4671 33.6598 13.4671 33.6598 13.4671C33.6598 13.4671 33.7691 13.5026 33.6734 13.5546C33.5777 13.6065 33.5094 13.5669 33.4396 13.6462C33.3763 13.7437 33.3483 13.86 33.3603 13.9757V14.7796L32.864 14.7769ZM33.7568 14.7769C33.8566 14.6771 33.966 14.5636 34.0699 14.4651C34.262 14.2929 34.4446 14.1103 34.6168 13.9182C34.6493 13.8801 34.6706 13.8338 34.6786 13.7844C34.6866 13.735 34.6808 13.6843 34.6619 13.638C34.6168 13.5846 34.5252 13.5846 34.435 13.5587C34.435 13.5587 34.357 13.5067 34.4473 13.4753H35.5219C35.5219 13.4753 35.5616 13.5723 35.5028 13.5983C35.3989 13.6048 35.298 13.6362 35.2088 13.6899C35.0571 13.7783 34.917 13.8853 34.7918 14.0085C34.7918 14.0085 34.007 14.6921 34.0371 14.7646C34.0368 14.7691 34.0368 14.7737 34.0371 14.7782L33.7568 14.7769ZM37.2528 14.7769C37.2946 14.4198 37.4629 14.0895 37.7272 13.8458C38.0391 13.5759 38.4417 13.4343 38.8538 13.4493C39.2763 13.4493 39.6249 13.5149 39.9162 13.7938C40.189 14.0513 40.3558 14.4014 40.3837 14.7755H39.8369C39.8138 14.4766 39.703 14.1913 39.5183 13.9552C39.433 13.8424 39.3213 13.7524 39.1931 13.693C39.0648 13.6336 38.9239 13.6068 38.7827 13.6147C38.6459 13.6054 38.5087 13.6256 38.3804 13.674C38.2521 13.7224 38.1356 13.7977 38.039 13.895C37.8694 14.0905 37.7778 14.3831 37.7519 14.7741L37.2528 14.7769ZM41.3025 14.7769V14.0933C41.314 13.9768 41.286 13.8598 41.2232 13.761C41.1658 13.6694 41.0222 13.6489 40.8527 13.6243C40.8527 13.6243 40.7283 13.5327 40.8158 13.4958C40.8076 13.4958 41.7318 13.4958 42.1748 13.5067C42.6178 13.5177 43.0867 13.4698 43.1319 13.5067C43.177 13.5436 43.1592 13.9839 43.1688 14.0659C43.177 14.1124 43.1414 14.2026 43.099 14.2095C43.0567 14.2163 43.0334 14.1233 43.0334 14.0659C43.019 13.961 42.976 13.8622 42.909 13.7802C42.8786 13.7469 42.8414 13.7208 42.7998 13.7035C42.7582 13.6863 42.7133 13.6784 42.6684 13.6804H41.9752C41.9123 13.6804 41.8945 13.6804 41.874 13.7009C41.8451 13.7408 41.8284 13.7883 41.8262 13.8376V14.7044C41.8248 14.729 41.8248 14.7536 41.8262 14.7782L41.3025 14.7769ZM42.559 14.7769C42.5727 14.7635 42.585 14.7488 42.5959 14.7331C42.6522 14.651 42.7003 14.5635 42.7395 14.472C42.7586 14.4132 42.8625 14.3667 42.8625 14.4993C42.8625 14.5239 42.8625 14.636 42.8625 14.7728L42.559 14.7769ZM45.0993 14.7769C45.1465 14.4595 45.2896 14.1642 45.5095 13.9306C45.6607 13.7689 45.845 13.6418 46.0498 13.5578C46.2546 13.4738 46.475 13.435 46.6962 13.4438C46.9069 13.4487 47.1146 13.4951 47.3073 13.5805C47.4202 13.6549 47.5466 13.7064 47.6792 13.7323C47.723 13.7323 47.7613 13.6366 47.7763 13.5805C47.8488 13.4821 47.8747 13.6598 47.8747 13.653L47.9335 14.5335C47.9278 14.5441 47.9193 14.5529 47.9089 14.559C47.8986 14.5651 47.8868 14.5684 47.8747 14.5684C47.8627 14.5684 47.8509 14.5651 47.8406 14.559C47.8302 14.5529 47.8217 14.5441 47.8159 14.5335C47.7418 14.3257 47.6264 14.1351 47.4769 13.9729C47.2671 13.7504 46.9797 13.6172 46.6743 13.6011C46.5165 13.5938 46.3594 13.6252 46.2165 13.6924C46.0735 13.7595 45.9491 13.8605 45.854 13.9866C45.691 14.2178 45.6014 14.4927 45.597 14.7755L45.0993 14.7769ZM48.9384 14.7769V14.0481C48.9456 13.935 48.9204 13.8222 48.866 13.7227C48.8209 13.6434 48.7142 13.6311 48.5406 13.6175C48.5406 13.6175 48.2931 13.5587 48.5214 13.5012C48.5214 13.5108 49.7396 13.5012 49.7396 13.5012C49.8695 13.5012 49.7601 13.5846 49.7601 13.5846C49.7179 13.5816 49.6755 13.5884 49.6364 13.6046C49.5972 13.6207 49.5624 13.6457 49.5345 13.6776C49.4688 13.7735 49.441 13.8905 49.4566 14.0058V14.6894C49.4557 14.7188 49.4608 14.7481 49.4716 14.7755L48.9384 14.7769ZM51.0549 14.7769C51.0769 14.7421 51.0883 14.7017 51.0877 14.6606C51.0945 14.4651 51.0877 14.0249 51.0877 14.0249C51.0959 13.9016 51.0622 13.7792 50.992 13.6776C50.8923 13.6123 50.7747 13.5798 50.6557 13.5846C50.5326 13.5655 50.6187 13.4971 50.6187 13.4971H51.9149C51.9149 13.4971 51.9805 13.571 51.8766 13.5833C51.8382 13.5808 51.7998 13.588 51.7649 13.6043C51.73 13.6205 51.6998 13.6453 51.677 13.6763C51.6139 13.7733 51.5873 13.8896 51.6018 14.0044V14.7755L51.0549 14.7769ZM52.969 14.7769V14.0809C52.9608 13.9442 52.9608 13.7938 52.8965 13.7296C52.845 13.6782 52.7835 13.6381 52.7157 13.6118C52.6479 13.5854 52.5754 13.5734 52.5028 13.5764C52.5028 13.5764 52.4207 13.5327 52.5028 13.4889C52.5028 13.4985 53.7962 13.4889 53.7962 13.4889C53.9001 13.5053 53.7839 13.5764 53.7839 13.5764C53.7405 13.5767 53.6977 13.5863 53.6583 13.6044C53.619 13.6226 53.5839 13.6489 53.5555 13.6817C53.5055 13.7826 53.4829 13.8948 53.4899 14.0071V14.7687L52.969 14.7769ZM54.8352 14.7769L54.8243 13.9565C54.817 13.9007 54.7974 13.8473 54.7669 13.8C54.7364 13.7527 54.6957 13.7128 54.6479 13.6831C54.5823 13.6503 54.4757 13.6571 54.4196 13.612C54.4196 13.612 54.2829 13.5136 54.3991 13.4944C54.3909 13.4944 55.188 13.4671 55.1989 13.4944C55.2577 13.5313 55.8456 14.178 56.3802 14.7728H55.6597C55.4245 14.5116 55.2413 14.3106 55.1798 14.2409C55.1798 14.2409 55.1429 14.1753 55.0868 14.2149C55.0526 14.2409 55.0472 14.2518 55.0526 14.3106V14.7741L54.8352 14.7769ZM57.2798 14.7769C57.2798 14.4091 57.2798 14.0413 57.2798 14.0413C57.2852 13.9806 57.2741 13.9196 57.2476 13.8647C57.2211 13.8098 57.1803 13.7631 57.1294 13.7296C57.0305 13.6534 56.9138 13.6036 56.7904 13.5846C56.7904 13.5846 56.6536 13.5409 56.7904 13.4971H57.8144C57.8841 13.4971 57.8841 13.5532 57.8144 13.5723C57.7132 13.5831 57.6198 13.632 57.5533 13.7091C57.4945 13.7788 57.4658 13.9347 57.4658 14.1821V14.7714L57.2798 14.7769ZM58.9519 14.7769C59.2623 14.0823 59.5521 13.4233 59.5521 13.4233L59.6301 13.4042L60.2276 14.7714H59.6889C59.6889 14.7646 59.6889 14.7605 59.6889 14.755C59.6041 14.5677 59.4592 14.1999 59.4154 14.2149C59.3196 14.3767 59.2391 14.5469 59.1748 14.7235C59.1675 14.7372 59.1607 14.7523 59.1543 14.7687L58.9519 14.7769Z" fill="#231F20"/>
<path fill-rule="evenodd" clip-rule="evenodd" d="M31.5045 6.79231C31.5036 6.89691 31.5091 7.00147 31.5209 7.1054C31.5346 7.16283 31.5387 7.28041 31.5906 7.27494C31.6426 7.26947 31.6672 7.05618 31.7274 7.06985C31.7656 7.06985 31.741 7.19564 31.7506 7.27767C31.7684 7.4267 31.7506 7.29818 31.793 7.56479C31.8162 7.73979 31.7862 8.03238 31.8121 8.12398C31.8381 8.21558 31.8231 8.30035 31.9201 8.30172C32.0172 8.30309 31.9735 8.23609 32.0391 8.15269C32.1047 8.06929 32.1102 8.05699 32.1649 8.09664C32.3189 8.12701 32.477 8.13117 32.6325 8.10894C32.754 8.06634 32.864 7.99614 32.9538 7.90386C33.0645 7.82046 33.5006 7.40893 33.7167 7.22025C33.796 7.15189 33.9901 6.9263 34.1159 6.78821H34.429C34.3661 6.85657 34.2923 6.9386 34.2212 7.00423C34.1501 7.06985 33.9122 7.24212 33.8643 7.28587C33.7932 7.35697 33.7057 7.47318 33.6538 7.5101C33.5557 7.57294 33.4616 7.6419 33.3721 7.71655C33.3133 7.78081 33.2354 7.91206 33.1616 7.94077C33.1165 7.95991 33.0549 8.03784 33.1014 8.07749C33.1479 8.11714 33.2969 8.04741 33.394 8.02964C33.4846 8.01646 33.5759 8.0087 33.6674 8.0064C33.7208 8.0064 33.7686 7.94761 33.8917 7.91206C34.0147 7.87651 34.0667 7.92573 34.1132 7.91206C34.1596 7.89839 34.2034 7.87515 34.295 7.85054C34.3866 7.82593 34.5356 7.8396 34.5944 7.81499C34.6532 7.79038 34.6341 7.78081 34.7134 7.73022C34.7653 7.69741 34.8337 7.73022 34.8884 7.71244C35.0036 7.68342 35.1173 7.64828 35.2288 7.60717C35.3958 7.55451 35.5656 7.51115 35.7374 7.47729C35.788 7.47729 35.8632 7.36107 35.948 7.32963C36.056 7.28861 36.2597 7.32963 36.3458 7.27631C36.3964 7.24623 36.5113 7.31185 36.5646 7.41303C36.6357 7.53744 36.5564 7.60034 36.5372 7.6728C36.5102 7.79192 36.4554 7.90296 36.3773 7.99683C36.3171 8.06109 36.2966 8.1773 36.1982 8.20191C36.1514 8.22165 36.1009 8.23101 36.0501 8.22936C35.9994 8.22771 35.9496 8.21508 35.9042 8.19234C35.6855 8.09253 35.5679 8.19234 35.438 8.1609C35.2438 8.11988 35.1645 8.21695 35.0784 8.20875C35.0007 8.19373 34.9209 8.19373 34.8432 8.20875C34.744 8.25268 34.6382 8.27994 34.5302 8.28941C34.4604 8.30992 34.4317 8.37828 34.4714 8.4111C34.6154 8.49146 34.78 8.5276 34.9444 8.51501C35.1539 8.51224 35.3632 8.5301 35.5692 8.56832C35.7442 8.58063 35.8673 8.67634 35.9521 8.6777C36.0368 8.67907 36.0888 8.72419 36.1845 8.75153C36.2536 8.77517 36.3261 8.78718 36.3991 8.78708C36.4771 8.78708 36.5359 8.8404 36.5687 8.82673C36.6274 8.80424 36.6884 8.7882 36.7505 8.77888C36.8025 8.76521 36.9091 8.62848 36.9802 8.57926C37.1126 8.4867 37.2232 8.3663 37.3042 8.22652C37.3439 8.11304 37.3576 8.06382 37.3986 7.92163C37.4328 7.79995 37.3808 7.78491 37.4287 7.59487C37.471 7.42533 37.4287 7.15325 37.4615 7.04798C37.482 6.98235 37.4751 6.94954 37.4957 6.89075C37.5072 6.85835 37.5105 6.82357 37.5052 6.78957H37.9455C37.9263 7.19974 37.9127 7.6769 37.8935 7.79858C37.8607 8.0187 37.8361 8.39742 37.7568 8.53278C37.6091 8.78298 37.0103 9.23006 36.8818 9.35311C36.7765 9.45018 36.3226 9.84531 36.2706 9.8412C36.2187 9.8371 36.1339 9.70448 35.9876 9.56776C35.7347 9.32166 35.0757 9.08924 34.7968 8.93611C34.5179 8.78298 33.6346 8.69411 33.0877 8.65446C32.6967 8.62985 32.0992 8.57789 32.0801 8.53278C32.061 8.48766 32.0158 8.4986 31.9571 8.49723C31.8983 8.49586 31.8983 8.56286 31.8846 8.58747C31.8709 8.61208 31.9106 8.60934 31.8846 8.72419C31.8586 8.83904 31.916 8.76247 31.927 8.85407C31.9379 8.94568 31.9789 8.90739 31.9461 8.99079C31.9133 9.0742 32.0828 9.13709 32.1115 9.22732C32.1403 9.31756 32.1485 9.47616 32.0309 9.48026C31.9133 9.48436 31.7944 9.53631 31.659 9.48983C31.5619 9.45428 31.2283 9.15213 31.2105 8.96208C31.1955 8.80075 31.1736 8.42887 31.16 8.31129C31.1367 8.10347 31.0588 7.55522 31.0355 7.28177C31.0123 7.00833 30.9863 7.06575 31.0355 6.95637C31.0711 6.88254 31.0232 6.8511 31 6.79504M33.4897 6.79504C33.3626 6.86067 33.2231 6.93176 33.1233 6.98372C32.9912 7.05312 32.8541 7.11253 32.7131 7.16146C32.6475 7.19427 32.6229 7.21341 32.5641 7.16146C32.5053 7.1095 32.5285 7.14505 32.5791 6.97962C32.5873 6.91608 32.5873 6.85175 32.5791 6.78821L33.4897 6.79504ZM35.6253 6.79504C35.6436 6.80225 35.663 6.80641 35.6827 6.80735C35.7163 6.80871 35.7498 6.80549 35.7825 6.79778H36.2255C36.1366 6.96458 36.0327 7.11771 36.0177 7.15325C36.0026 7.1888 36.0177 7.23802 35.9452 7.24213C35.8941 7.24529 35.8429 7.2359 35.7962 7.21478C35.6383 7.15952 35.4952 7.06878 35.3778 6.94954C35.3295 6.90203 35.2838 6.85182 35.2411 6.79914L35.6253 6.79504Z" fill="#231F20"/>
<path fill-rule="evenodd" clip-rule="evenodd" d="M31.0129 6.79232C30.9996 6.75708 30.9996 6.71818 31.0129 6.68294C31.0471 6.57766 31.0034 6.37805 31.0635 6.2468C31.0909 6.18801 31.0198 6.18937 31.0266 6.12921C31.0311 6.05889 31.043 5.98923 31.0622 5.9214C31.073 5.84155 31.073 5.76061 31.0622 5.68077C31.0466 5.60044 31.0612 5.5172 31.1032 5.44697C31.1319 5.39775 31.0786 5.37451 31.0868 5.27744C31.0868 5.22138 31.1592 4.71141 31.1866 4.51726C31.2139 4.32312 31.2577 3.80495 31.2932 3.73795C31.393 3.55064 31.4504 3.12681 31.4915 2.97778C31.5325 2.82875 31.6733 2.67836 31.7047 2.55667C31.7184 2.50609 31.8032 2.46097 31.8415 2.48011C31.8797 2.49925 31.9044 2.64418 31.9044 2.69613C31.8921 2.85672 31.8637 3.01567 31.8196 3.17056C31.7781 3.3128 31.7484 3.45821 31.7307 3.60533C31.7171 3.68736 31.7157 3.78033 31.7075 3.83912C31.6905 3.90779 31.6681 3.975 31.6405 4.04011C31.6241 4.09343 31.6528 4.20144 31.6405 4.25476C31.6327 4.31547 31.6166 4.37482 31.5926 4.43113C31.5612 4.48718 31.6118 4.54051 31.5926 4.58699C31.5735 4.63348 31.6159 4.69774 31.5776 4.762C31.5393 4.82626 31.6049 4.84403 31.5776 4.93153C31.5658 5.01261 31.5493 5.09295 31.5284 5.17216C31.5024 5.22275 31.5776 5.29248 31.5516 5.38818C31.5174 5.5167 31.542 6.255 31.5215 6.40266C31.5087 6.53212 31.5041 6.66227 31.5079 6.79232M32.6016 6.79232C32.6008 6.71926 32.6255 6.64819 32.6714 6.59134C32.7507 6.48879 32.8245 6.22218 32.9516 6.06769C32.9954 6.013 33.2388 5.70948 33.288 5.63018C33.3372 5.55088 33.4083 5.53038 33.4247 5.50713C33.4539 5.43986 33.4921 5.37685 33.5382 5.31982C33.6079 5.27097 33.6681 5.20982 33.7159 5.13935C33.73 5.12679 33.7397 5.11008 33.7436 5.09165C33.7475 5.07321 33.7455 5.05401 33.7378 5.03681C33.7296 5.0163 33.6886 4.94384 33.6394 5.00263C33.5901 5.06142 33.4903 5.08466 33.4493 5.11064C33.3755 5.15849 33.396 5.24736 33.3235 5.24736C33.2183 5.25556 33.2278 5.08329 33.2429 5.02587C33.2579 4.96845 33.2046 4.93973 33.2429 4.86864C33.2744 4.79953 33.2996 4.72768 33.3181 4.65399C33.3372 4.62254 33.355 4.65398 33.396 4.59793C33.437 4.54187 33.37 4.51863 33.4042 4.48035C33.4712 4.40105 33.4903 4.30808 33.556 4.26706C33.6436 4.19673 33.7153 4.10867 33.7665 4.00866C33.7843 3.9526 33.7898 3.89655 33.8089 3.84049C33.8089 3.81998 33.7419 3.81041 33.7118 3.77486C33.6817 3.73932 33.7118 3.70924 33.72 3.63814C33.7282 3.59849 33.6503 3.55201 33.6503 3.50142C33.6503 3.45083 33.6503 3.41666 33.5737 3.42212C33.4972 3.42759 33.3454 3.58892 33.2196 3.61353C33.0938 3.63814 32.9858 3.54517 33.0528 3.41529C33.1442 3.25956 33.2504 3.11305 33.37 2.97778C33.3915 2.95058 33.4064 2.91877 33.4135 2.88484C33.4206 2.85092 33.4198 2.8158 33.411 2.78226C33.411 2.71527 33.3454 2.56761 33.3249 2.41038C33.2905 2.25058 33.2448 2.09342 33.1882 1.94006C33.1759 1.91272 33.1472 1.83205 33.2237 1.80334C33.2565 1.79103 33.3208 1.86349 33.3604 1.92912C33.4349 2.0409 33.5029 2.15685 33.5642 2.27639C33.6024 2.35014 33.6345 2.42697 33.6599 2.50609C33.6722 2.5512 33.7036 2.63597 33.7679 2.64281C33.7931 2.64888 33.8194 2.64856 33.8445 2.64187C33.8696 2.63519 33.8926 2.62235 33.9114 2.60453C34.0894 2.49963 34.2783 2.41437 34.4747 2.35023C34.5041 2.33468 34.5372 2.32735 34.5704 2.32904C34.6036 2.33072 34.6357 2.34135 34.6634 2.35979C34.7072 2.38577 34.7591 2.53753 34.7851 2.54984C34.8384 2.57855 34.863 2.57035 34.8493 2.61C34.8357 2.64965 34.8493 2.6223 34.7824 2.70023C34.7154 2.77816 34.7741 2.80551 34.7085 2.90805C34.6509 3.00664 34.602 3.11002 34.5622 3.21704C34.5349 3.2813 34.4761 3.30865 34.4255 3.35376C34.3749 3.39888 34.3913 3.47545 34.3654 3.49049C34.2847 3.53013 34.2861 3.51783 34.2614 3.57388C34.2422 3.61772 34.2342 3.66564 34.238 3.71336C34.2418 3.76107 34.2574 3.8071 34.2833 3.84733C34.3148 3.90612 34.3736 3.91979 34.3859 3.96627C34.4091 4.05241 34.4693 4.05104 34.5021 4.09616C34.5554 4.17546 34.5458 4.16999 34.5773 4.22058C34.6347 4.31355 34.6292 4.27527 34.7003 4.32722C34.7454 4.36004 34.7837 4.46394 34.837 4.51726C34.9218 4.6034 35.0312 4.67039 35.1105 4.762C35.134 4.78426 35.1514 4.81211 35.1612 4.84296C35.171 4.8738 35.1729 4.90663 35.1665 4.93837C35.1542 5.04775 35.1788 4.98349 35.1378 5.06142C35.0968 5.13935 35.1378 5.19814 35.1378 5.23642C35.1456 5.30305 35.1285 5.3702 35.09 5.4251C35.0155 5.51964 34.947 5.61873 34.8849 5.72178C34.863 5.7751 34.8452 5.83253 34.8699 5.8585C34.8945 5.88448 34.9341 5.91183 34.9806 5.87902C35.064 5.82159 35.3115 5.41416 35.5275 5.14482C35.6724 4.94132 35.8053 4.72949 35.9253 4.51043C36.0012 4.38832 36.0857 4.27181 36.1783 4.16179C36.1847 4.15489 36.1929 4.14983 36.202 4.14713C36.211 4.14442 36.2206 4.14417 36.2298 4.14639C36.239 4.14862 36.2474 4.15324 36.2542 4.15979C36.261 4.16634 36.2659 4.17458 36.2685 4.18366C36.2795 4.22331 36.2603 4.26843 36.2685 4.29304C36.2767 4.31765 36.3314 4.30808 36.3396 4.36687C36.3478 4.42566 36.3506 4.45164 36.33 4.48308C36.3095 4.51453 36.367 4.52273 36.33 4.57469C36.2931 4.62664 36.3369 4.71141 36.263 4.79481C36.1591 4.91512 35.9048 5.25146 35.7996 5.38955C35.6546 5.57549 35.2322 6.07316 35.1665 6.13469C35.131 6.1675 35.0872 6.23449 35.105 6.27961C35.164 6.40063 35.2395 6.5129 35.3292 6.61321C35.4232 6.6887 35.5278 6.74997 35.6396 6.79505H35.2486C35.1579 6.69475 35.0726 6.58978 34.9929 6.48059C34.9683 6.44094 34.8835 6.38078 34.8439 6.41359C34.7714 6.47102 34.6661 6.63235 34.6128 6.67063C34.5548 6.7005 34.5002 6.73673 34.4501 6.77864L34.4323 6.79642H34.1206C34.1507 6.76497 34.1767 6.73763 34.1958 6.71985C34.3708 6.54895 34.6415 6.2673 34.6839 6.21808C34.7017 6.19442 34.7113 6.16563 34.7113 6.13605C34.7113 6.10647 34.7017 6.07769 34.6839 6.05402C34.6634 6.01027 34.6279 6.0007 34.5827 6.02804C34.4693 6.08957 34.3257 6.27824 34.2136 6.34797C34.0167 6.47239 33.7706 6.63782 33.6366 6.71849C33.5942 6.74446 33.5464 6.77044 33.4999 6.79642L32.6016 6.79232ZM35.7996 6.79232C35.837 6.78565 35.8725 6.7707 35.9035 6.74856C36.0531 6.60354 36.1684 6.42699 36.2412 6.23176C36.3214 6.03344 36.389 5.83023 36.4435 5.62334C36.4412 5.54905 36.4334 5.47502 36.4203 5.40185C36.4298 5.36084 36.4873 5.37041 36.4982 5.40869C36.5168 5.47938 36.5314 5.55104 36.542 5.62334C36.5611 5.73272 36.3984 6.28644 36.3683 6.47375C36.3424 6.58601 36.3 6.69382 36.2425 6.79369L35.7996 6.79232ZM37.5182 6.79232C37.5182 6.76087 37.5058 6.73899 37.5045 6.72259C37.5045 6.68294 37.5578 6.59954 37.5578 6.54758C37.5578 6.49563 37.5086 6.46145 37.5414 6.37258C37.5838 6.25637 37.551 6.13742 37.5838 6.09914C37.6166 6.06085 37.5469 5.99523 37.566 5.93507C37.5966 5.72405 37.6012 5.51008 37.5797 5.29795C37.5697 5.07441 37.577 4.85042 37.6016 4.62801C37.6016 4.56922 37.525 4.52273 37.551 4.47078C37.5769 4.41882 37.551 4.28894 37.5346 4.19733C37.5182 4.07565 37.4812 3.85006 37.4758 3.71334C37.4676 3.47818 37.2474 2.1178 37.1094 1.77052C36.9125 1.27832 36.3929 0.765617 36.1783 0.676748C35.9735 0.609482 35.7576 0.582554 35.5425 0.597451C35.2008 0.625638 34.8636 0.693543 34.5376 0.799796C34.2332 0.897774 33.938 1.02269 33.6558 1.17305C33.4948 1.29219 33.3484 1.42986 33.2196 1.58321C33.1358 1.68412 33.073 1.80081 33.035 1.92639C32.9407 2.1137 33.035 2.34886 33.0542 2.41312C33.0856 2.52523 33.0542 2.60316 33.0118 2.6223C32.9362 2.6649 32.8511 2.68793 32.7643 2.68929C32.7028 2.6975 32.5893 2.64144 32.5839 2.59769C32.5435 2.45261 32.4885 2.31198 32.4198 2.17795C32.3938 2.1178 32.5565 1.90451 32.9749 1.37813C33.3509 0.909175 34.1302 0.598817 34.4515 0.485338C34.5185 0.460728 34.7454 0.395102 34.822 0.378695C34.8986 0.362288 35.1173 0.355454 35.1747 0.33768C35.2855 0.299398 35.4728 0.313066 35.507 0.295293C35.5909 0.257838 35.679 0.23075 35.7695 0.214627C35.8775 0.191384 36.0156 0.250175 36.114 0.232402C36.2733 0.218911 36.4321 0.264672 36.5597 0.360921C36.9289 0.555066 37.3295 1.23594 37.4826 1.6215C37.7544 2.38201 37.9281 3.1741 37.9994 3.97858C38.035 4.54734 38.0145 6.02941 37.9912 6.2632C37.9789 6.39993 37.968 6.5886 37.9584 6.79369L37.5182 6.79232ZM34.5103 4.59656C34.5308 4.55692 34.5349 4.62938 34.632 4.73329C34.729 4.83719 34.6702 4.87001 34.7263 4.95477C34.7824 5.03954 34.7851 4.99579 34.77 5.0915C34.755 5.1872 34.7372 5.16943 34.6525 5.23915C34.5677 5.30888 34.6374 5.2788 34.5554 5.19267C34.4734 5.10653 34.5445 4.98485 34.4611 4.91102C34.3777 4.83719 34.3708 4.83856 34.3913 4.72235C34.4118 4.60613 34.4898 4.63211 34.5103 4.59383M34.1821 4.91649C34.2204 4.89052 34.2915 5.00946 34.3421 5.13525C34.379 5.21153 34.4109 5.29008 34.4378 5.37041C34.4816 5.50713 34.4693 5.4415 34.3571 5.57002C34.245 5.69854 34.0946 5.6835 33.947 5.81886C33.7993 5.95421 33.7296 5.9132 33.5915 6.01027C33.4534 6.10734 33.4739 6.07316 33.3577 6.02667C33.2415 5.98019 33.2483 5.94737 33.3276 5.8503C33.4069 5.75323 33.3933 5.80519 33.4534 5.7546C33.5136 5.70401 33.381 5.69444 33.4466 5.64385C33.5122 5.59327 33.5054 5.66436 33.6106 5.54815C33.7159 5.43193 33.6845 5.41142 33.7241 5.3417C33.7638 5.25213 33.8334 5.17916 33.921 5.13525C34.0176 5.07338 34.1062 4.99991 34.1849 4.91649M35.0408 2.14241C35.1112 2.12497 35.1849 2.12497 35.2554 2.14241C35.3087 2.15061 35.2158 2.12874 35.4441 2.11917C35.5491 2.12532 35.6492 2.16511 35.7298 2.23264C35.9718 2.36936 36.14 2.42269 36.1947 2.49925C36.2471 2.58522 36.2688 2.68645 36.2562 2.78636C36.2529 2.9008 36.2099 3.01052 36.1345 3.09673C36.0724 3.1535 36.0135 3.21375 35.9582 3.2772C35.9185 3.31685 35.9335 3.43306 35.8638 3.45904C35.7941 3.48501 35.7148 3.43033 35.6109 3.43033C35.507 3.43033 35.4154 3.49185 35.3826 3.45904C35.3565 3.42482 35.3261 3.39404 35.2923 3.36743C35.254 3.34009 35.1966 3.35923 35.1898 3.31274C35.1556 3.19126 35.0975 3.07783 35.0189 2.97914C34.9915 2.95317 35.0585 2.81645 35.0189 2.77133C34.9913 2.72123 34.9785 2.66434 34.982 2.60726C34.9784 2.56175 34.9784 2.51604 34.982 2.47054C34.982 2.42542 34.9232 2.35159 34.9519 2.29417C34.9806 2.23675 35.0025 2.16565 35.0449 2.14514M33.9907 2.96547C33.9675 2.84242 34.1097 2.87524 34.2409 2.80688C34.3722 2.73852 34.3066 2.75492 34.3448 2.85883C34.3831 2.96274 34.3052 2.86703 34.271 3.00786C34.2368 3.14868 34.2368 3.12544 34.1452 3.1897C34.0536 3.25395 34.0673 3.18149 34.0222 3.1104C33.9771 3.0393 34.0153 3.08989 33.9907 2.96547Z" fill="#231F20"/>
<path fill-rule="evenodd" clip-rule="evenodd" d="M61.2359 4.54468C61.1252 4.60484 60.7929 4.97536 60.7082 5.01364C60.6234 5.05192 60.5072 4.96032 60.4347 4.97126C60.246 5.00134 59.7949 5.10798 59.4777 5.16814C59.1924 5.23063 58.9143 5.32226 58.6478 5.44158C58.563 5.48533 58.5616 5.54686 58.6081 5.59061C58.7681 5.74237 58.9048 5.8162 58.9814 5.91464C59.032 5.98163 58.954 6.01171 58.9335 6.12246C58.8684 6.49147 58.8442 6.86652 58.861 7.24084C58.8966 7.54299 59.0552 8.45219 59.0962 8.70103C59.1345 8.92388 59.1646 9.22741 59.1933 9.34089C59.2245 9.51334 59.1975 9.69126 59.1167 9.84676C58.898 10.0833 58.5548 10.4333 58.4646 10.4647C58.3904 10.4921 58.3105 10.5006 58.2322 10.4894C58.1539 10.4782 58.0796 10.4476 58.0161 10.4005C57.8479 10.2638 57.785 10.0136 57.7358 9.88367C57.6497 9.65808 57.4022 9.48855 57.2272 9.36276C56.9196 9.1399 56.2456 8.79673 56.1444 8.55473C56.1307 8.52055 56.1075 8.45083 56.1786 8.42622C56.3153 8.377 56.3795 8.54517 56.4684 8.61216C56.6023 8.70467 56.7519 8.77186 56.91 8.81041C57.1028 8.87603 57.4487 8.9608 57.5307 8.98814C57.7276 9.05377 57.8302 9.08248 57.9792 9.03326C58.0817 8.99908 58.2526 8.67915 58.2595 8.54243C58.2786 8.2102 58.2034 7.81781 58.213 7.65648C58.2169 7.35202 58.2379 7.04802 58.2759 6.74591C58.284 6.55411 58.2753 6.36196 58.2499 6.17167C58.2495 6.01713 58.2665 5.86304 58.3005 5.71229C58.3347 5.62479 58.2267 5.62889 58.1515 5.65076C57.7919 5.75741 57.6251 5.92421 57.3134 6.06913C57.0973 6.17167 56.7104 6.40684 56.5532 6.46426C56.4438 6.50391 56.3563 6.65704 56.292 6.60098C56.2278 6.54493 56.117 6.55176 56.0528 6.43418C55.9598 6.26191 56.1088 6.10331 56.2264 6.03222C56.3836 5.93925 56.5286 5.99667 57.0057 5.75878C57.4829 5.52088 57.9997 5.21189 58.388 5.05876C58.7763 4.90563 59.7908 4.60348 59.9411 4.57066C60.0915 4.53785 60.4169 4.50914 60.4689 4.4859C60.6132 4.4298 60.7655 4.39703 60.9201 4.38882C61.02 4.38349 61.1201 4.39084 61.2181 4.4107C61.3125 4.42027 61.3412 4.48453 61.2373 4.54058M57.1766 3.4181C57.3134 3.347 57.3516 3.51107 57.3981 3.51244C57.5421 3.52586 57.6873 3.51194 57.8261 3.47142C57.9628 3.42767 58.7831 3.01477 59.0634 2.94641C59.5419 2.83019 60.2119 2.64152 60.4457 2.65656C60.5263 2.65656 60.5304 2.71671 60.4457 2.76183C60.3609 2.80695 60.3335 2.93547 60.2611 3.00656C60.2146 3.05168 60.2337 3.19524 60.1927 3.24583C60.1691 3.27709 60.1381 3.30213 60.1027 3.3188C60.0672 3.33547 60.0282 3.34328 59.989 3.34153H59.7634C59.6663 3.34153 59.4722 3.46322 59.4025 3.47826C59.3765 3.47826 59.3095 3.42903 59.248 3.41126C59.0976 3.37024 58.5315 3.59583 58.3142 3.69291C58.0074 3.81697 57.7236 3.99167 57.4747 4.20971C57.3954 4.29312 57.3147 4.44898 57.1862 4.37652C57.0577 4.30405 57.0208 4.04155 56.9893 3.92397C56.9579 3.80639 56.9757 3.5138 57.1712 3.41946M56.4356 0.207868C56.56 0.228377 56.787 0.783467 56.9141 1.0282C56.9675 1.16172 56.9989 1.30301 57.0071 1.44657C57.0596 1.60864 57.0864 1.77796 57.0864 1.94834C57.0727 2.05908 57.1069 2.2587 57.0659 2.3585C57.0399 2.42276 56.9292 2.48565 56.9292 2.57862C56.9036 2.66428 56.8566 2.74196 56.7924 2.80421C56.7104 2.88351 56.6557 3.0968 56.6065 3.16653C56.5067 3.29505 56.2551 3.28958 56.0774 3.34153C55.9252 3.39188 55.7814 3.46469 55.6508 3.55755C55.5141 3.65463 55.2653 3.73939 55.093 3.85561C54.9631 3.94584 54.6938 4.21655 54.6145 4.28081C54.5584 4.32456 54.4654 4.39839 54.5529 4.47496C54.6404 4.55152 54.8975 4.51187 55.2366 4.66637C55.4589 4.75148 55.6498 4.90276 55.7834 5.09978C55.8053 5.12606 55.8213 5.1567 55.8303 5.18965C55.8394 5.2226 55.8413 5.2571 55.836 5.29086C55.8307 5.32462 55.8183 5.35687 55.7996 5.38545C55.7808 5.41403 55.7562 5.43829 55.7274 5.45662C55.6426 5.50857 55.5907 5.66034 55.4047 5.81073C55.3131 5.88866 55.2461 6.08417 55.0998 6.21132C54.9877 6.30703 54.5844 6.7377 54.4299 6.85391C54.3438 6.91817 54.3465 7.02482 54.4846 7.07541C54.7385 7.20381 54.9643 7.38133 55.149 7.59768C55.2858 7.8014 55.3514 8.24028 55.3787 8.59575C55.3938 8.83092 55.2338 9.18776 55.1655 9.43386C55.1313 9.55691 55.1067 9.61023 54.9494 9.58152C54.9071 9.57468 54.8373 9.47897 54.769 9.40925C54.6719 9.31081 54.5379 9.27253 54.4723 9.19733C54.4067 9.12213 54.2877 9.06061 54.2344 8.97994C54.1811 8.89928 54.177 8.43305 54.2098 8.2307C54.2319 8.09177 54.2644 7.95467 54.3068 7.82054C54.341 7.71663 54.408 7.37619 54.2809 7.35158C54.2084 7.33791 53.9391 7.48831 53.7969 7.55393C53.6426 7.62084 53.5007 7.71328 53.3771 7.82738C53.2945 7.92506 53.241 8.04395 53.2226 8.17055C53.2076 8.27309 53.1365 8.34419 53.0859 8.31821C53.0437 8.30232 52.9987 8.2951 52.9536 8.29698C52.9085 8.29886 52.8642 8.3098 52.8234 8.32914C52.7263 8.35375 52.6621 8.26488 52.55 8.22113C52.3613 8.1473 52.4474 8.20473 52.2834 8.06937C52.1822 7.98324 51.9525 7.64554 52.04 7.40764C52.0851 7.27912 52.04 7.21896 52.1767 7.09728C52.4953 6.79923 52.6211 6.63379 52.9465 6.27695C53.1483 6.05382 53.3619 5.84161 53.5863 5.64119C53.671 5.55954 53.7363 5.46006 53.7777 5.34997C53.8119 5.27204 53.9992 5.13122 53.8803 5.05192C53.8233 5.01421 53.7588 4.98951 53.6912 4.97958C53.6236 4.96966 53.5546 4.97475 53.4892 4.9945C53.3976 5.03278 53.3389 4.92751 53.2308 4.86872C53.1228 4.80992 53.0271 4.88786 52.9574 4.83317C52.8877 4.77848 52.8207 4.71969 52.7386 4.65953C52.6566 4.59937 52.5144 4.52281 52.5855 4.37925C52.6388 4.26851 52.5937 4.10581 52.714 4.02241C52.8644 3.90756 52.9697 3.79135 53.075 3.70111C53.2787 3.52747 53.8393 2.88078 54.2166 2.446C54.6131 1.99209 55.3405 0.910617 55.6248 0.620767C55.6836 0.560609 55.6577 0.418421 55.9612 0.259823C56.1084 0.187018 56.2773 0.170955 56.4356 0.214703" fill="#231F20"/>
<path fill-rule="evenodd" clip-rule="evenodd" d="M40.9416 6.76633C40.8842 6.97005 40.9211 7.13822 40.8637 7.21888C40.8337 7.25433 40.7909 7.27661 40.7447 7.28095C40.6984 7.28529 40.6523 7.27136 40.6162 7.24213C40.5197 7.1743 40.4459 7.07902 40.4043 6.96868C40.3946 6.89999 40.3969 6.83014 40.4111 6.76223M43.3958 6.76223C43.4149 6.80325 43.5051 6.78137 43.5995 6.76223H44.2052C44.2957 6.82263 44.371 6.90311 44.4253 6.99739C44.469 7.07669 44.1518 7.35697 43.9823 7.57162C43.8128 7.78628 43.1729 8.32906 43.0417 8.45895C42.9747 8.52458 43.017 8.76521 42.9665 8.79528C42.9159 8.82536 42.8461 8.79528 42.7778 8.81306C42.7432 8.81894 42.7102 8.83164 42.6807 8.85042C42.6511 8.8692 42.6255 8.89368 42.6055 8.92243C42.5795 8.97986 42.5741 9.02634 42.6247 9.05232C42.6752 9.0783 43.3698 8.74196 43.6993 8.44665C44.0495 8.13316 44.3796 7.79799 44.6878 7.44311C44.7603 7.3515 44.7767 7.0931 44.804 6.7595H45.4452C45.4534 6.81966 45.4862 6.86204 45.5327 6.85247C45.5792 6.8429 45.6079 6.79094 45.6448 6.75813H46.1439C46.2228 6.79179 46.3101 6.80038 46.3941 6.78274C46.4269 6.78274 46.4665 6.7677 46.5103 6.75813H48.449C48.4039 6.82239 48.3615 6.88391 48.3301 6.93724C48.2767 7.02747 48.1058 7.27357 48.0183 7.42943C48.0082 7.46031 48.0075 7.49353 48.0166 7.52476C48.0256 7.55599 48.0438 7.58376 48.0689 7.60444C48.1332 7.67006 48.6705 7.81499 48.9234 7.90112C48.9453 7.90933 48.9822 7.95444 49.0342 7.9353C49.0861 7.91616 49.1189 7.90386 49.1244 7.99546C49.1244 8.03921 49.4799 8.04878 49.5209 8.07886C49.6576 8.17867 50.1744 8.29488 50.3412 8.40016C50.3943 8.43308 50.4407 8.47576 50.478 8.52594C50.5162 8.57243 50.6147 8.56969 50.5996 8.63806C50.5846 8.70642 49.5865 8.95798 49.2324 8.94021C48.9213 8.93208 48.6129 8.88007 48.3164 8.78571C48.058 8.69684 47.5617 8.32086 47.4892 8.32086C47.373 8.32086 47.3853 8.34547 47.306 8.4234C47.2841 8.44254 47.2445 8.51501 47.1871 8.56969C47.1296 8.62438 46.8917 8.86091 46.8439 8.9238C46.7769 9.01541 46.621 9.04959 46.5226 9.12889C46.4515 9.18494 46.3107 9.3408 46.2273 9.40233C46.0771 9.50914 45.9194 9.60509 45.7556 9.68945C45.6353 9.74003 45.4247 9.66347 45.247 9.63749C45.1369 9.60792 45.034 9.55633 44.9445 9.48582C44.8549 9.41532 44.7806 9.32738 44.7261 9.22733C44.6728 9.12342 44.6741 8.86091 44.6481 8.70642C44.629 8.60114 44.7124 8.27984 44.6481 8.23746C44.5579 8.1773 44.5114 8.24566 44.4663 8.29351C44.3566 8.44094 44.2252 8.57093 44.0766 8.67907C43.9755 8.75017 43.9741 8.79939 43.8593 8.9115C43.7731 8.9949 43.5721 9.11385 43.4313 9.23143C43.2675 9.34298 43.0805 9.41591 42.8844 9.44471C42.7765 9.48965 42.6715 9.54125 42.57 9.59921C42.4852 9.63476 42.2145 9.73593 42.0477 9.78105C41.9424 9.81113 41.8932 9.58417 41.87 9.42694C41.8552 9.35954 41.8593 9.28936 41.882 9.2242C41.9047 9.15903 41.945 9.10143 41.9985 9.05779C42.1925 8.90912 42.3687 8.73845 42.5235 8.54919C42.5577 8.51364 42.4907 8.42887 42.4278 8.4316C42.3055 8.4404 42.1834 8.41179 42.0778 8.34957C42.2336 8.32496 42.5002 8.31539 42.5946 8.19918C42.6268 8.17105 42.6477 8.13218 42.6534 8.0898C42.6501 8.04032 42.64 7.99154 42.6233 7.94487C42.6165 7.90796 42.667 7.84507 42.6506 7.80815C42.6342 7.77124 42.5946 7.67143 42.529 7.71518C42.3566 7.83091 42.2088 7.9796 42.0942 8.15269C42.0686 8.20324 42.052 8.25782 42.045 8.31402C42.0067 8.35367 41.9342 8.31402 41.9342 8.31402C41.8098 8.44254 41.6115 8.6613 41.5131 8.74607C41.4813 8.77997 41.4406 8.80433 41.3957 8.81641C41.3508 8.82848 41.3034 8.8278 41.2588 8.81443C41.1631 8.76657 41.0975 8.56422 41.0537 8.4986C41.01 8.43297 41.0688 8.35504 41.1276 8.31813C41.2178 8.2607 41.4502 8.14039 41.5145 8.0816C41.5787 8.02281 41.8973 7.70835 41.9698 7.65092C42.0981 7.55991 42.221 7.46129 42.3375 7.3556C42.4032 7.28451 42.3211 7.19838 42.2733 7.23802C42.2634 7.24595 42.2516 7.25129 42.2392 7.25355C42.2267 7.25582 42.2138 7.25495 42.2017 7.25102C42.1897 7.24709 42.1788 7.24022 42.17 7.23103C42.1613 7.22184 42.1549 7.21062 42.1516 7.19837C42.0903 7.05355 42.0378 6.90517 41.9944 6.75403L43.3958 6.76223ZM47.4892 7.11361C47.5795 7.12728 47.816 6.99466 47.9144 6.91673C47.9855 6.86204 48.0511 6.94544 48.0115 7.01653C47.9281 7.12633 47.8505 7.24042 47.7791 7.35834C47.7714 7.38115 47.756 7.40058 47.7355 7.4133C47.7151 7.42601 47.6908 7.43124 47.667 7.42807C47.5797 7.39707 47.4952 7.35913 47.414 7.31459C47.3238 7.26263 47.4045 7.09994 47.4892 7.11361ZM45.3933 7.25033C45.4234 7.17787 45.6052 7.38705 45.7214 7.41713C45.8376 7.44721 45.9948 7.50463 46.1439 7.54701C46.3591 7.60983 46.562 7.70877 46.7441 7.8396C46.8562 7.91753 47.0039 7.94761 47.1324 8.07886C47.1526 8.10164 47.1631 8.13146 47.1616 8.16189C47.16 8.19232 47.1466 8.22093 47.1242 8.24156C47.0812 8.30777 47.0276 8.36643 46.9656 8.4152C46.7441 8.56559 46.0085 8.96209 45.9032 9.04002C45.8355 9.08091 45.757 9.10043 45.678 9.09604C45.5989 9.09165 45.5231 9.06355 45.4603 9.01541C45.3759 8.93801 45.32 8.83446 45.3017 8.72145C45.27 8.45977 45.2603 8.19587 45.273 7.93257C45.2748 7.6996 45.3155 7.46856 45.3933 7.24896M43.0157 7.35697C43.0157 7.31049 43.2522 7.20384 43.3821 7.13958C43.4923 7.07921 43.6113 7.03675 43.7348 7.0138C43.7495 7.01153 43.7645 7.01301 43.7784 7.01812C43.7923 7.02322 43.8047 7.03178 43.8144 7.04299C43.8241 7.0542 43.8308 7.06768 43.8339 7.08219C43.8369 7.09669 43.8363 7.11174 43.8319 7.12591C43.7977 7.23666 43.285 7.72475 43.1128 7.91753C43.0745 7.95854 43.0034 7.81226 42.9979 7.72065C42.9924 7.62905 43.0143 7.45678 43.0157 7.35697Z" fill="#231F20"/>
<path fill-rule="evenodd" clip-rule="evenodd" d="M40.4111 6.76633C40.4248 6.68019 40.4453 6.59132 40.4617 6.5298C40.469 6.49526 40.4841 6.46287 40.5059 6.43512C40.5277 6.40738 40.5557 6.38504 40.5875 6.36983C40.6285 6.35069 40.6928 6.36983 40.7502 6.34522C40.8772 6.19028 40.9864 6.0215 41.0756 5.84209C41.2 5.61103 41.5268 4.91785 41.6033 4.75515C41.6498 4.65534 41.8371 4.2315 41.9766 3.97173C42.0627 3.8104 42.4879 2.64416 42.693 2.35978C42.7409 2.29415 42.9583 1.83067 43.0922 1.62285C43.2262 1.41503 43.6952 0.672633 43.7759 0.654859C43.8278 0.641187 43.8634 0.730057 43.9454 0.766972C44.0014 0.794316 44.0274 0.84627 44.0821 0.847638C44.1614 0.847638 44.1655 0.970689 44.2106 1.01171C44.2558 1.05272 44.3009 1.16757 44.3474 1.20859C44.3938 1.2496 44.4171 1.31386 44.4677 1.34531C44.4978 1.3845 44.5142 1.43257 44.5142 1.48203C44.5142 1.53148 44.4978 1.57955 44.4677 1.61875C44.4034 1.70303 44.3167 1.76748 44.2175 1.80469C44.1122 1.83614 43.8825 1.84297 43.754 1.92227C43.6052 2.01775 43.4676 2.12965 43.3438 2.25587C43.1059 2.54178 42.8975 2.85097 42.7217 3.17875C42.5946 3.3975 42.1229 4.20553 41.9821 4.52272C41.9246 4.65944 41.6225 5.2993 41.5158 5.5331C41.3791 5.83662 41.0305 6.49972 40.9608 6.67882C40.9503 6.70415 40.9416 6.7302 40.9348 6.75676M41.9889 6.75676C41.9676 6.69031 41.9552 6.62136 41.952 6.55167C41.9475 6.4807 41.9592 6.40964 41.9862 6.34386C42.1274 6.06943 42.3085 5.81741 42.5235 5.59599C42.6206 5.51942 42.5631 5.44559 42.5317 5.38817C42.5002 5.33075 42.302 5.07918 42.3088 4.99441C42.3198 4.86863 42.5071 4.75652 42.6903 4.62936C42.8735 4.50221 43.0581 4.35592 43.188 4.34772C43.3178 4.33951 43.3247 4.3983 43.3315 4.40788C43.363 4.44752 43.4341 4.61296 43.4846 4.67038C43.5216 4.73017 43.5753 4.77773 43.6391 4.8071C43.6761 4.81941 43.6815 4.99578 43.6747 5.07371C43.6678 5.15164 43.4614 5.19266 43.3589 5.27196C43.3045 5.31436 43.2558 5.36352 43.2139 5.41825C43.1764 5.48246 43.1304 5.54133 43.0772 5.59325C43.0171 5.64657 43.0895 5.92685 43.0458 6.05537C43.0253 6.11279 43.1046 6.10733 43.1674 6.11006C43.2016 6.11006 43.2112 6.04854 43.2536 6.01162C43.3415 5.94327 43.4327 5.87938 43.527 5.82021C43.579 5.78876 43.5093 5.61103 43.5872 5.59325C43.6391 5.58095 43.6432 5.77373 43.6761 5.84892C43.7308 5.9629 43.7597 6.08754 43.7608 6.21397C43.7476 6.28726 43.7274 6.35913 43.7007 6.42862C43.6747 6.47921 43.3602 6.61457 43.3917 6.74992L41.9889 6.75676ZM43.5926 6.75676C43.6455 6.73916 43.701 6.73039 43.7567 6.73078C43.8497 6.73761 44.0233 6.72121 44.104 6.72121C44.1379 6.72497 44.1704 6.73719 44.1983 6.75676H43.5926ZM44.7972 6.75676C44.8163 6.45776 44.8556 6.1604 44.9148 5.86669C44.9845 5.54677 45.1376 4.51452 45.2484 4.02779C45.4037 3.48916 45.6197 2.96992 45.8923 2.4801C45.9265 2.42814 45.8923 2.37756 45.9197 2.33107C45.947 2.28458 45.9661 2.24084 46.0837 2.29416C46.1316 2.31603 46.2054 2.40627 46.2505 2.38713C46.3531 2.34474 46.1986 2.43224 46.5677 2.07266C46.8519 1.81656 47.1595 1.58769 47.4865 1.38905C47.6834 1.2414 47.8174 1.0746 47.9144 1.03084C47.9318 1.0227 47.9507 1.01831 47.9699 1.01794C47.9891 1.01758 48.0081 1.02126 48.0258 1.02874C48.0434 1.03622 48.0593 1.04733 48.0724 1.06136C48.0855 1.07538 48.0955 1.09201 48.1017 1.11015C48.1397 1.22886 48.1397 1.35647 48.1017 1.47519C48.0758 1.57226 48.0019 1.70898 47.9144 1.91543C47.8789 1.9961 47.7777 2.41037 47.697 2.63596C47.6164 2.86155 47.5316 3.3975 47.4783 3.49184C47.3976 3.62856 47.492 3.66958 47.4345 3.82271C47.4168 3.87466 47.3142 4.10846 47.2472 4.24244C47.1802 4.37643 46.9875 4.80847 46.9478 4.84539C46.9082 4.8823 46.9328 4.99851 46.9574 5.0409C47.1021 5.17102 47.2169 5.33102 47.2937 5.50985C47.3128 5.55713 47.3184 5.60881 47.3097 5.65907C47.301 5.70932 47.2784 5.75614 47.2445 5.79423C47.1912 5.86533 46.9792 5.93095 46.8589 5.99111C46.5126 6.15438 46.1794 6.34408 45.8622 6.55851C45.8157 6.59816 45.7392 6.58722 45.7597 6.51749C45.7925 6.39581 45.7515 6.01709 45.798 5.88857C45.8691 5.69579 45.8404 5.77099 45.999 5.55224C46.0824 5.43466 46.2587 5.00535 46.4501 4.7948C46.4693 4.77429 46.5076 4.66628 46.4501 4.62663C46.3927 4.58698 46.3339 4.66081 46.2697 4.68269C46.23 4.69499 46.2218 4.79343 46.1753 4.81257C46.1056 4.84128 46.0386 4.76745 45.973 4.82214C45.8966 4.92526 45.8464 5.04536 45.8267 5.17215C45.8198 5.2241 45.731 5.29383 45.7077 5.32665C45.6902 5.43466 45.6819 5.54398 45.6831 5.65341C45.6667 5.79013 45.5327 6.15655 45.4999 6.30694C45.4665 6.45178 45.4496 6.59992 45.4493 6.74855C45.45 6.754 45.45 6.75951 45.4493 6.76496L44.7972 6.75676ZM45.6366 6.75676C45.6487 6.7418 45.6656 6.73162 45.6845 6.72804C45.8211 6.7119 45.9593 6.71605 46.0947 6.74035C46.11 6.74487 46.1251 6.75035 46.1398 6.75676H45.6366ZM46.5035 6.75676C46.5742 6.73941 46.6466 6.72979 46.7195 6.72804C46.822 6.72804 47.3306 6.72804 47.5398 6.72804C47.7643 6.65375 47.9828 6.56234 48.1933 6.4546C48.403 6.31048 48.5952 6.14256 48.7662 5.9542C48.8297 5.89456 48.9072 5.8519 48.9916 5.83015C49.0759 5.80841 49.1644 5.80828 49.2488 5.82978C49.3131 5.85986 49.2748 6.054 49.175 6.12783C49.0957 6.18526 48.9016 6.28643 48.8141 6.35206C48.6693 6.47007 48.5423 6.6082 48.4367 6.76223L46.5035 6.75676ZM47.6601 1.63653C47.6834 1.74727 47.5877 2.15607 47.4728 2.50607C47.358 2.85608 47.3361 2.97229 47.2294 3.29086C47.1843 3.42758 47.0927 3.36742 47.0394 3.42758C46.9861 3.48774 47.1119 3.37699 46.8617 3.62172C46.7099 3.76938 46.3886 3.96627 46.3025 4.06334C46.2574 4.11392 46.1575 4.08795 46.1398 3.98951C46.1291 3.90517 46.1241 3.82021 46.1247 3.7352C46.1423 3.62755 46.1808 3.52441 46.2382 3.43168C46.2866 3.3068 46.3166 3.17554 46.3271 3.04203C46.3271 2.82054 46.5691 2.52385 46.7537 2.30372C46.9382 2.0836 47.6601 1.63926 47.6601 1.63926M46.5048 5.10789C46.6033 5.0368 46.5937 5.22547 46.6867 5.20633C46.7427 5.19539 46.7906 5.1243 46.8302 5.07918C46.8699 5.03406 46.9123 5.01082 46.9478 5.17762C46.9642 5.26922 46.982 5.35536 46.93 5.41825C46.8507 5.51532 46.4009 5.67939 46.3216 5.71083C46.2656 5.73271 46.2492 5.75732 46.2259 5.64521C46.1945 5.50028 46.3626 5.42372 46.3708 5.35809C46.3729 5.3087 46.3864 5.26045 46.4101 5.21707C46.4338 5.17369 46.4671 5.13633 46.5076 5.10789M42.6083 6.27139C42.6807 6.26182 42.7094 6.3671 42.6506 6.45323C42.6124 6.51066 42.5016 6.5421 42.4756 6.50929C42.4332 6.4546 42.4756 6.40538 42.5358 6.36026C42.5959 6.31515 42.5549 6.27686 42.6083 6.27139ZM43.8141 2.39943C43.8606 2.30099 44.1792 2.28048 44.3227 2.30646C44.4663 2.33244 44.6071 2.58811 44.6563 2.70842C44.7024 2.80413 44.7231 2.91005 44.7165 3.01605C44.6837 3.09945 44.5497 3.09945 44.4157 3.135C44.3284 3.16201 44.2434 3.19584 44.1614 3.23617C44.054 3.29836 43.9548 3.37368 43.8661 3.46039C43.8417 3.48321 43.8128 3.50061 43.7812 3.51145C43.7496 3.52229 43.7161 3.52632 43.6829 3.52328C43.6569 3.52328 43.6583 3.44125 43.7034 3.3934C43.8074 3.26976 43.8667 3.11465 43.8716 2.95315C43.8304 2.8839 43.8073 2.80537 43.8046 2.72483C43.7866 2.61677 43.7898 2.50624 43.8141 2.39943Z" fill="#231F20"/>
<path fill-rule="evenodd" clip-rule="evenodd" d="M25.3725 8.22933C25.4122 8.22933 25.4368 8.26214 25.4505 8.32777C25.4669 8.41801 25.4505 8.41801 25.4669 8.49594C25.4833 8.57387 25.4505 8.59301 25.4669 8.65727C25.4797 8.72347 25.4857 8.79082 25.4846 8.85825C25.5019 8.9719 25.4982 9.08775 25.4737 9.20006C25.4477 9.28346 25.4737 9.30944 25.4737 9.3942C25.4737 9.47897 25.4272 9.59382 25.4176 9.71003C25.4081 9.82624 25.5052 9.90554 25.5038 10.0218C25.5038 10.0929 25.4723 10.0915 25.4067 10.0833C25.37 10.081 25.3345 10.0697 25.3033 10.0504C25.272 10.0311 25.246 10.0043 25.2276 9.97254C25.1806 9.86912 25.1466 9.76028 25.1264 9.6485C25.1264 9.57194 25.151 9.42838 25.1633 9.33815C25.1664 9.23687 25.1632 9.13551 25.1538 9.03462C25.1538 8.92525 25.2905 8.81177 25.2905 8.69965C25.2905 8.58754 25.2659 8.57797 25.2686 8.44125C25.2714 8.30453 25.3219 8.22933 25.3725 8.22933ZM26.4362 3.20617C26.4362 3.13508 26.6892 2.97785 26.8149 2.89445C26.9407 2.81105 27.0228 2.71261 27.1212 2.65928C27.2326 2.60757 27.3571 2.59134 27.478 2.6128C27.6066 2.621 27.7638 2.54991 27.8322 2.63604C27.9005 2.72218 27.8773 2.77276 27.8554 2.86847C27.6917 3.17253 27.5023 3.46206 27.2894 3.73392C27.1048 3.95541 26.6468 4.48042 26.6058 4.50777C26.5647 4.53511 26.5114 4.46128 26.4978 4.3519C26.4807 4.27721 26.4807 4.19963 26.4978 4.12494C26.5251 4.06752 26.4978 4.03061 26.48 3.97592C26.4425 3.83491 26.4227 3.68978 26.4212 3.54387C26.4373 3.43204 26.4451 3.31916 26.4444 3.20617M23.3655 5.06969C23.3819 5.03004 23.5541 4.94254 23.6321 4.87828C23.6868 4.8359 23.8207 4.74156 23.8741 4.70054C23.9589 4.62657 24.0504 4.56067 24.1475 4.50366C24.2118 4.45855 24.3034 4.4271 24.3143 4.56382C24.328 4.72515 24.3143 5.015 24.3143 5.11891C24.3129 5.19087 24.3032 5.26242 24.2856 5.3322C24.2881 5.38544 24.2987 5.43799 24.317 5.48806C24.3239 5.53318 24.3075 5.54685 24.2952 5.62478C24.2952 5.67674 24.3266 5.75467 24.2801 5.84491C24.1795 5.97388 24.0528 6.08012 23.9082 6.15663C23.8303 6.18124 23.8836 6.04042 23.7551 5.94745C23.6606 5.86106 23.5868 5.75452 23.5391 5.63572C23.4694 5.52224 23.4899 5.46619 23.4024 5.36228C23.3661 5.32138 23.3433 5.27026 23.3372 5.21593C23.3311 5.1616 23.3419 5.1067 23.3682 5.05876M21.7412 3.49466C21.8205 3.47005 21.975 3.7681 22.1281 3.939C22.2812 4.10991 22.5082 4.30815 22.5561 4.34917C22.6039 4.39019 22.7283 4.57749 22.7734 4.57886C22.7967 4.57886 22.9444 4.45171 23.0674 4.36831C23.1905 4.28491 23.4912 4.07709 23.5815 4.0183C23.6717 3.95951 23.8795 3.80638 24.0176 3.69974C24.1557 3.5931 24.4579 3.39895 24.4688 3.37024C24.4702 3.29745 24.4836 3.2254 24.5084 3.15695C24.5372 3.07902 24.4743 3.04347 24.4715 3.02844C24.4812 2.96744 24.4949 2.90715 24.5126 2.84796C24.5276 2.75089 24.5043 2.55128 24.5126 2.51163C24.5408 2.38671 24.5577 2.2595 24.5631 2.13154C24.5614 2.02329 24.5669 1.91503 24.5795 1.80751C24.6445 1.61452 24.6673 1.40986 24.6465 1.2073C24.6137 1.0803 24.6105 0.947472 24.637 0.81901C24.6976 0.624194 24.8029 0.446267 24.9446 0.299468C24.9986 0.262619 25.0644 0.247239 25.1291 0.256342C25.1939 0.265445 25.2529 0.298375 25.2946 0.348686C25.39 0.413113 25.4814 0.483434 25.568 0.559239C25.6733 0.667249 25.8702 0.909247 25.9386 0.969405C26.0989 1.13947 26.2495 1.3184 26.3897 1.50535C26.4778 1.64043 26.5356 1.79294 26.5593 1.95244C26.5771 2.08232 26.5497 2.25049 26.6358 2.26689C26.7616 2.2915 27.0036 2.08232 27.3919 2.00849C27.7095 1.97127 28.0296 1.96029 28.349 1.97568C28.472 1.97568 28.7113 1.96611 28.7304 2.02353C28.7673 2.1288 28.7031 2.44873 28.5458 2.80558C28.4554 3.01811 28.3281 3.21297 28.1699 3.38118C28.0331 3.54798 28.0195 3.65462 27.7816 3.96498C27.5437 4.27534 27.098 4.70738 27.1841 4.79215C27.2702 4.87691 27.4876 4.7566 27.5245 4.92887C27.5546 5.06559 27.4056 5.15309 27.3523 5.28845C27.2798 5.47576 27.3222 5.61111 27.154 5.69861C26.9858 5.78611 26.9065 5.74647 26.8095 5.81073C26.6919 5.88729 26.7384 6.08417 26.6618 6.22089C26.5251 6.46972 26.5976 6.71035 26.5169 6.9127C26.4419 7.07549 26.378 7.24312 26.3255 7.41447C26.3036 7.48283 26.2544 7.83147 26.227 7.95315C26.1997 8.07484 26.1245 8.14046 26.1218 8.17874C26.1136 8.28539 26.0602 8.5602 26.0643 8.58891C26.0684 8.61762 25.9987 8.67915 26.0042 8.75025C26.0097 8.82134 25.9413 8.9772 25.929 9.09068C25.8977 9.34246 25.9014 9.59735 25.9399 9.84812C25.9622 9.97413 25.942 10.104 25.8825 10.2173C25.8593 10.2774 25.7663 10.2911 25.7007 10.3102C25.635 10.3294 25.635 10.4059 25.5913 10.421C25.5475 10.436 25.4641 10.3827 25.4395 10.421C25.3889 10.5099 25.337 10.6192 25.2714 10.6247C25.2057 10.6302 25.1811 10.5905 25.162 10.488C25.162 10.4606 25.0909 10.4538 25.0799 10.3964C25.0608 10.3034 25.0403 10.3608 24.9583 10.2091C24.8899 10.0819 24.9487 10.0382 24.9405 9.92468C24.9405 9.83718 24.8188 9.75925 24.8489 9.61979C24.8557 9.50363 24.8488 9.38707 24.8284 9.27252C24.812 9.1358 24.8051 9.03189 24.8051 8.99907C24.7947 8.93066 24.7947 8.86105 24.8051 8.79263C24.8067 8.6643 24.7929 8.53624 24.7641 8.41117C24.7641 8.34555 24.7395 8.30043 24.6889 8.30043C24.6383 8.30043 24.6247 8.32367 24.6028 8.42621C24.5811 8.57058 24.5774 8.71708 24.5918 8.86235C24.6028 8.9772 24.6766 9.30123 24.6807 9.40924C24.6889 9.54596 24.6739 9.48171 24.6807 9.66901C24.693 9.81856 24.7182 9.96677 24.7559 10.112C24.7901 10.2364 24.8612 10.2323 24.8844 10.3184C24.9014 10.3953 24.929 10.4694 24.9665 10.5386C25.0075 10.6069 25.1647 10.6438 25.1442 10.6835C25.1237 10.7231 25.0526 10.8202 25.0006 10.8312C24.8954 10.8421 24.7067 10.6261 24.6684 10.5331C24.6001 10.3636 24.5549 9.75788 24.5194 9.53776C24.4579 9.16861 24.395 9.00455 24.3499 8.59165C24.3047 8.17875 24.2008 7.04942 24.2036 6.81426C24.2106 6.76534 24.198 6.71561 24.1686 6.67591C24.1391 6.63622 24.0952 6.60977 24.0463 6.60234C24.0074 6.60484 23.9705 6.62036 23.9415 6.6464C23.9124 6.67244 23.893 6.70749 23.8864 6.7459C23.8864 6.83614 23.9014 7.04942 23.8057 7.08771C23.71 7.12599 23.1754 6.96329 22.7447 6.67754C22.042 6.21269 21.7877 5.06285 21.6756 4.84136C21.517 4.54194 21.5129 3.91986 21.5457 3.79954C21.5785 3.67923 21.6264 3.53431 21.7453 3.49876" fill="#231F20"/>
</g>
<defs>
<clipPath id="clip0_7161_268519">
<rect width="61.3033" height="17.35" fill="white"/>
</clipPath>
</defs>
</svg>
