<svg width="43" height="18" viewBox="0 0 43 18" fill="none" xmlns="http://www.w3.org/2000/svg">
<g clip-path="url(#clip0_7161_268505)">
<path d="M42.9086 0H0V17.35H42.9086V0Z" fill="#009CBC"/>
<path d="M21.0878 8.41812C22.2187 8.14957 22.7856 7.53788 22.7886 6.58304C22.7886 5.23553 21.8499 4.56267 19.9724 4.56446H16.5332V12.7838H20.3824C22.2211 12.7838 23.1395 12.0555 23.1377 10.5987C23.1377 9.41951 22.4559 8.69264 21.0923 8.41812M18.5384 5.36652H19.8542C20.5704 5.36652 21.1075 5.80246 21.1075 6.67166C21.1075 7.61158 20.5919 8.08333 19.9151 8.08333H18.5366L18.5384 5.36652ZM19.865 11.9782H18.5339V8.88092H19.9939C20.9076 8.88092 21.3653 9.43204 21.3671 10.5343C21.3671 11.4984 20.7503 11.9782 19.8605 11.9782" fill="white"/>
<path d="M27.2908 7.56231C26.3061 7.21946 25.8639 6.62686 25.8639 6.15064C25.8584 5.97594 25.9028 5.80329 25.9919 5.65293L26.068 5.55177C26.1974 5.41723 26.3622 5.32197 26.5433 5.27696C28.3551 4.82222 29.6325 6.92674 29.6325 6.92674V5.19729C28.8779 4.68705 27.9228 4.58142 27.4009 4.56531H27.1153C26.3324 4.58679 25.6941 4.80402 25.2006 5.21698C24.6796 5.65323 24.4197 6.22732 24.4209 6.93927C24.4209 8.20145 25.291 8.93548 26.8486 9.50928C27.9228 9.90852 28.3748 10.5566 28.3748 11.0848C28.3898 11.2621 28.3511 11.4399 28.2638 11.595C28.1271 11.7681 27.9391 11.8934 27.7267 11.9531C25.9489 12.4705 24.6877 10.408 24.6877 10.408V12.1939C25.428 12.6629 26.3392 12.765 26.845 12.7802H27.1601H27.2263H27.221H27.2612H27.2657C28.1537 12.7802 28.8618 12.551 29.3953 12.0972C29.9288 11.6433 30.1938 11.0391 30.1938 10.2863C30.1938 9.00262 29.1921 8.21846 27.2881 7.56231" fill="white"/>
<path d="M37.2984 4.56531H37.156V10.3928L33.2898 4.56531H31.7842V12.7838H32.5827H32.725V7.37432L36.2788 12.7838H38.0969V4.56531H37.2984Z" fill="white"/>
<path d="M12.6635 9.70263C12.6942 9.88214 12.7912 10.0436 12.9353 10.155C13.0794 10.2664 13.26 10.3197 13.4415 10.3042C13.623 10.2888 13.792 10.2058 13.9153 10.0717C14.0385 9.9376 14.1068 9.76211 14.1068 9.57999C14.1068 9.39786 14.0385 9.22237 13.9153 9.08825C13.792 8.95413 13.623 8.87115 13.4415 8.85573C13.26 8.84031 13.0794 8.89357 12.9353 9.00499C12.7912 9.1164 12.6942 9.27784 12.6635 9.45735C12.2911 9.4475 10.6422 9.47167 9.55373 10.7419C9.55373 10.707 9.54925 10.6712 9.54657 10.6363C9.67726 9.90493 10.2135 8.3205 12.4111 8.05105C12.4801 8.21265 12.6061 8.34324 12.7651 8.41797C12.9241 8.49271 13.1051 8.50637 13.2735 8.45635C13.442 8.40634 13.5861 8.29614 13.6786 8.14673C13.7711 7.99732 13.8054 7.81913 13.775 7.64607C13.7447 7.473 13.6517 7.31714 13.5139 7.20815C13.3761 7.09915 13.203 7.04463 13.0276 7.05496C12.8522 7.06528 12.6867 7.13974 12.5626 7.26415C12.4385 7.38857 12.3645 7.55426 12.3547 7.72969V7.73864C12.0056 7.76729 10.3853 7.96691 9.47316 9.12972C9.47316 9.04021 9.466 8.95516 9.46331 8.87012C9.59757 8.30592 9.86715 7.78289 10.2488 7.3462C10.6304 6.90951 11.1126 6.57229 11.6538 6.36368C11.7274 6.52059 11.8555 6.64545 12.0142 6.71512C12.1729 6.78478 12.3515 6.79452 12.5169 6.74251C12.6822 6.6905 12.8231 6.58029 12.9134 6.43231C13.0037 6.28433 13.0372 6.10863 13.0078 5.93781C12.9783 5.76699 12.888 5.61264 12.7534 5.50339C12.6188 5.39414 12.4492 5.33741 12.276 5.34372C12.1027 5.35003 11.9377 5.41896 11.8114 5.53771C11.6851 5.65647 11.6062 5.81699 11.5893 5.9895C11.5876 6.01931 11.5876 6.0492 11.5893 6.07901C10.7237 6.30818 10.0264 6.84975 9.5958 7.26242C9.6146 7.03863 9.76498 5.66814 10.61 4.95201C10.6674 5.03601 10.7424 5.10656 10.8297 5.1588C10.917 5.21103 11.0146 5.24371 11.1158 5.25457C11.2563 5.27016 11.3982 5.24383 11.5238 5.1789C11.6493 5.11396 11.7528 5.01333 11.8213 4.88967C11.8897 4.76601 11.9201 4.62486 11.9085 4.484C11.8969 4.34313 11.8438 4.20885 11.7561 4.09807C11.6683 3.98729 11.5497 3.90496 11.4152 3.86145C11.2807 3.81795 11.1364 3.81521 11.0003 3.85359C10.8643 3.89196 10.7427 3.96974 10.6507 4.07711C10.5588 4.18449 10.5007 4.31666 10.4838 4.45698C10.4755 4.53101 10.4785 4.60587 10.4927 4.67898C10.0185 4.99732 9.63486 5.4331 9.37917 5.94385C9.23684 4.84996 9.5027 4.10787 9.67368 3.76413C9.75931 3.81358 9.85454 3.84411 9.95297 3.85365C10.118 3.87168 10.2841 3.83227 10.4235 3.74207C10.5628 3.65187 10.6668 3.51639 10.7178 3.35847C10.7689 3.20055 10.764 3.02984 10.7039 2.87513C10.6438 2.72042 10.5322 2.59116 10.3879 2.50915C10.2436 2.42714 10.0754 2.39738 9.91172 2.42491C9.74804 2.45243 9.59885 2.53555 9.48931 2.66024C9.37977 2.78494 9.31657 2.94359 9.31037 3.10945C9.30416 3.27532 9.35534 3.43824 9.45526 3.57077C9.31024 3.78539 9.19801 4.02041 9.12226 4.26811C9.04651 4.02041 8.93428 3.78539 8.78926 3.57077C8.88789 3.43902 8.93813 3.27732 8.93152 3.11287C8.92492 2.94842 8.86187 2.79127 8.75299 2.66785C8.64411 2.54443 8.49605 2.46229 8.33371 2.43523C8.17137 2.40817 8.00466 2.43785 7.86164 2.51929C7.71862 2.60072 7.60801 2.72893 7.54842 2.88235C7.48884 3.03576 7.48391 3.20502 7.53448 3.36164C7.58505 3.51826 7.68802 3.65268 7.82606 3.74229C7.96411 3.8319 8.12881 3.87122 8.29244 3.85365C8.39087 3.84411 8.4861 3.81358 8.57174 3.76413C8.73824 4.1016 8.99694 4.81773 8.8743 5.87671H8.86535C8.86535 5.87671 8.86535 5.90446 8.86535 5.95906C8.86535 5.98592 8.85819 6.01367 8.85461 6.03963C8.60112 5.48836 8.20065 5.01758 7.69716 4.67898C7.71064 4.60577 7.71336 4.53098 7.70522 4.45698C7.68833 4.31672 7.63032 4.18459 7.53851 4.07722C7.4467 3.96984 7.32518 3.89202 7.18924 3.85355C7.0533 3.81508 6.90902 3.81768 6.77456 3.86102C6.64009 3.90435 6.52145 3.98649 6.43356 4.0971C6.34567 4.20771 6.29246 4.34184 6.28062 4.48262C6.26878 4.6234 6.29885 4.76454 6.36704 4.88827C6.43523 5.012 6.53849 5.11279 6.66383 5.17797C6.78917 5.24316 6.93099 5.26981 7.07145 5.25457C7.17302 5.24385 7.27106 5.21125 7.35884 5.15902C7.44661 5.10679 7.52202 5.03617 7.5799 4.95201C8.42224 5.66814 8.57442 7.03863 8.59322 7.26242C8.16265 6.84975 7.46621 6.30818 6.5997 6.07901C6.5997 6.04768 6.5997 6.01814 6.5997 5.9895C6.58357 5.81429 6.50436 5.6509 6.3768 5.52972C6.24924 5.40853 6.08201 5.3378 5.90621 5.33066C5.73041 5.32353 5.558 5.38049 5.42104 5.49094C5.28408 5.60139 5.1919 5.75782 5.16163 5.93115C5.13136 6.10447 5.16506 6.28289 5.25648 6.43323C5.34789 6.58356 5.49079 6.69558 5.65861 6.74846C5.82642 6.80133 6.00773 6.79147 6.16881 6.72069C6.32989 6.64991 6.45979 6.52305 6.53435 6.36368C7.09728 6.58109 7.59614 6.93726 7.98457 7.39909C8.373 7.86092 8.63841 8.41343 8.75614 9.00529C8.75614 9.06079 8.75077 9.11719 8.74808 9.17448C7.85292 7.97049 6.18434 7.76371 5.83165 7.73506V7.72611C5.82283 7.54706 5.7484 7.37752 5.62255 7.24985C5.4967 7.12218 5.32826 7.04531 5.14935 7.03391C4.97044 7.02252 4.7936 7.07739 4.65258 7.18807C4.51155 7.29874 4.41621 7.45747 4.38475 7.63395C4.35328 7.81044 4.3879 7.99233 4.482 8.14492C4.57609 8.29751 4.72307 8.41012 4.89489 8.46125C5.06672 8.51238 5.25135 8.49846 5.41356 8.42214C5.57578 8.34582 5.70421 8.21245 5.77436 8.04747C8.12236 8.33661 8.57442 10.126 8.65946 10.7714C7.56916 9.46988 5.89521 9.44392 5.5264 9.45377C5.49569 9.27594 5.39937 9.11611 5.25649 9.00587C5.11361 8.89564 4.93457 8.84302 4.75476 8.85844C4.57496 8.87385 4.40749 8.95616 4.28545 9.08911C4.16342 9.22205 4.0957 9.39595 4.0957 9.57641C4.0957 9.75687 4.16342 9.93076 4.28545 10.0637C4.40749 10.1966 4.57496 10.279 4.75476 10.2944C4.93457 10.3098 5.11361 10.2572 5.25649 10.1469C5.39937 10.0367 5.49569 9.87687 5.5264 9.69904C6.05441 9.7362 6.57068 9.87256 7.04817 10.101C6.5777 10.167 6.14154 10.3844 5.80569 10.7204C5.66897 10.6343 5.50732 10.5965 5.34658 10.613C5.18584 10.6296 5.03529 10.6995 4.919 10.8117C4.80271 10.9239 4.7274 11.0719 4.7051 11.2319C4.6828 11.392 4.71481 11.5549 4.796 11.6946C4.87719 11.8343 5.00289 11.9427 5.15298 12.0026C5.30307 12.0625 5.46891 12.0703 5.62396 12.0248C5.77902 11.9793 5.91434 11.8831 6.0083 11.7517C6.10226 11.6202 6.14943 11.461 6.14227 11.2996C6.13508 11.1586 6.08788 11.0226 6.00621 10.9075C6.82975 10.2514 7.57005 10.5244 7.82338 10.6533C8.08214 10.9096 8.28884 11.2136 8.43209 11.5484C7.98988 11.2871 7.54409 11.5484 7.31672 11.7275C7.21562 11.6746 7.10321 11.6469 6.98909 11.6469C6.82754 11.6465 6.67052 11.7004 6.54326 11.7999C6.41601 11.8994 6.32588 12.0388 6.28737 12.1957C6.24885 12.3526 6.26418 12.5179 6.33089 12.6651C6.3976 12.8122 6.51182 12.9327 6.65521 13.0071C6.79859 13.0815 6.96284 13.1056 7.12156 13.0755C7.28028 13.0454 7.42428 12.9628 7.53043 12.841C7.63658 12.7192 7.69872 12.5653 7.70688 12.4039C7.71504 12.2426 7.66874 12.0831 7.57542 11.9513C8.25127 11.5592 8.5037 12.1992 8.5601 12.3988C8.47506 13.4999 8.3739 14.3816 8.25306 14.6708C8.51108 14.8305 8.80851 14.9151 9.11196 14.9151C9.41541 14.9151 9.71285 14.8305 9.97087 14.6708C9.84823 14.3727 9.7435 13.4498 9.65667 12.3058C9.75424 12.0542 10.0219 11.6066 10.6127 11.9477C10.527 12.07 10.4808 12.2155 10.4802 12.3648C10.4813 12.5062 10.5242 12.6442 10.6035 12.7612C10.6828 12.8783 10.7951 12.9692 10.926 13.0226C11.0569 13.076 11.2008 13.0894 11.3393 13.0612C11.4779 13.0329 11.605 12.9643 11.7046 12.8639C11.8042 12.7636 11.8719 12.636 11.8991 12.4972C11.9263 12.3584 11.9118 12.2147 11.8574 12.0842C11.8031 11.9536 11.7113 11.8421 11.5936 11.7637C11.476 11.6852 11.3378 11.6433 11.1963 11.6433C11.0819 11.6432 10.9692 11.6709 10.8678 11.7239C10.6405 11.5449 10.1956 11.2808 9.75335 11.5449C9.89595 11.2099 10.1024 10.9058 10.3612 10.6497C10.6145 10.5199 11.3557 10.2451 12.1792 10.903C12.0972 11.018 12.05 11.1541 12.0432 11.2951C12.0361 11.4563 12.0833 11.6152 12.1772 11.7464C12.2711 11.8777 12.4062 11.9736 12.5611 12.019C12.7159 12.0644 12.8815 12.0565 13.0314 11.9967C13.1812 11.937 13.3067 11.8287 13.3878 11.6891C13.4689 11.5496 13.5008 11.387 13.4786 11.2272C13.4564 11.0674 13.3812 10.9196 13.2651 10.8076C13.149 10.6955 12.9987 10.6256 12.8382 10.609C12.6777 10.5923 12.5163 10.63 12.3797 10.7159C12.0436 10.3803 11.6076 10.1629 11.1373 10.0965C11.6147 9.86798 12.131 9.73162 12.659 9.69457M13.3752 9.28369C13.4527 9.28626 13.5262 9.31925 13.5796 9.37554C13.633 9.43182 13.6622 9.50687 13.6607 9.58446C13.6589 9.64203 13.6402 9.69778 13.6068 9.7447C13.5734 9.79162 13.5268 9.8276 13.473 9.84812C13.4192 9.86864 13.3605 9.87278 13.3043 9.86001C13.2482 9.84724 13.1971 9.81814 13.1574 9.77637C13.1178 9.73461 13.0913 9.68204 13.0815 9.62529C13.0717 9.56854 13.0788 9.51015 13.1021 9.45748C13.1254 9.4048 13.1638 9.36019 13.2123 9.32926C13.2609 9.29834 13.3176 9.28248 13.3752 9.28369ZM13.0959 7.48352C13.1537 7.4868 13.2092 7.50714 13.2554 7.54198C13.3017 7.57682 13.3365 7.62459 13.3556 7.67924C13.3747 7.73389 13.3772 7.79298 13.3627 7.84903C13.3482 7.90508 13.3174 7.95557 13.2742 7.99413C13.2311 8.03268 13.1774 8.05757 13.1201 8.06563C13.0627 8.0737 13.0043 8.06458 12.9522 8.03944C12.9 8.0143 12.8565 7.97426 12.8271 7.92438C12.7977 7.8745 12.7838 7.81703 12.787 7.75923C12.7891 7.72081 12.7987 7.68317 12.8154 7.64849C12.832 7.6138 12.8554 7.58275 12.8841 7.55713C12.9128 7.53151 12.9463 7.51181 12.9826 7.49918C13.019 7.48654 13.0575 7.48122 13.0959 7.48352ZM12.3404 5.77645C12.398 5.78203 12.4527 5.80457 12.4975 5.84122C12.5423 5.87788 12.5752 5.92699 12.5921 5.98237C12.609 6.03774 12.6091 6.09688 12.5924 6.1523C12.5757 6.20773 12.5429 6.25696 12.4982 6.29376C12.4535 6.33056 12.3989 6.35329 12.3413 6.35906C12.2837 6.36484 12.2257 6.3534 12.1746 6.3262C12.1235 6.299 12.0816 6.25725 12.0542 6.20624C12.0269 6.15523 12.0152 6.09725 12.0208 6.03963C12.0285 5.96244 12.0664 5.89144 12.1263 5.84213C12.1862 5.79282 12.2631 5.76921 12.3404 5.77645ZM10.9126 4.51696C10.9192 4.45959 10.9426 4.40547 10.98 4.36145C11.0174 4.31742 11.0669 4.28547 11.1225 4.26963C11.178 4.2538 11.237 4.25479 11.2919 4.27249C11.3469 4.29018 11.3954 4.32379 11.4312 4.36905C11.4671 4.41431 11.4887 4.46919 11.4934 4.52674C11.498 4.5843 11.4855 4.64194 11.4574 4.69237C11.4293 4.74281 11.3868 4.78377 11.3354 4.81006C11.284 4.83636 11.2259 4.84682 11.1686 4.84011C11.0919 4.83091 11.022 4.79178 10.974 4.73125C10.9261 4.67073 10.904 4.5937 10.9126 4.51696ZM9.7426 3.11693C9.7463 3.07873 9.75751 3.04164 9.7756 3.0078C9.79368 2.97395 9.81829 2.94402 9.84799 2.91972C9.8777 2.89543 9.91191 2.87725 9.94867 2.86623C9.98543 2.85522 10.024 2.85159 10.0622 2.85554C10.1201 2.86101 10.1752 2.88359 10.2203 2.9204C10.2653 2.95721 10.2985 3.0066 10.3155 3.06228C10.3324 3.11797 10.3324 3.17744 10.3155 3.23315C10.2986 3.28885 10.2655 3.33827 10.2205 3.37513C10.1754 3.41198 10.1204 3.43461 10.0625 3.44014C10.0045 3.44567 9.94623 3.43385 9.89501 3.40617C9.8438 3.3785 9.80196 3.33623 9.77483 3.28473C9.74769 3.23322 9.73647 3.17482 9.7426 3.11693ZM8.25127 3.43919C8.19345 3.44579 8.13498 3.43506 8.08327 3.40837C8.03157 3.38168 7.98896 3.34023 7.96085 3.28928C7.93275 3.23832 7.92042 3.18017 7.92543 3.12219C7.93044 3.06422 7.95256 3.00904 7.98899 2.96366C8.02541 2.91829 8.07451 2.88476 8.13002 2.86733C8.18554 2.84991 8.24499 2.84937 8.30081 2.86579C8.35664 2.88222 8.40632 2.91486 8.44356 2.95957C8.4808 3.00428 8.50392 3.05905 8.50997 3.11693C8.51754 3.1938 8.49471 3.27059 8.44635 3.33082C8.39799 3.39106 8.32796 3.42996 8.25127 3.43919ZM7.0249 4.84011C6.96734 4.84667 6.90913 4.836 6.85764 4.80945C6.80616 4.78291 6.7637 4.74168 6.73565 4.691C6.70761 4.64031 6.69523 4.58244 6.70009 4.52472C6.70495 4.46699 6.72683 4.41201 6.76295 4.36672C6.79908 4.32144 6.84783 4.28789 6.90303 4.27033C6.95824 4.25277 7.01741 4.25198 7.07306 4.26807C7.12871 4.28416 7.17834 4.31639 7.21566 4.3607C7.25298 4.405 7.27631 4.45939 7.2827 4.51696C7.28718 4.55514 7.28405 4.59382 7.27349 4.63078C7.26293 4.66774 7.24515 4.70224 7.22118 4.73229C7.19721 4.76234 7.16752 4.78734 7.13383 4.80584C7.10014 4.82435 7.06312 4.836 7.0249 4.84011ZM5.91042 6.36189C5.8528 6.36746 5.79482 6.35582 5.74381 6.32844C5.6928 6.30106 5.65105 6.25917 5.62385 6.20807C5.59665 6.15696 5.58521 6.09894 5.59099 6.04134C5.59676 5.98373 5.61949 5.92913 5.65629 5.88444C5.69309 5.83976 5.74232 5.80698 5.79775 5.79027C5.85317 5.77356 5.91231 5.77366 5.96768 5.79056C6.02306 5.80745 6.07217 5.84039 6.10883 5.8852C6.14548 5.93002 6.16802 5.98469 6.1736 6.04231C6.17743 6.0806 6.17364 6.11926 6.16247 6.15608C6.1513 6.1929 6.13295 6.22715 6.10849 6.25685C6.08403 6.28655 6.05394 6.31112 6.01995 6.32915C5.98595 6.34717 5.94873 6.3583 5.91042 6.36189ZM5.12895 8.06358C5.0711 8.06721 5.01347 8.05359 4.96338 8.02443C4.91328 7.99527 4.87297 7.95189 4.84755 7.8998C4.82214 7.84771 4.81276 7.78924 4.8206 7.73181C4.82845 7.67438 4.85317 7.62057 4.89164 7.57721C4.9301 7.53384 4.98057 7.50287 5.03665 7.48823C5.09273 7.47358 5.1519 7.47591 5.20666 7.49493C5.26141 7.51394 5.30929 7.54879 5.34422 7.59504C5.37915 7.6413 5.39956 7.69689 5.40287 7.75476C5.40517 7.79302 5.39991 7.83137 5.38739 7.8676C5.37487 7.90383 5.35533 7.93724 5.32989 7.96592C5.30445 7.9946 5.27361 8.01799 5.23914 8.03475C5.20466 8.0515 5.16722 8.0613 5.12895 8.06358ZM4.82101 9.87808C4.78261 9.87903 4.7444 9.87239 4.70858 9.85854C4.67275 9.84469 4.64001 9.82391 4.61223 9.79738C4.58445 9.77085 4.56219 9.73909 4.54671 9.70394C4.53123 9.66879 4.52284 9.63092 4.52203 9.59252C4.52081 9.53486 4.5367 9.47813 4.5677 9.4295C4.59869 9.38086 4.64341 9.3425 4.69619 9.31926C4.74897 9.29602 4.80746 9.28894 4.86426 9.29892C4.92106 9.30889 4.97364 9.33548 5.01534 9.37531C5.05705 9.41514 5.08602 9.46644 5.09859 9.52272C5.11116 9.57901 5.10678 9.63776 5.08598 9.69155C5.06519 9.74535 5.02893 9.79177 4.98177 9.82497C4.93461 9.85817 4.87867 9.87665 4.82101 9.87808ZM6.9873 12.6755C6.92923 12.6756 6.87241 12.6586 6.82403 12.6265C6.77565 12.5944 6.73787 12.5486 6.71549 12.495C6.6931 12.4414 6.68711 12.3824 6.69826 12.3254C6.70942 12.2684 6.73722 12.216 6.77816 12.1749C6.8191 12.1337 6.87133 12.1055 6.92825 12.094C6.98517 12.0825 7.04422 12.0882 7.09794 12.1102C7.15166 12.1323 7.19763 12.1698 7.23004 12.218C7.26245 12.2662 7.27984 12.3229 7.28002 12.3809C7.28025 12.4195 7.27286 12.4578 7.25825 12.4935C7.24365 12.5292 7.22212 12.5617 7.19492 12.5891C7.16772 12.6165 7.13537 12.6382 7.09973 12.653C7.0641 12.6678 7.02589 12.6755 6.9873 12.6755ZM11.4935 12.3809C11.4935 12.4387 11.4764 12.4951 11.4444 12.5431C11.4123 12.5911 11.3667 12.6285 11.3134 12.6506C11.2601 12.6726 11.2014 12.6784 11.1448 12.6672C11.0882 12.6559 11.0362 12.6281 10.9954 12.5873C10.9546 12.5465 10.9268 12.4945 10.9155 12.4379C10.9042 12.3813 10.91 12.3226 10.9321 12.2693C10.9542 12.2159 10.9916 12.1704 11.0396 12.1383C11.0876 12.1062 11.144 12.0891 11.2017 12.0891C11.279 12.0896 11.3529 12.1205 11.4075 12.1751C11.4622 12.2297 11.4931 12.3037 11.4935 12.3809ZM9.4105 7.45756L9.42482 7.44682L9.4105 7.46114V7.45756ZM8.7633 7.44682L8.81522 7.488V7.49695L8.7633 7.44682ZM5.43509 11.6335C5.35746 11.6369 5.28164 11.6094 5.22431 11.5569C5.16698 11.5045 5.13284 11.4314 5.1294 11.3537C5.12595 11.2761 5.15349 11.2003 5.20595 11.143C5.25841 11.0856 5.3315 11.0515 5.40913 11.0481C5.48677 11.0446 5.56259 11.0721 5.61992 11.1246C5.67725 11.1771 5.71139 11.2502 5.71483 11.3278C5.71827 11.4054 5.69074 11.4812 5.63827 11.5386C5.58581 11.5959 5.51273 11.63 5.43509 11.6335ZM12.7754 11.0481C12.8333 11.0504 12.8891 11.0699 12.9359 11.104C12.9827 11.1381 13.0184 11.1853 13.0383 11.2397C13.0583 11.294 13.0616 11.3531 13.048 11.4094C13.0344 11.4657 13.0044 11.5167 12.9618 11.5559C12.9192 11.5951 12.8659 11.6208 12.8087 11.6297C12.7514 11.6387 12.6929 11.6304 12.6403 11.6061C12.5878 11.5817 12.5437 11.5423 12.5135 11.4928C12.4834 11.4434 12.4686 11.3861 12.4711 11.3282C12.4743 11.2507 12.5082 11.1777 12.5653 11.1252C12.6223 11.0726 12.6979 11.0449 12.7754 11.0481Z" fill="white"/>
</g>
<defs>
<clipPath id="clip0_7161_268505">
<rect width="42.9086" height="17.35" fill="white"/>
</clipPath>
</defs>
</svg>
