<svg width="53" height="18" viewBox="0 0 53 18" fill="none" xmlns="http://www.w3.org/2000/svg">
<g clip-path="url(#clip0_7161_268507)">
<path d="M11.0387 7.01184H10.4844V12.7628H11.0387V7.01184Z" fill="#0080C8"/>
<path d="M11.0387 7.01184H10.4844V12.7628H11.0387V7.01184Z" stroke="#0080C8" stroke-width="0.553544" stroke-miterlimit="10"/>
<path d="M12.5834 8.7773L12.4698 8.72742L12.2425 9.2457L12.3562 9.29836C13.222 9.66615 13.9341 10.3219 14.372 11.1545C14.8099 11.9871 14.9465 12.9454 14.7589 13.8673C14.5712 14.7891 14.0707 15.6177 13.3422 16.2129C12.6137 16.808 11.7018 17.1331 10.7611 17.1331C9.82039 17.1331 8.90857 16.808 8.18004 16.2129C7.45151 15.6177 6.95105 14.7891 6.76338 13.8673C6.57571 12.9454 6.71237 11.9871 7.15023 11.1545C7.58809 10.3219 8.30023 9.66615 9.16608 9.29836L9.27694 9.2457L9.05799 8.72742L8.94158 8.7773C7.95741 9.19696 7.1484 9.94368 6.6514 10.8911C6.1544 11.8386 5.99992 12.9287 6.21408 13.9769C6.42824 15.0252 6.99791 15.9673 7.82672 16.6439C8.65553 17.3205 9.69259 17.69 10.7625 17.69C11.8324 17.69 12.8695 17.3205 13.6983 16.6439C14.5271 15.9673 15.0967 15.0252 15.3109 13.9769C15.5251 12.9287 15.3706 11.8386 14.8736 10.8911C14.3766 9.94368 13.5676 9.19696 12.5834 8.7773Z" fill="#0080C8"/>
<path d="M12.5834 8.7773L12.4698 8.72742L12.2425 9.2457L12.3562 9.29836C13.222 9.66615 13.9341 10.3219 14.372 11.1545C14.8099 11.9871 14.9465 12.9454 14.7589 13.8673C14.5712 14.7891 14.0707 15.6177 13.3422 16.2129C12.6137 16.808 11.7018 17.1331 10.7611 17.1331C9.82039 17.1331 8.90857 16.808 8.18004 16.2129C7.45151 15.6177 6.95105 14.7891 6.76338 13.8673C6.57571 12.9454 6.71237 11.9871 7.15023 11.1545C7.58809 10.3219 8.30023 9.66615 9.16608 9.29836L9.27694 9.2457L9.05799 8.72742L8.94158 8.7773C7.95741 9.19696 7.1484 9.94368 6.6514 10.8911C6.1544 11.8386 5.99992 12.9287 6.21408 13.9769C6.42824 15.0252 6.99791 15.9673 7.82672 16.6439C8.65553 17.3205 9.69259 17.69 10.7625 17.69C11.8324 17.69 12.8695 17.3205 13.6983 16.6439C14.5271 15.9673 15.0967 15.0252 15.3109 13.9769C15.5251 12.9287 15.3706 11.8386 14.8736 10.8911C14.3766 9.94368 13.5676 9.19696 12.5834 8.7773Z" stroke="#0080C8" stroke-width="0.553544" stroke-miterlimit="10"/>
<path d="M5.68449 17.1557C5.22811 17.5659 4.51951 17.771 3.55871 17.771C3.06204 17.78 2.57032 17.6709 2.1241 17.4526C1.67788 17.2343 1.28994 16.9131 0.992233 16.5154C0.328905 15.6821 -0.00184001 14.5356 7.69869e-06 13.0759C0.00185541 11.6162 0.349228 10.4679 1.04212 9.63088C1.34254 9.246 1.72885 8.93676 2.17017 8.7279C2.61148 8.51903 3.09554 8.41634 3.58365 8.42802C4.48164 8.42802 5.18007 8.63589 5.67064 9.04885L5.2355 10.2046C4.89214 9.9388 4.4666 9.80152 4.03264 9.81657C2.71892 9.81657 2.05651 10.8919 2.05651 13.0399C2.05651 14.0571 2.22281 14.8525 2.56925 15.4318C2.70247 15.6958 2.90654 15.9176 3.15862 16.0723C3.4107 16.2269 3.70086 16.3084 3.99661 16.3076C4.43835 16.3219 4.8704 16.1762 5.21333 15.8974L5.68449 17.1557Z" fill="#12244B"/>
<path d="M23.6609 17.735H21.6626V11.4851C21.6626 10.5068 21.136 10.0106 20.0773 10.0106C19.6034 10.0018 19.1325 10.0866 18.6915 10.2601V17.7433H16.6904V9.39536C17.782 8.93219 18.9615 8.71275 20.1466 8.75235C21.3882 8.75235 22.2918 9.02951 22.8793 9.56997C23.1394 9.80691 23.3437 10.0986 23.4774 10.424C23.6111 10.7495 23.671 11.1005 23.6526 11.4519V17.7378" fill="#12244B"/>
<path d="M32.2582 17.735H30.2599V11.4851C30.2599 10.5067 29.725 10.0106 28.6663 10.0106C28.1926 10.0036 27.722 10.0883 27.2805 10.2601V17.7433H25.2988V9.39535C26.3851 8.93062 27.5604 8.71107 28.7411 8.75234C29.98 8.75234 30.8863 9.0295 31.4767 9.56996C31.7356 9.80796 31.9392 10.0998 32.0733 10.4249C32.2073 10.75 32.2686 11.1005 32.2527 11.4519V17.7378" fill="#12244B"/>
<path d="M40.8477 13.1286L35.4432 13.9102C35.6122 15.5482 36.4104 16.3686 37.8461 16.3686C38.614 16.3841 39.3745 16.2149 40.0634 15.8752L40.5401 17.1335C39.6382 17.5839 38.6372 17.7993 37.6299 17.7599C36.3605 17.7599 35.36 17.358 34.6311 16.5626C33.9022 15.7672 33.5225 14.6225 33.5225 13.1563C33.5225 11.729 33.8551 10.6148 34.5313 9.80829C34.8698 9.40844 35.296 9.09213 35.7767 8.88398C36.2574 8.67582 36.7797 8.58145 37.3029 8.6082C38.4836 8.6082 39.376 8.99622 39.9885 9.76671C40.601 10.5372 40.8837 11.6542 40.8394 13.1286M38.988 12.3443C38.988 10.6813 38.406 9.84987 37.2474 9.84987C36.9695 9.83901 36.6936 9.90109 36.447 10.0299C36.2005 10.1588 35.992 10.3499 35.8423 10.5843C35.482 11.1137 35.3157 11.8925 35.3378 12.9124L38.988 12.3443Z" fill="#12244B"/>
<path d="M47.2245 17.1557C46.781 17.5548 46.0881 17.7571 45.1458 17.7571C44.6592 17.7669 44.1773 17.66 43.7405 17.4454C43.3036 17.2309 42.9245 16.9148 42.6348 16.5237C41.9862 15.7089 41.661 14.5855 41.6592 13.1535C41.6592 11.7372 41.9973 10.612 42.6763 9.78607C42.9723 9.40959 43.3517 9.10699 43.7846 8.9021C44.2174 8.69722 44.6919 8.59564 45.1707 8.60538C46.0576 8.60538 46.7422 8.81047 47.2162 9.21235L46.7977 10.3404C46.4596 10.0822 46.0421 9.94985 45.617 9.96622C44.3365 9.96622 43.6769 11.0166 43.6769 13.1258C43.6769 14.118 43.8404 14.9024 44.1813 15.4622C44.3099 15.7195 44.5077 15.9357 44.7526 16.0865C44.9974 16.2373 45.2795 16.3168 45.5671 16.3159C45.9983 16.3354 46.4217 16.1953 46.7561 15.9223L47.2162 17.1557" fill="#12244B"/>
<path d="M52.6684 17.5105C52.3404 17.6472 51.9869 17.7115 51.6318 17.699C51.2774 17.7203 50.9225 17.6638 50.5922 17.5336C50.2619 17.4034 49.964 17.2025 49.7194 16.9451C49.3352 16.4677 49.1381 15.8667 49.1651 15.2544V9.88868H48.1562V8.58328H49.1651V6.47411L51.205 5.9198V8.59713H52.6767V9.90254H51.205V15.1685C51.205 15.9362 51.5348 16.3243 52.1889 16.3243C52.3532 16.3198 52.5167 16.2984 52.6767 16.2605V17.5327" fill="#12244B"/>
<path d="M7.19247 4.47857V3.31728H6.51344V4.47857H5.87598V1.79846H6.51344V2.90709H7.19247V1.79846H7.82716V4.47857H7.19247Z" fill="#12244B"/>
<path d="M9.00757 4.51744C8.39782 4.51744 8.0791 4.05459 8.0791 3.42821C8.0791 2.80184 8.39783 2.33899 9.00203 2.33899C9.60623 2.33899 9.93051 2.79907 9.93051 3.42821C9.93051 4.05736 9.61177 4.51744 9.00757 4.51744ZM9.00757 2.71869C8.73041 2.71869 8.6833 3.04574 8.6833 3.4199C8.6833 3.79406 8.74427 4.10448 9.00757 4.10448C9.27087 4.10448 9.32907 3.7996 9.32907 3.4199C9.32907 3.04019 9.27364 2.71869 9.00757 2.71869Z" fill="#12244B"/>
<path d="M11.341 4.47864V3.02079C11.341 2.8739 11.2745 2.74363 11.0278 2.74363C10.9402 2.74383 10.8533 2.75786 10.7701 2.7852V4.50358H10.1631V2.49419C10.4424 2.38346 10.7413 2.33066 11.0417 2.33899C11.7069 2.33899 11.948 2.61614 11.948 3.00694V4.47864H11.341Z" fill="#12244B"/>
<path d="M13.0765 5.36277C12.8084 5.37286 12.5416 5.31969 12.2977 5.20756L12.4529 4.81122C12.6122 4.89389 12.789 4.93669 12.9684 4.93594C13.2872 4.93594 13.4036 4.78627 13.4036 4.54238V4.42874C13.2897 4.47979 13.1651 4.50262 13.0405 4.49526C12.5361 4.49526 12.1758 4.10724 12.1758 3.48087C12.1758 2.77966 12.5333 2.33899 13.2539 2.33899C13.5117 2.32933 13.7678 2.3836 13.9995 2.49696V4.49526C13.9995 5.08838 13.617 5.36277 13.0765 5.36277ZM13.4036 2.72423L13.2151 2.69097C12.9047 2.69097 12.7717 2.94319 12.7717 3.44761C12.7717 3.95204 12.8992 4.14882 13.2013 4.14882L13.4036 4.09893V2.72423Z" fill="#12244B"/>
<path d="M14.5645 4.47857V1.79846H15.1964V4.05174H15.8782V4.47857H14.5645Z" fill="#12244B"/>
<path d="M19.0683 4.51744C18.4585 4.51744 18.1426 4.05459 18.1426 3.42821C18.1426 2.80184 18.4585 2.33899 19.0627 2.33899C19.6669 2.33899 19.994 2.79907 19.994 3.42821C19.994 4.05736 19.6725 4.51744 19.0683 4.51744ZM19.0683 2.71869C18.7911 2.71869 18.744 3.04574 18.744 3.4199C18.744 3.79406 18.8022 4.10448 19.0683 4.10448C19.3344 4.10448 19.3953 3.7996 19.3953 3.4199C19.3953 3.04019 19.3344 2.71869 19.0683 2.71869Z" fill="#12244B"/>
<path d="M21.4797 4.47858V3.02073C21.4797 2.87384 21.4132 2.74357 21.1665 2.74357C21.0789 2.74377 20.9919 2.7578 20.9087 2.78515V4.50352H20.3018V2.49413C20.5821 2.3837 20.8819 2.33091 21.1831 2.33893C21.8483 2.33893 22.0894 2.61609 22.0894 3.00688V4.47858H21.4797Z" fill="#12244B"/>
<path d="M23.2173 5.36272C22.9482 5.37283 22.6805 5.31967 22.4357 5.20751L22.5937 4.81117C22.7535 4.89492 22.9316 4.93778 23.112 4.9359C23.4307 4.9359 23.5444 4.78623 23.5444 4.54233V4.42869C23.4296 4.48029 23.3041 4.50313 23.1785 4.49522C22.6769 4.49522 22.3193 4.1072 22.3193 3.48082C22.3193 2.77962 22.6741 2.33894 23.3947 2.33894C23.6516 2.32893 23.9069 2.38323 24.1375 2.49691V4.49522C24.1375 5.08833 23.755 5.36272 23.2173 5.36272ZM23.5444 2.72418L23.3559 2.69093C23.0455 2.69093 22.9125 2.94314 22.9125 3.44757C22.9125 3.95199 23.0427 4.14877 23.3448 4.14877L23.5444 4.09889V2.72418Z" fill="#12244B"/>
<path d="M17.0281 2.34167C16.4239 2.34167 16.083 2.7685 16.083 3.42813C16.083 4.08776 16.4489 4.5229 17.0946 4.5229C17.3535 4.53127 17.6106 4.47906 17.8457 4.37046L17.7071 3.99353C17.5332 4.07214 17.3436 4.11006 17.1528 4.10439C16.8424 4.10439 16.7011 3.96304 16.6429 3.64431L16.629 3.5279H17.9233V3.46416C17.951 2.75741 17.6462 2.34167 17.0364 2.34167M16.6262 3.23135C16.6262 2.87936 16.7842 2.70198 17.0115 2.70198C17.2388 2.70198 17.3579 2.86551 17.3607 3.23135H16.6262Z" fill="#12244B"/>
<path d="M4.67326 1.78741C4.50963 1.76842 4.34754 1.73786 4.18824 1.69595C3.44625 1.50023 2.79318 1.05735 2.33683 0.44043L1.80469 0.745304C2.03605 1.07352 2.31648 1.36423 2.63616 1.60726C3.04966 1.92074 3.52039 2.15046 4.02194 2.28352C4.23361 2.33955 4.44964 2.37756 4.66772 2.39715V1.78741" fill="#12244B"/>
<path d="M4.67315 3.44201V2.83227C4.41866 2.80708 4.16657 2.76166 3.91929 2.69646C2.91046 2.42932 2.02757 1.8162 1.42488 0.964233L0.895508 1.26911C1.20121 1.71408 1.57538 2.10789 2.00413 2.43594C2.52651 2.82676 3.11797 3.11543 3.74745 3.28681C4.04701 3.36606 4.35313 3.41801 4.66206 3.44201" fill="#12244B"/>
<path d="M0.52937 1.48254C0.862955 1.97906 1.27698 2.41649 1.75441 2.77686C2.31971 3.20413 2.9626 3.51758 3.64738 3.6998C3.98331 3.78849 4.32651 3.84692 4.67286 3.8744V4.48137C4.27362 4.45618 3.878 4.39024 3.49217 4.28459C2.73021 4.08253 2.01481 3.73424 1.38578 3.25911C0.843609 2.84973 0.375002 2.35114 0 1.78464L0.52937 1.48254Z" fill="#12244B"/>
<path d="M0.52937 4.78619C0.863717 4.29028 1.27763 3.85297 1.75441 3.49187C2.32037 3.06568 2.96304 2.75233 3.64738 2.56894C3.9834 2.48118 4.3266 2.42367 4.67286 2.3971V1.78735C3.73923 1.84668 2.83187 2.12063 2.0214 2.58788C1.21092 3.05513 0.519176 3.70308 0 4.48132L0.52937 4.78619Z" fill="#E32213"/>
<path d="M4.67315 2.83228V3.44201C4.41845 3.46265 4.16614 3.50625 3.91929 3.57228C2.90945 3.83882 2.02609 4.45325 1.42488 5.30728L0.895508 5.00241C1.31843 4.37823 1.87784 3.85846 2.53137 3.48248C3.1849 3.10649 3.91543 2.88415 4.66761 2.83228" fill="#E32213"/>
<path d="M4.67326 4.48141C4.50935 4.49998 4.34717 4.53148 4.18824 4.57564C3.44522 4.76909 2.79145 5.21245 2.33683 5.83117L1.80469 5.51521C2.03692 5.18932 2.31727 4.90056 2.63616 4.65879C3.04819 4.34293 3.51942 4.11297 4.02194 3.98253C4.23302 3.92387 4.44929 3.88582 4.66772 3.8689V4.47587" fill="#E32213"/>
</g>
<defs>
<clipPath id="clip0_7161_268507">
<rect width="52.6681" height="17.35" fill="white" transform="translate(0 0.44043)"/>
</clipPath>
</defs>
</svg>
