<svg width="71" height="10" viewBox="0 0 71 10" fill="none" xmlns="http://www.w3.org/2000/svg">
<g clip-path="url(#clip0_7161_268509)">
<path d="M14.9523 0.624756C14.9523 0.624756 15.3287 3.12932 18.3767 4.09022C18.3767 4.09022 21.9262 5.50966 21.9262 9.05915H20.008C20.008 5.50966 16.4585 4.09022 16.4585 4.09022C13.4105 3.12932 13.0342 0.624756 13.0342 0.624756" stroke="#36337C" stroke-width="0.6" stroke-miterlimit="10"/>
<path d="M13.0317 0.624756C13.0317 0.624756 12.6553 3.12932 9.6073 4.09022C9.6073 4.09022 6.0578 5.50966 6.0578 9.05915H4.13965C4.13965 5.50966 7.68823 4.09022 7.68823 4.09022C10.7372 3.12932 11.1126 0.624756 11.1126 0.624756" stroke="#36337C" stroke-width="0.6" stroke-miterlimit="10"/>
<path d="M11.1243 0.624756C11.1243 0.624756 11.4997 3.12932 14.5486 4.09022C14.5486 4.09022 18.0981 5.50966 18.0981 9.05915H16.18C16.18 5.50966 12.6305 4.09022 12.6305 4.09022C9.58244 3.12932 9.20703 0.624756 9.20703 0.624756" stroke="#36337C" stroke-width="0.6" stroke-miterlimit="10"/>
<path d="M9.20385 0.624756C9.20385 0.624756 8.82844 3.12932 5.77949 4.09022C5.77949 4.09022 2.22999 5.50966 2.22999 9.05915H0.316406C0.316406 5.50966 3.8659 4.09022 3.8659 4.09022C6.91394 3.12932 7.29027 0.624756 7.29027 0.624756" stroke="#36337C" stroke-width="0.6" stroke-miterlimit="10"/>
<path d="M7.29785 0.624756C7.29785 0.624756 7.67326 3.12932 10.7213 4.09022C10.7213 4.09022 14.2708 5.50966 14.2708 9.05915H7.96829C7.96829 5.50966 11.5178 4.09022 11.5178 4.09022C14.5658 3.12932 14.9412 0.624756 14.9412 0.624756" stroke="#36337C" stroke-width="0.6" stroke-miterlimit="10"/>
<path d="M66.1889 1.72273L66.6291 1.59668C66.6291 1.59668 66.7552 3.23168 64.9941 2.72839" fill="#36337C"/>
<path d="M67.4004 0.522478C67.4004 0.522478 67.9658 0.28682 67.9886 0.758138L68.2252 0.428394C68.2252 0.428394 68.4846 0.0749099 67.7776 0.00457764L67.4004 0.522478Z" fill="#36337C"/>
<path d="M68.3652 4.03087L68.7891 3.60614L69.1663 3.93588L68.7891 4.38436L68.3652 4.03087Z" fill="#36337C"/>
<path d="M69.4486 1.20204L69.1179 1.55553C69.1179 1.55553 69.8249 2.49817 68.811 2.89915C68.811 2.89915 68.01 3.27639 67.6327 2.97039C67.2375 3.1958 66.7916 3.31741 66.3366 3.32388C66.3366 3.32388 66.1484 3.37138 66.1713 2.99323L66.1484 0.683227L66.5723 0.234741L66.596 2.51826C66.596 2.51826 66.4782 2.80142 67.0673 2.63609C67.0673 2.63609 67.3742 2.68359 67.3742 2.42418C67.3742 2.42418 67.398 2.04694 67.6099 1.92911C67.6099 1.92911 67.5861 1.57562 68.1278 1.62221C68.1278 1.62221 68.6229 1.90536 68.2456 2.26159C68.2456 2.26159 68.0575 2.54475 68.4338 2.54475C68.4338 2.54566 70.0852 2.56941 69.4486 1.20204Z" fill="#36337C"/>
<path d="M66.1493 2.09722C66.1493 2.09722 65.8661 2.66353 64.7116 2.75761C64.7116 2.75761 63.1314 2.97043 63.5323 1.88531C63.7507 1.59316 64.0439 1.36534 64.3809 1.22583C64.4465 1.30323 64.5266 1.36714 64.6166 1.41399C64.5868 1.44055 64.5633 1.47327 64.5475 1.50987C64.5317 1.54646 64.5241 1.58606 64.5252 1.6259C64.5252 1.6259 64.0073 1.71724 64.0311 2.2388C64.2297 2.15278 64.4346 2.08194 64.644 2.02688C64.644 2.02688 64.9746 1.6734 64.8796 1.22583C64.8796 1.22583 64.833 0.871431 64.7152 0.753601C64.7152 0.753601 62.8053 1.39299 63.2538 2.85444C63.2538 2.85444 63.5141 3.51483 64.8065 3.27917C64.8047 3.27643 65.8898 3.08826 66.1493 2.09722Z" fill="#36337C"/>
<path d="M61.2216 2.30908C61.2216 2.30908 61.4581 1.53177 62.0436 1.79118C62.0436 1.79118 62.5149 2.33374 61.1247 2.89914C61.1247 2.89914 59.9455 3.30012 59.7099 3.01697C59.7099 3.01697 59.2386 3.3942 58.2256 3.41795V0.801955C58.2256 0.801955 58.295 0.352559 58.5316 0.282227L58.5782 2.80505C58.5782 2.80505 59.4733 2.97038 59.4733 2.49815C59.4733 2.49815 59.2386 2.21591 59.7099 1.88525C59.7099 1.88525 60.2753 1.39019 60.4406 2.00309C60.4406 2.00309 60.4406 2.35658 60.2515 2.54565C60.2552 2.54565 60.8918 2.61689 61.2216 2.30908Z" fill="#36337C"/>
<path d="M56.8839 2.40408C56.8839 2.40408 57.0721 1.76469 57.5672 1.88526C57.5672 1.88526 58.0157 2.35658 57.1196 2.97039C57.1196 2.97039 55.9641 3.37138 55.5403 3.41796C55.5403 3.41796 55.3759 3.4883 55.3522 3.08822L55.1868 1.27237C55.1868 1.27237 54.668 2.19126 54.173 2.66349C54.173 2.66349 53.5135 3.37138 51.957 3.41796C51.957 3.41796 54.267 2.68724 54.8799 1.27237C54.8799 1.27237 55.0918 0.494147 55.5403 0.470398L55.7084 2.71464C55.7084 2.71464 55.85 2.92746 56.6994 2.6443C56.7528 2.63107 56.8002 2.60011 56.8337 2.55646C56.8672 2.51282 56.8849 2.4591 56.8839 2.40408Z" fill="#36337C"/>
<path d="M53.5371 0.848567L53.9134 0.635742V2.05061C53.9134 2.05061 53.7015 2.30911 53.5371 2.33377V0.848567Z" fill="#36337C"/>
<path d="M52.3575 1.34454L52.1465 1.6962C52.1465 1.6962 52.8772 2.89916 51.3692 3.11198C51.3692 3.11198 49.5542 3.58239 49.2473 2.87633C49.1815 2.55195 49.2133 2.21534 49.3387 1.90903C49.3387 1.90903 49.0555 2.92291 50.7764 2.78133C50.7764 2.78133 53.4663 2.54567 52.3575 1.34454Z" fill="#36337C"/>
<path d="M50.6611 0.0466309H51.3918L51.1799 0.470451H50.4482L50.6611 0.0466309Z" fill="#36337C"/>
<path d="M23.5732 4.53235H25.4622C26.2267 4.53235 26.7976 4.91689 26.7976 5.72617C26.7976 6.31897 26.5327 6.64962 26.0732 6.82225V6.83504C26.6213 6.96383 26.9035 7.29997 26.9035 7.87359C26.9035 8.9989 26.0385 9.23548 25.3032 9.23548H23.5732V4.53235ZM24.6693 6.39296H24.9753C25.3343 6.39296 25.706 6.29248 25.706 5.89424C25.706 5.46311 25.3526 5.42292 24.9881 5.42292H24.6702L24.6693 6.39296ZM24.6693 8.34764H24.9927C25.3927 8.34764 25.8147 8.28097 25.8147 7.7996C25.8147 7.28718 25.3845 7.23968 25.0082 7.23968H24.673L24.6693 8.34764Z" fill="#34328F"/>
<path d="M29.4791 9.23819C29.4736 9.04912 29.4562 8.86735 29.4562 8.69015H29.4444C29.2023 9.12767 28.9091 9.32314 28.4734 9.32314C27.8678 9.32314 27.3262 8.9797 27.3262 8.21792C27.3262 7.14649 28.3437 7.0177 28.9091 7.0177C29.0749 7.01824 29.2404 7.03414 29.4033 7.0652C29.3969 6.58658 29.0854 6.4587 28.7027 6.4587C28.3588 6.45066 28.0199 6.54166 27.7262 6.72085L27.7089 5.89878C28.0927 5.72498 28.5107 5.63975 28.9319 5.64942C29.7147 5.64942 30.3934 6.03397 30.3934 7.10539V8.41339C30.3897 8.691 30.4092 8.96842 30.4518 9.24276L29.4791 9.23819ZM28.7483 8.50747C29.1484 8.50747 29.4014 8.08913 29.4014 7.6781C29.2662 7.67079 29.1128 7.658 28.9539 7.658C28.5949 7.658 28.3145 7.78588 28.3145 8.12293C28.3145 8.36863 28.5026 8.51021 28.7502 8.51021L28.7483 8.50747Z" fill="#34328F"/>
<path d="M31.0674 5.72887H32.0329V6.37556H32.0438C32.2557 5.87045 32.6832 5.64484 33.1618 5.64484C33.9976 5.64484 34.3328 6.31893 34.3328 7.04691V9.23909H33.2733V7.54015C33.2733 6.87976 33.0741 6.65689 32.7855 6.65689C32.3498 6.65689 32.1269 7.00124 32.1269 7.75297V9.23635H31.0674V5.72887Z" fill="#34328F"/>
<path d="M34.9922 4.1825H36.0508V7.20222H36.0627L36.9451 5.72889H38.1042L37.0391 7.3374L38.1928 9.2382H36.914L36.0664 7.50273H36.0545V9.2382H34.9922V4.1825Z" fill="#34328F"/>
<path d="M40.4102 4.53235H42.1338L43.0042 7.66077H43.0125L43.9259 4.53235H45.5846V9.23822H44.5159L44.5342 5.62478H44.5214L43.4746 9.23822H42.4699L41.4688 5.62478H41.4597L41.4834 9.23822H40.4102V4.53235Z" fill="#E4A025"/>
<path d="M49.534 9.23819H48.5694V8.59059H48.5576C48.3456 9.09661 47.9182 9.32131 47.4395 9.32131C46.6038 9.32131 46.2686 8.64721 46.2686 7.91923V5.72888H47.3281V7.42691C47.3281 8.08821 47.5281 8.31017 47.8159 8.31017C48.2516 8.31017 48.4753 7.96673 48.4753 7.21408V5.72888H49.534V9.23819Z" fill="#E4A025"/>
<path d="M52.1988 9.23819C52.1933 9.04912 52.176 8.86735 52.176 8.69015H52.1641C51.9229 9.12767 51.6288 9.32314 51.1931 9.32314C50.5875 9.32314 50.0459 8.9797 50.0459 8.21792C50.0459 7.14649 51.0634 7.0177 51.6288 7.0177C51.7947 7.01824 51.9601 7.03414 52.123 7.0652C52.1166 6.58658 51.8051 6.4587 51.4224 6.4587C51.0785 6.45066 50.7396 6.54166 50.446 6.72085L50.4286 5.89878C50.8124 5.72498 51.2304 5.63975 51.6517 5.64942C52.4345 5.64942 53.1131 6.03397 53.1131 7.10539V8.41339C53.1094 8.691 53.1289 8.96842 53.1716 9.24276L52.1988 9.23819ZM51.4681 8.50747C51.8681 8.50747 52.1212 8.08913 52.1212 7.6781C51.986 7.67079 51.8325 7.658 51.6736 7.658C51.3146 7.658 51.0342 7.78588 51.0342 8.12293C51.0342 8.36863 51.2224 8.51021 51.4699 8.51021L51.4681 8.50747Z" fill="#E4A025"/>
<path d="M53.791 5.72892H54.7565V6.37562H54.7674C54.9794 5.8705 55.4068 5.64489 55.8855 5.64489C56.0972 5.636 56.306 5.69725 56.4794 5.81913C56.6528 5.94101 56.7812 6.11672 56.8445 6.31898C56.942 6.11404 57.0964 5.94149 57.2893 5.82196C57.4822 5.70242 57.7055 5.64095 57.9324 5.64489C58.8148 5.64489 59.0148 6.21851 59.0148 7.16845V9.23823H57.9525V7.35022C57.9525 6.95289 57.8292 6.65603 57.5287 6.65603C57.1524 6.65603 56.9286 7.00039 56.9286 7.75212V9.23549H55.8699V7.35022C55.8699 6.95289 55.7466 6.65603 55.447 6.65603C55.0698 6.65603 54.8469 7.00039 54.8469 7.75212V9.23549H53.791V5.72892Z" fill="#E4A025"/>
<path d="M61.6763 9.2382C61.6699 9.04912 61.6525 8.86735 61.6525 8.69015H61.6407C61.3995 9.12767 61.1054 9.32314 60.6706 9.32314C60.0641 9.32314 59.5225 8.9797 59.5225 8.21792C59.5225 7.1465 60.5409 7.0177 61.1054 7.0177C61.2712 7.01819 61.4367 7.03409 61.5995 7.0652C61.5941 6.58658 61.2817 6.4587 60.8999 6.4587C60.5557 6.45069 60.2165 6.54168 59.9225 6.72085L59.9052 5.89878C60.2893 5.72496 60.7076 5.63974 61.1291 5.64942C61.911 5.64942 62.5906 6.03397 62.5906 7.10539V8.41339C62.5867 8.69104 62.6066 8.9685 62.65 9.24276L61.6763 9.2382ZM60.9455 8.50747C61.3456 8.50747 61.5986 8.08913 61.5986 7.6781C61.4634 7.67079 61.31 7.658 61.152 7.658C60.793 7.658 60.5126 7.78588 60.5126 8.12293C60.5117 8.36864 60.6998 8.51021 60.9465 8.51021L60.9455 8.50747Z" fill="#E4A025"/>
<path d="M63.3877 4.1825H64.4463V9.2382H63.3877V4.1825Z" fill="#E4A025"/>
<path d="M67.2349 9.23818C67.2295 9.04911 67.2112 8.86734 67.2112 8.69014H67.1993C66.9591 9.12766 66.6641 9.32313 66.2293 9.32313C65.6228 9.32313 65.082 8.97969 65.082 8.21791C65.082 7.14648 66.0996 7.01769 66.6641 7.01769C66.8299 7.01818 66.9953 7.03408 67.1582 7.06519C67.1527 6.58656 66.8413 6.45869 66.4585 6.45869C66.1151 6.44917 65.7762 6.53858 65.4821 6.71627L65.4647 5.8942C65.8486 5.7204 66.2666 5.63518 66.6878 5.64484C67.4706 5.64484 68.1493 6.02939 68.1493 7.10081V8.40881C68.1454 8.68646 68.1652 8.96392 68.2086 9.23818H67.2349ZM66.5042 8.50746C66.9043 8.50746 67.1564 8.08912 67.1564 7.67809C67.0212 7.67078 66.8687 7.65799 66.7097 7.65799C66.3508 7.65799 66.0703 7.78587 66.0703 8.12292C66.0703 8.36862 66.2585 8.5102 66.506 8.5102L66.5042 8.50746Z" fill="#E4A025"/>
<path d="M68.5527 5.72888H69.1766V4.93969L70.217 4.56976V5.72888H70.9623V6.57834H70.2206V7.87264C70.2206 8.29646 70.312 8.51202 70.6444 8.51202C70.7534 8.50606 70.8617 8.49016 70.9678 8.46453L71.0034 9.2528C70.7838 9.29222 70.5615 9.31481 70.3384 9.32039C69.3912 9.32039 69.162 8.84176 69.162 8.006V6.57561H68.5564L68.5527 5.72888Z" fill="#E4A025"/>
</g>
<defs>
<clipPath id="clip0_7161_268509">
<rect width="71" height="9.37612" fill="white"/>
</clipPath>
</defs>
</svg>
