<svg width="48" height="18" viewBox="0 0 48 18" fill="none" xmlns="http://www.w3.org/2000/svg">
<path d="M46.9834 9.28246L40.2126 16.0488L33.4414 9.28246L40.2126 2.51858L46.9834 9.28246Z" fill="#EF3E42"/>
<path d="M0.749023 16.696L2.24314 6.22217C2.57687 3.91094 5.01829 1.89462 7.63673 1.89462C10.2937 1.89462 11.5544 3.73946 11.2986 5.50975L11.0818 7.03442C10.9044 8.31264 9.95916 9.5424 8.28636 10.4516L9.99896 13.3526C10.1959 13.672 10.2751 14.1632 10.1959 14.6814C10.0189 15.7869 9.19179 16.696 8.28636 16.696C7.79468 16.696 7.40042 16.4268 7.16495 16.0085L4.64435 11.6552L4.21153 14.7046C4.05358 15.8113 3.22651 16.696 2.34057 16.696H0.749023ZM6.7313 4.05881C6.15961 4.05881 5.62854 4.62461 5.5307 5.33744L5.09913 8.49447C5.00129 9.20773 5.37524 9.77394 5.9461 9.77394C6.51655 9.77394 7.04804 9.20773 7.14671 8.49447L7.57786 5.33744C7.67653 4.62461 7.30134 4.05881 6.7313 4.05881Z" fill="#0067B1"/>
<path d="M12.9673 4.2058C13.1443 2.92717 14.148 1.87054 15.172 1.87054C16.1956 1.87054 16.8846 2.92717 16.7071 4.2058L15.9796 9.49223H18.0077L18.7551 4.2058C18.9322 2.92717 19.9367 1.87054 20.9607 1.87054C21.9842 1.87054 22.6733 2.92717 22.4958 4.2058L21.0784 14.3603C20.901 15.6385 19.8973 16.6964 18.8729 16.6964C17.8497 16.6964 17.1607 15.6385 17.3377 14.3603L17.7908 11.0658H15.7437L15.2906 14.3603C15.1127 15.6385 14.109 16.6964 13.0859 16.6964H11.2344L12.9673 4.2058Z" fill="#0067B1"/>
<path d="M32.8857 6.12401C32.7278 7.10773 32.1959 8.06619 31.2506 8.95134C31.9007 9.64015 32.176 10.5493 32.0383 11.4349L31.9007 12.3445C31.5467 14.6805 29.1243 16.696 26.5262 16.696H22.4111L23.9268 6.19857C24.2626 3.88692 26.7036 1.87101 29.3212 1.87101C31.9786 1.87101 33.2588 3.71461 32.9827 5.48531L32.8857 6.12401ZM27.8254 9.44341C27.1754 9.44341 26.5656 10.107 26.447 10.9188L26.1518 13.0333C26.0341 13.8443 26.4669 14.5078 27.1165 14.5078C27.7662 14.5078 28.3967 13.8443 28.5145 13.0333L28.8101 10.9188C28.9286 10.107 28.4743 9.44341 27.8254 9.44341ZM28.6131 4.05881C27.9635 4.05881 27.3723 4.72277 27.2347 5.53419L26.9988 6.98472C26.8599 7.79613 27.3139 8.45968 27.9635 8.45968C28.6131 8.45968 29.2234 7.79613 29.3619 6.98472L29.5973 5.53419C29.7354 4.72277 29.2624 4.05881 28.6131 4.05881Z" fill="#0067B1"/>
</svg>
