<svg width="71" height="12" viewBox="0 0 71 12" fill="none" xmlns="http://www.w3.org/2000/svg">
<g clip-path="url(#clip0_7161_268506)">
<path fill-rule="evenodd" clip-rule="evenodd" d="M50.5639 5.34821C51.1882 4.0373 51.8909 2.76517 52.6681 1.53872C52.976 1.06603 53.2912 0.533004 53.7602 0.200766C53.9637 0.0558053 54.2104 -0.0405349 54.4562 0.0125873C54.5928 0.0454565 54.72 0.109218 54.8281 0.198965C55.1594 0.462775 54.7651 0.966085 54.6084 1.22719C54.3563 1.64497 54.061 2.03213 53.8035 2.4472C53.1597 3.48804 52.5321 4.54418 51.9784 5.65164C51.6777 6.25759 51.3977 6.87525 51.1474 7.50821C51.0519 7.75221 50.4388 9.07577 50.654 9.20182C50.9079 9.34858 51.2977 8.84887 51.4553 8.71021C51.5894 8.59136 51.8857 8.33296 52.0792 8.40589C52.5168 8.57336 51.9892 9.34858 51.8542 9.56287C51.4805 10.1706 50.9592 10.7271 50.2335 10.7523C49.6248 10.7739 49.1161 10.3021 49.0558 9.6385C49.0349 9.22418 49.0793 8.80915 49.1872 8.40859C49.4339 7.31553 50.0138 6.33322 50.5639 5.34821Z" fill="#EC1C24"/>
<path fill-rule="evenodd" clip-rule="evenodd" d="M48.5575 8.26902C48.5567 8.35526 48.5373 8.44032 48.5007 8.51842C48.3207 8.91819 47.7678 9.10457 47.4203 9.32876C46.846 9.71169 46.2475 10.057 45.6285 10.3624C44.5652 10.8765 43.6018 11.4428 41.9298 10.691C40.6594 10.1148 40.4325 8.53913 41.0402 6.89324C41.5615 5.47785 42.5628 4.24524 43.754 3.17199C44.9452 2.09875 46.2633 1.07772 47.2186 0.976877C47.5607 0.941763 47.9317 0.991283 48.209 1.23889C48.7492 1.72149 48.6817 2.65968 48.3891 3.27193C48.209 3.64559 48.0073 3.89319 47.613 3.95082C47.2753 3.99944 46.8675 3.88689 46.9377 3.4241C46.9782 3.16479 47.2663 2.66778 47.0916 2.42018C46.8512 2.07984 45.9626 2.87037 45.7654 3.01533C45.388 3.30296 45.029 3.6139 44.6903 3.94632C44.0907 4.51715 43.5973 5.25726 43.1822 5.99557C42.705 6.85093 42.2602 7.84134 42.2548 8.86687C42.2548 9.1865 42.2674 9.55205 42.4349 9.83027C42.895 10.6028 44.0556 10.0437 44.6561 9.82487C45.2452 9.60912 45.8171 9.34906 46.3668 9.04694C46.9368 8.73631 47.4617 8.36176 48.0172 8.03042C48.3378 7.83594 48.5575 8.00251 48.5575 8.26902Z" fill="#EC1C24"/>
<path fill-rule="evenodd" clip-rule="evenodd" d="M55.5068 1.7188C55.7769 2.46701 56.0804 3.18101 56.9366 3.40971C56.9366 2.71642 56.4594 1.36405 55.5068 1.7188Z" fill="#EC1C24"/>
<path fill-rule="evenodd" clip-rule="evenodd" d="M55.4293 5.92545C55.4104 5.74537 55.3167 5.5851 55.1123 5.41223C54.8656 5.20244 54.5136 5.1052 54.2849 5.38522C54.1111 5.60041 54.0391 5.88673 53.9355 6.13433C53.7717 6.5278 53.6492 6.93116 53.5052 7.33183C53.194 8.18346 52.9558 9.05997 52.793 9.95192C52.9649 10.177 53.1036 10.4309 53.5655 10.4021C53.9905 9.54586 54.4199 8.6914 54.799 7.81443C54.9944 7.36424 55.1772 6.90235 55.3392 6.43596C55.407 6.27466 55.4378 6.10021 55.4293 5.92545Z" fill="#EC1C24"/>
<path fill-rule="evenodd" clip-rule="evenodd" d="M59.9227 7.78831C59.8966 7.82972 59.874 7.86394 59.8686 7.87114C59.7592 8.02348 59.633 8.16302 59.4923 8.28711C59.007 8.7373 58.5982 9.26132 58.085 9.68089C57.7158 9.98432 57.2648 10.1815 56.793 10.0005C56.2059 9.77633 55.6891 8.9687 55.8575 7.87474C56.0736 6.46926 57.1891 4.46322 57.9085 3.86627C58.4379 3.42599 59.097 3.4539 59.6138 3.89418C59.9425 4.1742 60.381 4.70452 60.3891 5.16641C60.3953 5.20752 60.3928 5.24948 60.3816 5.28953C60.3704 5.32957 60.3509 5.36679 60.3242 5.39871C60.2018 5.50946 59.9353 5.32398 59.784 5.19432C59.5967 5.03586 59.3914 4.84138 59.1222 4.899C58.9476 4.93682 58.7468 5.16911 58.6171 5.28256C58.4191 5.46288 58.2382 5.66121 58.0769 5.87501C57.7459 6.32043 57.4811 6.81142 57.2909 7.33272C57.1954 7.58842 56.6156 8.75081 57.2089 8.79222C57.398 8.80483 57.5691 8.70219 57.7321 8.64366C57.9265 8.57523 58.1111 8.4969 58.3074 8.41677C58.608 8.29522 58.9001 8.15354 59.1817 7.99269C59.4149 7.85403 59.6994 7.66495 60.0055 7.58932C60.037 7.58122 59.9731 7.70727 59.9227 7.78831Z" fill="#EC1C24"/>
<path fill-rule="evenodd" clip-rule="evenodd" d="M66.4044 4.49564C66.308 4.38129 66.1109 4.20662 65.9623 4.1679C65.6688 4.09227 65.2276 4.31016 64.9872 4.45062C64.7109 4.62696 64.4533 4.83089 64.2183 5.05927C63.6411 5.58419 62.7984 6.19825 62.2221 6.76368C62.3896 6.24507 62.6003 5.57789 62.8524 5.1205C63.0118 4.82878 63.0856 4.54156 63.2666 4.26784C63.4764 3.95271 63.6681 3.62047 63.8752 3.30174C64.1633 2.85965 64.6802 2.27441 64.7225 1.72428C64.7531 1.31551 64.2066 0.770783 63.7041 0.927449C62.8362 2.12585 62.2978 3.58806 61.6279 4.85219C61.2146 5.97315 60.6267 7.14454 60.4907 8.33934C60.4682 8.54012 60.4421 8.74091 60.4223 8.94349C60.3863 9.29734 60.353 9.66379 60.4223 10.0176C60.4425 10.1622 60.494 10.3007 60.5733 10.4232C60.6527 10.5458 60.7578 10.6495 60.8815 10.7271C61.3218 11.0099 61.3641 10.2769 61.3929 9.99783C61.4393 9.58854 61.5255 9.18475 61.6504 8.79223L61.4613 9.57646C61.8305 9.83756 61.9727 10.2067 62.3995 10.3202C63.2152 10.5354 63.9617 10.0428 64.5802 9.60797C64.7963 9.45671 65.5301 9.09655 65.7507 8.7229C65.8506 8.55363 65.8461 8.38166 65.6382 8.22679C65.4005 8.04672 65.0133 8.43388 64.7954 8.56353C64.4111 8.80177 64.0147 9.01995 63.6078 9.21721C63.4737 9.27933 62.2861 9.61157 62.278 9.64218C62.3862 9.1846 62.5514 8.74238 62.7696 8.32583C63.1711 7.56682 63.6429 6.85732 64.3083 6.29729C64.6315 6.02717 64.9728 5.76877 65.3158 5.51756C65.4869 5.39151 65.6562 5.26366 65.8308 5.14121C65.9848 5.03406 66.3441 5.05117 66.471 4.92782C66.598 4.80447 66.5079 4.61899 66.4044 4.49564Z" fill="#EC1C24"/>
<path fill-rule="evenodd" clip-rule="evenodd" d="M66.9893 6.17483C67.0213 5.94662 67.0707 5.72117 67.1369 5.50045C67.1992 5.28423 67.279 5.07344 67.3755 4.87019C67.5525 4.49587 67.8005 4.1595 68.1057 3.87977C68.4043 3.61119 68.7482 3.39778 69.1214 3.24951C69.4446 3.11716 70.0631 2.85335 70.4125 2.9794C70.5926 3.04423 71.1751 3.50342 70.9473 3.75192C70.7195 4.00042 70.534 3.92479 70.263 4.04274C69.468 4.38939 67.7105 5.57338 68.0202 6.83841C68.0483 6.9141 68.0891 6.98443 68.1408 7.04639C68.6964 7.61363 70.8735 8.20698 69.8615 9.42158C69.4347 9.9339 68.7216 10.195 68.0607 10.511C67.7771 10.6452 67.4358 10.8127 67.0973 10.9846C66.7435 11.1647 66.0754 11.6716 65.6972 11.2719C65.3938 10.9504 65.9844 10.6677 66.2023 10.5299C66.5148 10.331 66.8326 10.1392 67.1378 9.933C67.7492 9.52153 68.3281 9.04703 68.7243 8.41676C68.7747 8.33753 67.2972 7.26699 67.1612 7.07431C66.9767 6.8186 66.9523 6.49536 66.9893 6.17483Z" fill="#EC1C24"/>
<path d="M7.45781 8.61126C6.87069 9.08199 6.13946 9.33633 5.38695 9.33156C3.55018 9.33156 2.12128 7.86936 2.12128 6.00018C2.12128 4.131 3.55018 2.66879 5.38695 2.66879C6.13945 2.66409 6.87065 2.91842 7.45781 3.38909L7.48662 3.4107L8.90381 1.99441L8.8714 1.96469C7.90384 1.13001 6.66838 0.67111 5.39055 0.671754C2.41931 0.671754 0 3.06315 0 6.00288C0 8.9426 2.41841 11.334 5.39055 11.334C6.66909 11.3332 7.90465 10.8724 8.8714 10.0357L8.90381 10.0041L7.48662 8.58965L7.45781 8.61126ZM10.8252 11.0423H12.8646V0.967077H10.8252V11.0423ZM20.8986 7.40566C20.8221 7.27421 17.3421 0.95177 17.3421 0.95177H15.3532V11.0189H17.3853V5.00256C17.5393 5.26547 20.8968 11.0999 20.8968 11.0999C20.8968 11.0999 24.2417 5.26637 24.3912 5.00346V11.0189H26.4251V0.947269H24.4371C24.4371 0.947269 20.9688 7.2697 20.8986 7.40116V7.40566ZM34.8085 5.87682C35.1684 5.66672 35.4668 5.36575 35.6738 5.00405C35.8808 4.64234 35.9892 4.23261 35.988 3.81587C35.988 2.06013 34.7905 0.967077 32.8619 0.967077H28.8102V11.0378H33.0321C34.9418 11.0378 36.1285 9.92221 36.1285 8.12146C36.1321 6.7691 35.3343 6.14153 34.8085 5.87682ZM30.8469 2.79304H32.7106C33.4922 2.79304 33.9586 3.20541 33.9586 3.9014C33.9586 4.59739 33.4895 5.00706 32.7106 5.00706H30.8433L30.8469 2.79304ZM32.8376 9.21362H30.8433V6.84473H32.834C33.7632 6.84473 34.0945 7.45338 34.0945 8.02332C34.0945 8.59326 33.7632 9.21362 32.834 9.21362H32.8376Z" fill="#820024"/>
</g>
<defs>
<clipPath id="clip0_7161_268506">
<rect width="71" height="11.4231" fill="white"/>
</clipPath>
</defs>
</svg>
