<svg width="71" height="14" viewBox="0 0 71 14" fill="none" xmlns="http://www.w3.org/2000/svg">
<g clip-path="url(#clip0_7161_268514)">
<path d="M9.1836 7.34153C9.1744 7.34153 9.1836 11.6795 9.1836 11.6795C9.1836 12.2247 8.71561 12.7026 8.10247 12.7026H7.51766V12.9242H12.478V12.7026H11.8925C11.2885 12.7026 10.812 12.2169 10.812 11.6795V2.018C10.812 1.48982 11.2786 0.996338 11.8925 0.996338H12.478V0.773315H7.51482V0.995632H8.09964C8.72127 0.995632 9.18077 1.49124 9.18077 2.01729V6.7291H3.29933V2.01729C3.29933 1.48911 3.77582 0.995632 4.37975 0.995632H4.96528V0.773315H0V0.995632H0.586941C1.19937 0.995632 1.66595 1.49124 1.66595 2.01729V11.6816C1.66595 12.219 1.19937 12.7047 0.586941 12.7047H0V12.9263H4.96528V12.7047H4.37975C3.77582 12.7047 3.29933 12.2197 3.29933 11.6816C3.29933 11.6816 3.30782 7.34436 3.29933 7.34436H9.1836" fill="#231F20"/>
<path d="M20.9911 9.74383C21.0336 10.4582 20.5918 11.5415 19.9794 12.0958C19.2871 12.7397 18.376 13.0964 17.4306 13.0934C16.1561 13.0934 15.0594 12.4102 14.6601 12.258C14.418 12.1652 14.0994 12.1751 13.911 12.2913C13.6894 12.4279 13.557 12.6495 13.5032 13.058H13.3135V8.84962H13.5011C13.6703 10.1446 14.2735 10.9028 14.6474 11.3376C15.2605 12.0456 16.4174 12.4456 17.5304 12.2665C18.4161 12.1249 19.384 11.162 19.2785 9.96969C19.2409 9.53922 19.1461 8.91334 18.2547 8.32923C17.6939 7.9639 16.8981 7.44209 16.1441 6.94153C15.1947 6.30998 14.3316 5.62463 14.0866 5.34779C13.7694 4.98529 13.3722 4.46137 13.3722 3.62662C13.3722 2.91153 13.6455 2.09307 14.2219 1.54719C14.7982 1.00132 15.5834 0.593506 16.7056 0.593506C17.8278 0.593506 18.6788 1.18965 18.9669 1.3263C19.0902 1.38648 19.2256 1.41776 19.3627 1.41776C19.4999 1.41776 19.6352 1.38648 19.7585 1.3263C19.9369 1.22434 20.0559 1.0707 20.1061 0.662181H20.2952V4.6497H20.1061C19.9376 3.35404 19.3748 2.38406 18.9839 2.02439C18.5931 1.66473 17.827 1.17478 16.6879 1.39427C15.5961 1.60667 15.0644 2.10227 14.9631 2.97879C14.886 3.64645 15.2463 4.05851 15.4587 4.30773C15.8836 4.81891 18.5825 6.35105 19.8045 7.40882C20.4339 7.95398 20.9267 8.60252 20.9933 9.74525" fill="#231F20"/>
<path d="M28.8567 6.71997C31.0161 7.46409 31.6321 8.99268 31.2306 10.5673C30.7612 12.4195 28.6768 12.7961 28 12.8853C27.6955 12.925 26.9181 12.9221 26.1478 12.9221C24.7736 12.9221 23.0326 12.9221 21.6406 12.9221V12.6998H22.355C22.8103 12.6998 23.3285 12.3168 23.3285 11.7369V2.03719C23.3285 1.45662 22.8103 1.06509 22.3578 1.06509H21.6435V0.842773H25.9545C26.9918 0.842773 27.5539 0.94331 27.9186 1.01411C28.5324 1.13235 30.3201 1.65911 30.7449 3.32718C31.0756 4.62001 30.4306 6.25126 28.8595 6.71926M24.9456 6.37871C25.5425 6.53234 27.2948 6.5727 27.9745 6.14011C29.0365 5.46254 29.4082 4.37504 29.2128 3.41214C29.1 2.81411 28.7597 2.28314 28.2634 1.93099C27.2261 1.19749 25.7287 1.31714 24.9456 1.55645V6.37871ZM24.9456 12.2368C25.7881 12.4959 27.384 12.6956 28.4991 11.8969C29.8373 10.9369 30.1198 8.59478 28.2315 7.37417C27.4718 6.87856 25.5757 6.91538 24.9456 7.06406V12.2368Z" fill="#231F20"/>
<path d="M42.5976 0.985736L42.7704 5.10211L42.524 5.1099C42.405 4.06983 42.0142 3.33987 41.5207 2.85984C41.2795 2.61125 41.0117 2.38996 40.7221 2.19997C39.9074 1.67166 38.9236 1.46945 37.9665 1.63357C36.2496 1.94013 35.366 3.07791 34.9221 4.17178C34.3769 5.517 34.0335 7.81875 34.9554 9.76153C35.7058 11.3376 37.1452 11.9953 38.2547 12.1645C39.202 12.3061 41.2991 12.2636 42.8964 10.1028L43.152 10.2734C41.9116 12.0286 40.2619 13.1529 38.375 13.1366C35.9586 13.1147 34.4413 11.7815 33.7489 10.9885C33.0175 10.1538 32.4568 8.56923 32.4483 7.18861C32.444 5.96092 32.7131 4.59588 33.1563 3.79796C33.9139 2.42512 35.4927 1.0622 37.5778 0.857586C39.1355 0.705364 40.1628 1.01122 41.0393 1.51462C41.4761 1.76596 41.7232 1.79783 41.9597 1.69304C42.1962 1.58825 42.3888 1.38647 42.3888 0.985029H42.5969" fill="#231F20"/>
<path d="M46.7686 6.85371L52.827 12.9242V0.783936L46.7686 6.85371Z" fill="#ED3725"/>
<path d="M52.8271 12.9243H64.9412L58.8835 6.85449L52.8271 12.9243Z" fill="#ED3725"/>
<path d="M58.8835 6.85371L64.9412 0.783936H52.8271L58.8835 6.85371Z" fill="#ED3725"/>
<path d="M64.9414 0.783936V12.9242L70.9999 6.85371L64.9414 0.783936Z" fill="#ED3725"/>
</g>
<defs>
<clipPath id="clip0_7161_268514">
<rect width="71" height="12.5438" fill="white" transform="translate(0 0.593506)"/>
</clipPath>
</defs>
</svg>
